<svg width="175" height="78" viewBox="0 0 175 78" fill="none" xmlns="http://www.w3.org/2000/svg">
<path d="M71.86 44L75.668 25.968H88.968L88.24 29.44H79.448L78.636 33.22H86.392L85.664 36.748H77.908L77.096 40.528H85.888L85.16 44H71.86ZM114.527 44.28C112.996 44.28 111.662 43.9907 110.523 43.412C109.403 42.8147 108.591 41.984 108.087 40.92C107.583 39.8373 107.48 38.5773 107.779 37.14L110.131 25.968H114.639L112.371 36.72C112.11 37.9707 112.194 38.904 112.623 39.52C113.071 40.136 113.976 40.444 115.339 40.444C116.72 40.444 117.766 40.136 118.475 39.52C119.184 38.904 119.67 37.9707 119.931 36.72L122.199 25.968H126.707L124.355 37.14C123.832 39.5667 122.731 41.368 121.051 42.544C119.371 43.7013 117.196 44.28 114.527 44.28ZM125.911 44L129.719 25.968H138.343C139.743 25.968 140.863 26.2573 141.703 26.836C142.562 27.4147 143.14 28.1893 143.439 29.16C143.756 30.1307 143.794 31.2133 143.551 32.408C143.178 34.3493 142.356 35.8893 141.087 37.028C139.818 38.148 138.1 38.708 135.935 38.708H131.539L130.419 44H125.911ZM132.267 35.236H135.515C136.616 35.236 137.428 34.9747 137.951 34.452C138.474 33.9293 138.819 33.2387 138.987 32.38C139.192 31.3347 139.146 30.588 138.847 30.14C138.567 29.6733 137.914 29.44 136.887 29.44H133.499L132.267 35.236ZM163.9 44.28C162.706 44.28 161.604 44.1867 160.596 44C159.607 43.832 158.776 43.58 158.104 43.244L158.916 39.408C159.682 39.7627 160.531 40.052 161.464 40.276C162.416 40.5 163.34 40.612 164.236 40.612C165.356 40.612 166.215 40.5093 166.812 40.304C167.41 40.0987 167.783 39.6507 167.932 38.96C168.026 38.4933 167.97 38.12 167.764 37.84C167.559 37.56 167.167 37.3173 166.588 37.112C166.028 36.888 165.263 36.6267 164.292 36.328C162.556 35.7867 161.399 35.124 160.82 34.34C160.26 33.5373 160.13 32.4267 160.428 31.008C160.802 29.2907 161.698 27.9747 163.116 27.06C164.554 26.1453 166.476 25.688 168.884 25.688C169.93 25.688 170.928 25.772 171.88 25.94C172.832 26.0893 173.598 26.2667 174.176 26.472L173.336 30.336C172.59 30.0187 171.824 29.7853 171.04 29.636C170.275 29.4867 169.51 29.412 168.744 29.412C167.736 29.412 166.896 29.5053 166.224 29.692C165.571 29.8787 165.17 30.308 165.02 30.98C164.946 31.372 164.992 31.6893 165.16 31.932C165.328 32.156 165.664 32.3613 166.168 32.548C166.691 32.7347 167.4 32.9587 168.296 33.22C169.696 33.612 170.723 34.088 171.376 34.648C172.048 35.1893 172.459 35.824 172.608 36.552C172.758 37.2613 172.739 38.064 172.552 38.96C172.216 40.5467 171.32 41.8347 169.864 42.824C168.427 43.7947 166.439 44.28 163.9 44.28Z" fill="#100E0E"/>
<path d="M87.6166 44L91.4246 25.968H99.2366C100.898 25.968 102.298 26.276 103.437 26.892C104.575 27.508 105.359 28.488 105.789 29.832C106.218 31.176 106.209 32.9307 105.761 35.096C105.331 37.1493 104.715 38.8387 103.913 40.164C103.11 41.4707 102.046 42.4413 100.721 43.076C99.4139 43.692 97.7712 44 95.7926 44H87.6166ZM92.8526 40.528H95.5406C96.6419 40.528 97.5472 40.388 98.2566 40.108C98.9659 39.8093 99.5446 39.268 99.9926 38.484C100.459 37.7 100.851 36.5707 101.169 35.096C101.486 33.6027 101.617 32.4547 101.561 31.652C101.505 30.8307 101.187 30.2613 100.609 29.944C100.049 29.608 99.1432 29.44 97.8926 29.44H95.2046L92.8526 40.528ZM143.171 44L146.979 25.968H151.487L148.407 40.528H156.919L156.191 44H143.171Z" fill="#179BD7"/>
<path d="M22.9021 23.7344C25.537 21.0994 31.2478 15.2797 38.9348 18.1375C44.7992 20.3119 57.1618 25.4927 65.2847 27.9098L67.1916 27.5482C64.9473 19.9566 60.1461 13.3751 53.6024 8.91993C47.0586 4.46478 39.1753 2.41032 31.2895 3.10503C23.4036 3.79974 16.0009 7.20085 10.3369 12.7315C4.67283 18.2621 1.09627 25.5817 0.213825 33.4487C-0.668623 41.3157 1.19737 49.2458 5.49531 55.8938C9.79325 62.5419 16.2585 67.4986 23.7944 69.9231C31.3304 72.3477 39.473 72.0909 46.8411 69.1963C54.2093 66.3016 60.3494 60.9474 64.2198 54.0417C53.2935 53.8733 50.6288 45.5226 48.0681 47.1075C47.1766 47.6622 45.2202 48.9153 42.8972 50.1239L45.5322 53.274C50.7378 59.7772 44.3187 64.0269 44.3187 64.0269L42.6892 62.1943C41.9963 63.849 40.8578 65.279 39.4004 66.3251L36.8051 63.4028C36.4152 63.7882 35.9945 64.1411 35.547 64.4578L27.6222 55.5424L29.6034 47.8554L30.2027 48.0931C31.9809 42.8083 41.238 35.1411 43.9918 32.9519L43.1102 32.4863H32.4613C32.4613 32.4863 31.9115 34.5715 27.3003 37.6473C32.7832 52.7242 21.1437 55.1561 21.1437 55.1561C21.1437 55.1561 17.434 41.892 15.4379 36.9291C13.4914 32.0703 20.2671 26.3694 22.9021 23.7344Z" fill="#179BD7"/>
<path d="M39.7918 51.5947L39.1331 51.8622L39.5491 52.3575L39.7918 51.5947Z" fill="#E56031" stroke="#E56031" stroke-miterlimit="10"/>
<path d="M22.9564 43.4423C28.5583 52.3576 33.6648 47.2313 33.6648 47.2313L39.9204 29.2767L29.7123 28.2861L22.2828 40.307L22.9564 43.4423Z" fill="#1C1C1C" stroke="white" stroke-miterlimit="10"/>
<mask id="path-5-inside-1_1142_15569" fill="white">
<path d="M70.6636 26.8942L65.2847 27.9145C57.1618 25.4974 44.7991 20.3166 38.9348 18.1423C31.2478 15.2844 25.537 21.1141 22.902 23.7391C20.267 26.3642 13.4914 32.075 15.4379 36.9141C17.4191 41.867 21.1437 55.141 21.1437 55.141C21.1437 55.141 32.7832 52.7289 27.2953 37.6867C31.9065 34.6109 32.4563 32.5257 32.4563 32.5257H43.1052L72.0802 47.9097"/>
</mask>
<path d="M70.6636 26.8942L65.2847 27.9145C57.1618 25.4974 44.7991 20.3166 38.9348 18.1423C31.2478 15.2844 25.537 21.1141 22.902 23.7391C20.267 26.3642 13.4914 32.075 15.4379 36.9141C17.4191 41.867 21.1437 55.141 21.1437 55.141C21.1437 55.141 32.7832 52.7289 27.2953 37.6867C31.9065 34.6109 32.4563 32.5257 32.4563 32.5257H43.1052L72.0802 47.9097" fill="white"/>
<path d="M70.85 27.8767C71.3926 27.7737 71.749 27.2504 71.6461 26.7078C71.5432 26.1652 71.0198 25.8088 70.4772 25.9117L70.85 27.8767ZM65.2847 27.9145L64.9995 28.873C65.1525 28.9185 65.3142 28.9267 65.471 28.897L65.2847 27.9145ZM38.9348 18.1423L38.5863 19.0796L38.5872 19.0799L38.9348 18.1423ZM15.4379 36.9141L16.3664 36.5427L16.3656 36.5409L15.4379 36.9141ZM21.1437 55.141L20.1809 55.4112C20.3229 55.9171 20.8321 56.2268 21.3466 56.1202L21.1437 55.141ZM27.2953 37.6867L26.7404 36.8548C26.3566 37.1108 26.1978 37.5961 26.3559 38.0295L27.2953 37.6867ZM32.4563 32.5257V31.5257C32.0022 31.5257 31.6051 31.8317 31.4894 32.2708L32.4563 32.5257ZM43.1052 32.5257L43.5742 31.6425C43.4298 31.5658 43.2687 31.5257 43.1052 31.5257V32.5257ZM71.6112 48.7929C72.099 49.0519 72.7044 48.8664 72.9634 48.3786C73.2224 47.8908 73.0369 47.2854 72.5491 47.0264L71.6112 48.7929ZM70.4772 25.9117L65.0983 26.932L65.471 28.897L70.85 27.8767L70.4772 25.9117ZM65.5699 26.956C57.4855 24.5504 45.2253 19.4081 39.2825 17.2047L38.5872 19.0799C44.373 21.2251 56.838 26.4445 64.9995 28.873L65.5699 26.956ZM39.2833 17.205C35.1118 15.6541 31.4634 16.4729 28.5587 17.9994C25.6879 19.508 23.5021 21.7298 22.1962 23.0307L23.6078 24.4476C24.937 23.1234 26.924 21.1178 29.4891 19.7698C32.0203 18.4396 35.0708 17.7726 38.5863 19.0796L39.2833 17.205ZM22.1962 23.0307C20.9375 24.2847 18.4901 26.4584 16.6534 28.8943C14.8517 31.2839 13.3207 34.3304 14.5101 37.2873L16.3656 36.5409C15.6085 34.6587 16.4921 32.4302 18.2504 30.0984C19.9737 27.8128 22.2316 25.8186 23.6078 24.4476L22.1962 23.0307ZM14.5094 37.2855C15.4805 39.7131 16.8945 44.226 18.0758 48.1717C18.6638 50.1361 19.1903 51.9465 19.5697 53.266C19.7594 53.9256 19.9123 54.4623 20.0178 54.8339C20.0705 55.0197 20.1113 55.1642 20.139 55.2622C20.1528 55.3112 20.1633 55.3485 20.1703 55.3736C20.1739 55.3861 20.1765 55.3956 20.1783 55.4019C20.1792 55.405 20.1798 55.4074 20.1803 55.4089C20.1805 55.4097 20.1806 55.4103 20.1807 55.4107C20.1808 55.4109 20.1808 55.411 20.1809 55.4111C20.1809 55.4112 20.1809 55.4112 21.1437 55.141C22.1065 54.8709 22.1065 54.8708 22.1065 54.8707C22.1064 54.8706 22.1064 54.8704 22.1063 54.8702C22.1062 54.8698 22.106 54.8691 22.1058 54.8683C22.1053 54.8666 22.1046 54.8642 22.1037 54.8609C22.1019 54.8544 22.0992 54.8447 22.0956 54.832C22.0884 54.8065 22.0778 54.7687 22.0638 54.7193C22.036 54.6204 21.9948 54.4749 21.9418 54.2881C21.8358 53.9144 21.6823 53.3754 21.4918 52.7132C21.111 51.389 20.5825 49.5713 19.9917 47.5981C18.8153 43.6686 17.3765 39.068 16.3664 36.5427L14.5094 37.2855ZM21.1437 55.141C21.3466 56.1202 21.3473 56.1201 21.348 56.1199C21.3483 56.1199 21.3491 56.1197 21.3497 56.1196C21.3509 56.1193 21.3523 56.119 21.3539 56.1187C21.357 56.118 21.3609 56.1172 21.3654 56.1162C21.3745 56.1142 21.3864 56.1116 21.4009 56.1082C21.43 56.1016 21.4699 56.0921 21.5196 56.0794C21.6189 56.0542 21.7578 56.0163 21.9292 55.9632C22.2715 55.8571 22.7458 55.6893 23.2935 55.4381C24.385 54.9374 25.7942 54.0933 27.0224 52.7218C29.5466 49.9032 31.0748 45.1284 28.2347 37.344L26.3559 38.0295C29.0038 45.2873 27.4561 49.2396 25.5325 51.3876C24.5369 52.4994 23.3792 53.1984 22.4597 53.6202C22.002 53.8301 21.6099 53.9683 21.337 54.0528C21.2009 54.0951 21.0951 54.1237 21.0266 54.1411C20.9924 54.1498 20.9676 54.1557 20.9529 54.1591C20.9456 54.1607 20.9409 54.1618 20.9388 54.1622C20.9378 54.1625 20.9374 54.1625 20.9378 54.1625C20.9379 54.1624 20.9383 54.1624 20.9388 54.1623C20.939 54.1622 20.9395 54.1621 20.9396 54.1621C20.9402 54.162 20.9408 54.1618 21.1437 55.141ZM27.8502 38.5186C30.2263 36.9337 31.5998 35.5749 32.3904 34.5718C32.786 34.0699 33.035 33.6577 33.1901 33.3521C33.2676 33.1995 33.3213 33.0739 33.358 32.9777C33.3764 32.9296 33.3904 32.889 33.401 32.856C33.4063 32.8395 33.4107 32.825 33.4144 32.8124C33.4163 32.8061 33.4179 32.8003 33.4194 32.795C33.4201 32.7924 33.4208 32.7899 33.4215 32.7875C33.4218 32.7863 33.4221 32.7851 33.4224 32.784C33.4225 32.7834 33.4228 32.7826 33.4228 32.7823C33.4231 32.7815 33.4233 32.7807 32.4563 32.5257C31.4894 32.2708 31.4896 32.27 31.4898 32.2692C31.4899 32.2689 31.4901 32.2682 31.4902 32.2677C31.4905 32.2666 31.4907 32.2657 31.491 32.2647C31.4915 32.2628 31.492 32.2611 31.4924 32.2594C31.4933 32.2562 31.4941 32.2534 31.4948 32.2512C31.4961 32.2467 31.4969 32.2442 31.497 32.2438C31.4973 32.2429 31.4951 32.25 31.4894 32.2649C31.478 32.2948 31.4527 32.3562 31.4066 32.4471C31.3145 32.6286 31.138 32.9299 30.8196 33.3338C30.1825 34.1422 28.9755 35.3639 26.7404 36.8548L27.8502 38.5186ZM32.4563 33.5257H43.1052V31.5257H32.4563V33.5257ZM42.6363 33.409L71.6112 48.7929L72.5491 47.0264L43.5742 31.6425L42.6363 33.409Z" fill="#1C1C1C" mask="url(#path-5-inside-1_1142_15569)"/>
<path d="M38.0433 57.0185L44.289 64.0419C44.289 64.0419 50.7279 59.7922 45.5025 53.289L40.9755 47.8853L38.0433 57.0185Z" fill="white" stroke="#EFDB24" stroke-miterlimit="10"/>
<path d="M36.4088 60.1091L38.8358 63.0462C39.0764 63.3389 39.3724 63.5814 39.7067 63.7597C40.0411 63.938 40.4073 64.0487 40.7844 64.0855C41.1616 64.1223 41.5423 64.0845 41.9048 63.9741C42.2673 63.8638 42.6045 63.6831 42.8972 63.4425C43.1899 63.2018 43.4323 62.9059 43.6107 62.5715C43.789 62.2372 43.8997 61.871 43.9365 61.4938C43.9733 61.1167 43.9354 60.736 43.8251 60.3735C43.7148 60.011 43.5341 59.6737 43.2935 59.381L40.8665 56.439L36.4088 60.1091Z" fill="#EFDB24"/>
<path d="M32.1244 58.1772L39.3805 66.3397C39.3805 66.3397 46.8397 61.3868 40.7921 53.8434L35.5271 47.563L32.1244 58.1772Z" fill="white" stroke="#EFDB24" stroke-miterlimit="10"/>
<path d="M31.6986 60.9611L34.1256 63.8982C34.3662 64.1909 34.6622 64.4333 34.9965 64.6117C35.3309 64.79 35.6971 64.9007 36.0742 64.9375C36.4514 64.9743 36.8321 64.9364 37.1946 64.8261C37.5571 64.7158 37.8943 64.5351 38.187 64.2945C38.4797 64.0538 38.7221 63.7578 38.9004 63.4235C39.0788 63.0891 39.1895 62.7229 39.2263 62.3458C39.2631 61.9687 39.2252 61.588 39.1149 61.2255C39.0046 60.8629 38.8239 60.5257 38.5832 60.233L36.1563 57.2959L31.6986 60.9611Z" fill="#EFDB24"/>
<path d="M27.642 55.5772L35.5667 64.4926C35.5667 64.4926 43.6549 59.1186 37.0526 50.857C31.0149 48.44 29.5835 47.8853 29.5835 47.8853L27.642 55.5772Z" fill="white" stroke="#EFDB24" stroke-miterlimit="10"/>
<path d="M27.741 59.0789L30.1679 62.016C30.6546 62.6071 31.3562 62.9807 32.1183 63.0545C32.8805 63.1284 33.6407 62.8964 34.2318 62.4097C34.823 61.923 35.1965 61.2214 35.2704 60.4593C35.3442 59.6972 35.1123 58.9369 34.6256 58.3458L32.1986 55.4087L27.741 59.0789Z" fill="#EFDB24"/>
<path d="M37.6174 51.7338C37.6174 51.7338 49.9157 60.4114 65.6117 54.0419C81.3077 47.6723 51.778 39.6782 51.778 39.6782L40.6883 45.498L37.6174 51.7338Z" fill="#1C1C1C" stroke="#1C1C1C" stroke-miterlimit="10"/>
<path d="M48.0335 12.3477L17.8203 67.3257C19.8249 68.4347 21.9376 69.3359 24.1255 70.0152L52.0256 19.2075" fill="#1C1C1C"/>
<path d="M52.0255 19.2072L58.4743 7.46365L52.506 4.20459L48.0334 12.3473" fill="#1C1C1C"/>
<path d="M16.9634 69.9507L16.4681 77.4842L22.8377 72.6996C20.7965 71.9726 18.8295 71.0521 16.9634 69.9507Z" fill="#1C1C1C"/>
<path d="M80 47.6722C73.4075 48.9897 68.7963 53.8188 65.1757 54.0417C53.4272 54.3686 50.6833 45.478 48.0483 47.1075C45.4133 48.7371 33.333 56.5479 30.2572 51.169C27.1814 45.7901 44.7546 32.3477 44.7546 32.3477" fill="white"/>
<path d="M80 47.6722C73.4075 48.9897 68.7963 53.8188 65.1757 54.0417C53.4272 54.3686 50.6833 45.478 48.0483 47.1075C45.4133 48.7371 33.333 56.5479 30.2572 51.169C27.1814 45.7901 44.7546 32.3477 44.7546 32.3477" stroke="#1C1C1C" stroke-linecap="round" stroke-linejoin="round"/>
<path d="M36.1563 44.0664L33.0062 46.2111C32.375 46.6406 31.9403 47.3033 31.7977 48.0534C31.7271 48.4247 31.7304 48.8064 31.8073 49.1766C31.8842 49.5467 32.0332 49.8981 32.2459 50.2106C32.4586 50.5231 32.7308 50.7907 33.0469 50.9981C33.363 51.2054 33.7168 51.3485 34.0882 51.4191C34.8383 51.5616 35.6142 51.4004 36.2454 50.9709L39.3955 48.8262L36.1563 44.0664Z" fill="#EFDB24"/>
<path d="M16.2006 46.9638L17.1912 50.6489C17.4081 51.3645 17.8946 51.9679 18.5481 52.3315C19.2015 52.6951 19.9707 52.7906 20.6932 52.5978C21.4157 52.4049 22.035 51.9389 22.4203 51.298C22.8056 50.6571 22.9268 49.8915 22.7583 49.163L21.7677 45.4829L16.2006 46.9638Z" fill="#EFDB24"/>
<path d="M21.5797 36.335C23.3285 37.2934 25.3023 37.7654 27.2955 37.702" stroke="#EFDB24" stroke-linecap="round" stroke-linejoin="round"/>
<path d="M30.5297 29.6235C30.8972 30.7462 31.5633 31.7478 32.4564 32.521" stroke="#EFDB24" stroke-linecap="round" stroke-linejoin="round"/>
<path d="M59.5145 6.08688L59.8513 5.47271C60.1059 5.05894 60.2739 4.59781 60.3451 4.11723C60.4163 3.63666 60.3893 3.14662 60.2656 2.67681C60.1419 2.20699 59.9242 1.76715 59.6256 1.38392C59.327 1.00068 58.9538 0.682021 58.5284 0.447224C58.1031 0.212427 57.6346 0.0663759 57.1512 0.0179118C56.6678 -0.0305522 56.1796 0.0195804 55.7161 0.165271C55.2527 0.310961 54.8236 0.549186 54.4548 0.865517C54.0861 1.18185 53.7854 1.56971 53.5709 2.00563L53.2341 2.61979L59.5145 6.08688Z" fill="#179BD7"/>
<path d="M44.7546 32.3725C46.971 31.063 49.5008 30.3783 52.0751 30.3913" stroke="#EFDB24" stroke-miterlimit="10" stroke-linecap="round"/>
<path d="M36.5972 32.6396L29.4797 45.7254" stroke="#EFDB24" stroke-miterlimit="10" stroke-linecap="round" stroke-dasharray="2 2"/>
</svg>
