<svg width="175" height="78" viewBox="0 0 175 78" fill="none" xmlns="http://www.w3.org/2000/svg">
<path d="M71.86 44L75.668 25.968H88.968L88.24 29.44H79.448L78.636 33.22H86.392L85.664 36.748H77.908L77.096 40.528H85.888L85.16 44H71.86ZM87.6166 44L91.4246 25.968H99.2366C100.898 25.968 102.298 26.276 103.437 26.892C104.575 27.508 105.359 28.488 105.789 29.832C106.218 31.176 106.209 32.9307 105.761 35.096C105.331 37.1493 104.715 38.8387 103.913 40.164C103.11 41.4707 102.046 42.4413 100.721 43.076C99.4139 43.692 97.7712 44 95.7926 44H87.6166ZM92.8526 40.528H95.5406C96.6419 40.528 97.5472 40.388 98.2566 40.108C98.9659 39.8093 99.5446 39.268 99.9926 38.484C100.459 37.7 100.851 36.5707 101.169 35.096C101.486 33.6027 101.617 32.4547 101.561 31.652C101.505 30.8307 101.187 30.2613 100.609 29.944C100.049 29.608 99.1432 29.44 97.8926 29.44H95.2046L92.8526 40.528ZM114.527 44.28C112.996 44.28 111.662 43.9907 110.523 43.412C109.403 42.8147 108.591 41.984 108.087 40.92C107.583 39.8373 107.48 38.5773 107.779 37.14L110.131 25.968H114.639L112.371 36.72C112.11 37.9707 112.194 38.904 112.623 39.52C113.071 40.136 113.976 40.444 115.339 40.444C116.72 40.444 117.766 40.136 118.475 39.52C119.184 38.904 119.67 37.9707 119.931 36.72L122.199 25.968H126.707L124.355 37.14C123.832 39.5667 122.731 41.368 121.051 42.544C119.371 43.7013 117.196 44.28 114.527 44.28ZM125.911 44L129.719 25.968H138.343C139.743 25.968 140.863 26.2573 141.703 26.836C142.562 27.4147 143.14 28.1893 143.439 29.16C143.756 30.1307 143.794 31.2133 143.551 32.408C143.178 34.3493 142.356 35.8893 141.087 37.028C139.818 38.148 138.1 38.708 135.935 38.708H131.539L130.419 44H125.911ZM132.267 35.236H135.515C136.616 35.236 137.428 34.9747 137.951 34.452C138.474 33.9293 138.819 33.2387 138.987 32.38C139.192 31.3347 139.146 30.588 138.847 30.14C138.567 29.6733 137.914 29.44 136.887 29.44H133.499L132.267 35.236ZM143.171 44L146.979 25.968H151.487L148.407 40.528H156.919L156.191 44H143.171ZM163.9 44.28C162.706 44.28 161.604 44.1867 160.596 44C159.607 43.832 158.776 43.58 158.104 43.244L158.916 39.408C159.682 39.7627 160.531 40.052 161.464 40.276C162.416 40.5 163.34 40.612 164.236 40.612C165.356 40.612 166.215 40.5093 166.812 40.304C167.41 40.0987 167.783 39.6507 167.932 38.96C168.026 38.4933 167.97 38.12 167.764 37.84C167.559 37.56 167.167 37.3173 166.588 37.112C166.028 36.888 165.263 36.6267 164.292 36.328C162.556 35.7867 161.399 35.124 160.82 34.34C160.26 33.5373 160.13 32.4267 160.428 31.008C160.802 29.2907 161.698 27.9747 163.116 27.06C164.554 26.1453 166.476 25.688 168.884 25.688C169.93 25.688 170.928 25.772 171.88 25.94C172.832 26.0893 173.598 26.2667 174.176 26.472L173.336 30.336C172.59 30.0187 171.824 29.7853 171.04 29.636C170.275 29.4867 169.51 29.412 168.744 29.412C167.736 29.412 166.896 29.5053 166.224 29.692C165.571 29.8787 165.17 30.308 165.02 30.98C164.946 31.372 164.992 31.6893 165.16 31.932C165.328 32.156 165.664 32.3613 166.168 32.548C166.691 32.7347 167.4 32.9587 168.296 33.22C169.696 33.612 170.723 34.088 171.376 34.648C172.048 35.1893 172.459 35.824 172.608 36.552C172.758 37.2613 172.739 38.064 172.552 38.96C172.216 40.5467 171.32 41.8347 169.864 42.824C168.427 43.7947 166.439 44.28 163.9 44.28Z" fill="white"/>
<path d="M22.9021 23.7344C25.537 21.0994 31.2478 15.2797 38.9348 18.1375C44.7992 20.3119 57.1618 25.4927 65.2847 27.9098L67.1916 27.5482C64.9473 19.9566 60.1461 13.3751 53.6024 8.91993C47.0586 4.46478 39.1753 2.41032 31.2895 3.10503C23.4036 3.79974 16.0009 7.20085 10.3369 12.7315C4.67283 18.2621 1.09627 25.5817 0.213825 33.4487C-0.668623 41.3157 1.19737 49.2458 5.49531 55.8938C9.79325 62.5419 16.2585 67.4986 23.7944 69.9232C31.3304 72.3477 39.473 72.0909 46.8411 69.1963C54.2093 66.3016 60.3494 60.9474 64.2198 54.0417C53.2935 53.8733 50.6288 45.5226 48.0681 47.1075C47.1766 47.6622 45.2202 48.9153 42.8972 50.1239L45.5322 53.274C50.7378 59.7772 44.3187 64.0269 44.3187 64.0269L42.6892 62.1943C41.9963 63.849 40.8578 65.279 39.4004 66.3251L36.8051 63.4028C36.4152 63.7882 35.9945 64.1411 35.547 64.4578L27.6222 55.5424L29.6034 47.8554L30.2027 48.0931C31.9809 42.8083 41.238 35.1411 43.9918 32.9519L43.1102 32.4863H32.4613C32.4613 32.4863 31.9115 34.5715 27.3003 37.6473C32.7832 52.7242 21.1437 55.1561 21.1437 55.1561C21.1437 55.1561 17.434 41.892 15.4379 36.9291C13.4914 32.0703 20.2671 26.3694 22.9021 23.7344Z" fill="#179BD7"/>
<path d="M39.7916 51.5947L39.1328 51.8622L39.5489 52.3575L39.7916 51.5947Z" fill="#E56031" stroke="#E56031" stroke-miterlimit="10"/>
<path d="M22.9568 43.4423C28.5586 52.3576 33.6652 47.2313 33.6652 47.2313L39.9208 29.2767L29.7127 28.2861L22.2832 40.307L22.9568 43.4423Z" fill="#1C1C1C" stroke="white" stroke-miterlimit="10"/>
<mask id="path-5-inside-1_1_16891" fill="white">
<path d="M70.6638 26.8942L65.2849 27.9145C57.162 25.4974 44.7994 20.3166 38.9351 18.1423C31.248 15.2844 25.5373 21.1141 22.9023 23.7391C20.2673 26.3642 13.4916 32.075 15.4381 36.9141C17.4193 41.867 21.144 55.141 21.144 55.141C21.144 55.141 32.7835 52.7289 27.2956 37.6867C31.9068 34.6109 32.4566 32.5257 32.4566 32.5257H43.1055L72.0804 47.9097"/>
</mask>
<path d="M70.6638 26.8942L65.2849 27.9145C57.162 25.4974 44.7994 20.3166 38.9351 18.1423C31.248 15.2844 25.5373 21.1141 22.9023 23.7391C20.2673 26.3642 13.4916 32.075 15.4381 36.9141C17.4193 41.867 21.144 55.141 21.144 55.141C21.144 55.141 32.7835 52.7289 27.2956 37.6867C31.9068 34.6109 32.4566 32.5257 32.4566 32.5257H43.1055L72.0804 47.9097" fill="white"/>
<path d="M70.8502 27.8767C71.3928 27.7737 71.7493 27.2504 71.6463 26.7078C71.5434 26.1652 71.0201 25.8088 70.4775 25.9117L70.8502 27.8767ZM65.2849 27.9145L64.9997 28.873C65.1527 28.9185 65.3144 28.9267 65.4713 28.897L65.2849 27.9145ZM38.9351 18.1423L38.5866 19.0796L38.5874 19.0799L38.9351 18.1423ZM15.4381 36.9141L16.3666 36.5427L16.3659 36.5409L15.4381 36.9141ZM21.144 55.141L20.1811 55.4112C20.3231 55.9171 20.8324 56.2268 21.3469 56.1202L21.144 55.141ZM27.2956 37.6867L26.7407 36.8548C26.3569 37.1108 26.198 37.5961 26.3561 38.0295L27.2956 37.6867ZM32.4566 32.5257V31.5257C32.0025 31.5257 31.6054 31.8317 31.4896 32.2708L32.4566 32.5257ZM43.1055 32.5257L43.5744 31.6425C43.43 31.5658 43.269 31.5257 43.1055 31.5257V32.5257ZM71.6115 48.7929C72.0992 49.0519 72.7046 48.8664 72.9636 48.3786C73.2226 47.8908 73.0371 47.2854 72.5493 47.0264L71.6115 48.7929ZM70.4775 25.9117L65.0985 26.932L65.4713 28.897L70.8502 27.8767L70.4775 25.9117ZM65.5701 26.956C57.4858 24.5504 45.2255 19.4081 39.2827 17.2047L38.5874 19.0799C44.3732 21.2251 56.8383 26.4445 64.9997 28.873L65.5701 26.956ZM39.2835 17.205C35.1121 15.6541 31.4636 16.4729 28.559 17.9994C25.6882 19.508 23.5023 21.7298 22.1965 23.0307L23.608 24.4476C24.9372 23.1234 26.9242 21.1178 29.4893 19.7698C32.0206 18.4396 35.071 17.7726 38.5866 19.0796L39.2835 17.205ZM22.1965 23.0307C20.9377 24.2847 18.4903 26.4584 16.6537 28.8943C14.8519 31.2839 13.321 34.3304 14.5104 37.2873L16.3659 36.5409C15.6088 34.6587 16.4924 32.4302 18.2506 30.0984C19.9739 27.8128 22.2318 25.8186 23.608 24.4476L22.1965 23.0307ZM14.5097 37.2855C15.4807 39.7131 16.8948 44.226 18.076 48.1717C18.6641 50.1361 19.1905 51.9465 19.57 53.266C19.7597 53.9256 19.9126 54.4623 20.018 54.8339C20.0707 55.0197 20.1116 55.1642 20.1392 55.2622C20.153 55.3112 20.1635 55.3486 20.1706 55.3736C20.1741 55.3861 20.1768 55.3956 20.1785 55.4019C20.1794 55.405 20.1801 55.4074 20.1805 55.4089C20.1807 55.4097 20.1809 55.4103 20.181 55.4107C20.181 55.4109 20.1811 55.411 20.1811 55.4111C20.1811 55.4112 20.1811 55.4112 21.144 55.141C22.1068 54.8709 22.1068 54.8708 22.1067 54.8707C22.1067 54.8706 22.1066 54.8704 22.1066 54.8702C22.1065 54.8698 22.1063 54.8691 22.106 54.8683C22.1056 54.8666 22.1049 54.8642 22.104 54.8609C22.1021 54.8544 22.0994 54.8447 22.0958 54.832C22.0887 54.8065 22.078 54.7687 22.0641 54.7193C22.0362 54.6204 21.9951 54.4749 21.9421 54.2881C21.8361 53.9144 21.6825 53.3754 21.4921 52.7132C21.1112 51.389 20.5827 49.5713 19.992 47.5981C18.8156 43.6686 17.3767 39.068 16.3666 36.5427L14.5097 37.2855ZM21.144 55.141C21.3469 56.1202 21.3476 56.1201 21.3483 56.1199C21.3486 56.1199 21.3494 56.1197 21.35 56.1196C21.3512 56.1193 21.3526 56.119 21.3541 56.1187C21.3573 56.118 21.3611 56.1172 21.3657 56.1162C21.3747 56.1142 21.3866 56.1116 21.4012 56.1082C21.4303 56.1016 21.4701 56.0921 21.5198 56.0794C21.6191 56.0542 21.7581 56.0163 21.9295 55.9632C22.2717 55.8571 22.7461 55.6893 23.2938 55.4381C24.3853 54.9374 25.7944 54.0933 27.0227 52.7218C29.5468 49.9032 31.075 45.1284 28.235 37.344L26.3561 38.0295C29.004 45.2873 27.4564 49.2396 25.5328 51.3876C24.5371 52.4994 23.3794 53.1984 22.46 53.6202C22.0022 53.8301 21.6101 53.9683 21.3373 54.0528C21.2011 54.0951 21.0954 54.1237 21.0269 54.1411C20.9926 54.1498 20.9678 54.1557 20.9532 54.1591C20.9459 54.1607 20.9412 54.1618 20.9391 54.1622C20.9381 54.1625 20.9377 54.1625 20.938 54.1625C20.9382 54.1624 20.9385 54.1624 20.939 54.1623C20.9393 54.1622 20.9398 54.1621 20.9399 54.1621C20.9404 54.162 20.941 54.1618 21.144 55.141ZM27.8505 38.5186C30.2266 36.9337 31.6001 35.5749 32.3907 34.5718C32.7862 34.0699 33.0353 33.6577 33.1904 33.3521C33.2678 33.1995 33.3216 33.0739 33.3583 32.9777C33.3766 32.9296 33.3907 32.889 33.4013 32.856C33.4066 32.8395 33.411 32.825 33.4147 32.8124C33.4165 32.8061 33.4182 32.8003 33.4196 32.795C33.4204 32.7924 33.421 32.7899 33.4217 32.7875C33.422 32.7863 33.4223 32.7851 33.4226 32.784C33.4228 32.7834 33.423 32.7826 33.4231 32.7823C33.4233 32.7815 33.4235 32.7807 32.4566 32.5257C31.4896 32.2708 31.4898 32.27 31.49 32.2692C31.4901 32.2689 31.4903 32.2682 31.4904 32.2677C31.4907 32.2666 31.491 32.2657 31.4912 32.2647C31.4917 32.2628 31.4922 32.2611 31.4927 32.2594C31.4936 32.2562 31.4944 32.2534 31.495 32.2512C31.4963 32.2467 31.4971 32.2442 31.4973 32.2438C31.4976 32.2429 31.4953 32.25 31.4896 32.2649C31.4782 32.2948 31.453 32.3562 31.4069 32.4471C31.3147 32.6286 31.1382 32.9299 30.8199 33.3338C30.1828 34.1422 28.9758 35.3639 26.7407 36.8548L27.8505 38.5186ZM32.4566 33.5257H43.1055V31.5257H32.4566V33.5257ZM42.6365 33.409L71.6115 48.7929L72.5493 47.0264L43.5744 31.6425L42.6365 33.409Z" fill="#1C1C1C" mask="url(#path-5-inside-1_1_16891)"/>
<path d="M38.043 57.0185L44.2887 64.0419C44.2887 64.0419 50.7275 59.7922 45.5022 53.289L40.9751 47.8853L38.043 57.0185Z" fill="white" stroke="#EFDB24" stroke-miterlimit="10"/>
<path d="M36.4092 60.1091L38.8361 63.0462C39.0768 63.3389 39.3728 63.5814 39.7071 63.7597C40.0415 63.938 40.4077 64.0487 40.7848 64.0855C41.1619 64.1223 41.5426 64.0845 41.9051 63.9741C42.2677 63.8638 42.6049 63.6831 42.8976 63.4425C43.1903 63.2018 43.4327 62.9059 43.611 62.5715C43.7893 62.2372 43.9001 61.871 43.9369 61.4938C43.9736 61.1167 43.9358 60.736 43.8255 60.3735C43.7151 60.011 43.5345 59.6737 43.2938 59.381L40.8669 56.439L36.4092 60.1091Z" fill="#EFDB24"/>
<path d="M32.124 58.1772L39.3801 66.3397C39.3801 66.3397 46.8393 61.3867 40.7917 53.8434L35.5267 47.563L32.124 58.1772Z" fill="white" stroke="#EFDB24" stroke-miterlimit="10"/>
<path d="M31.6982 60.9611L34.1252 63.8982C34.3659 64.1909 34.6618 64.4333 34.9962 64.6117C35.3305 64.79 35.6967 64.9007 36.0739 64.9375C36.451 64.9743 36.8317 64.9364 37.1942 64.8261C37.5567 64.7158 37.8939 64.5351 38.1866 64.2945C38.4793 64.0538 38.7218 63.7578 38.9001 63.4235C39.0784 63.0891 39.1891 62.7229 39.2259 62.3458C39.2627 61.9687 39.2249 61.588 39.1145 61.2255C39.0042 60.8629 38.8235 60.5257 38.5829 60.233L36.1559 57.2959L31.6982 60.9611Z" fill="#EFDB24"/>
<path d="M27.6416 55.5772L35.5664 64.4926C35.5664 64.4926 43.6546 59.1186 37.0523 50.857C31.0146 48.44 29.5832 47.8853 29.5832 47.8853L27.6416 55.5772Z" fill="white" stroke="#EFDB24" stroke-miterlimit="10"/>
<path d="M27.7412 59.0789L30.1682 62.016C30.6549 62.6071 31.3565 62.9807 32.1186 63.0545C32.8807 63.1284 33.641 62.8964 34.2321 62.4097C34.8232 61.923 35.1968 61.2214 35.2706 60.4593C35.3445 59.6972 35.1125 58.9369 34.6259 58.3458L32.1989 55.4087L27.7412 59.0789Z" fill="#EFDB24"/>
<path d="M37.6172 51.7338C37.6172 51.7338 49.9154 60.4114 65.6114 54.0419C81.3074 47.6723 51.7778 39.6782 51.7778 39.6782L40.688 45.498L37.6172 51.7338Z" fill="#1C1C1C" stroke="#1C1C1C" stroke-miterlimit="10"/>
<path d="M48.0335 12.3477L17.8203 67.3257C19.8249 68.4347 21.9376 69.3359 24.1255 70.0152L52.0256 19.2075" fill="#1C1C1C"/>
<path d="M52.0253 19.2072L58.4741 7.46365L52.5057 4.20459L48.0332 12.3473" fill="#1C1C1C"/>
<path d="M16.9631 69.9507L16.4678 77.4842L22.8373 72.6996C20.7961 71.9726 18.8291 71.0521 16.9631 69.9507Z" fill="#1C1C1C"/>
<path d="M79.9996 47.6722C73.4072 48.9897 68.796 53.8188 65.1753 54.0417C53.4269 54.3686 50.6829 45.478 48.0479 47.1075C45.4129 48.7371 33.3326 56.5479 30.2568 51.169C27.181 45.7901 44.7542 32.3477 44.7542 32.3477" fill="white"/>
<path d="M79.9996 47.6722C73.4072 48.9897 68.796 53.8188 65.1753 54.0417C53.4269 54.3686 50.6829 45.478 48.0479 47.1075C45.4129 48.7371 33.3326 56.5479 30.2568 51.169C27.181 45.7901 44.7542 32.3477 44.7542 32.3477" stroke="#1C1C1C" stroke-linecap="round" stroke-linejoin="round"/>
<path d="M36.1563 44.0664L33.0062 46.2111C32.375 46.6406 31.9403 47.3033 31.7977 48.0534C31.7271 48.4247 31.7304 48.8064 31.8073 49.1766C31.8842 49.5467 32.0332 49.8981 32.2459 50.2106C32.4586 50.5231 32.7308 50.7907 33.0469 50.9981C33.363 51.2054 33.7168 51.3485 34.0882 51.4191C34.8383 51.5616 35.6142 51.4004 36.2454 50.9709L39.3955 48.8262L36.1563 44.0664Z" fill="#EFDB24"/>
<path d="M16.2002 46.9638L17.1908 50.6489C17.4077 51.3645 17.8943 51.9679 18.5477 52.3315C19.2011 52.6951 19.9703 52.7906 20.6928 52.5978C21.4153 52.4049 22.0346 51.9389 22.42 51.298C22.8053 50.6571 22.9265 49.8915 22.7579 49.163L21.7673 45.4829L16.2002 46.9638Z" fill="#EFDB24"/>
<path d="M21.5801 36.335C23.3289 37.2934 25.3026 37.7654 27.2958 37.702" stroke="#EFDB24" stroke-linecap="round" stroke-linejoin="round"/>
<path d="M30.5293 29.6235C30.8969 30.7462 31.5629 31.7478 32.456 32.521" stroke="#EFDB24" stroke-linecap="round" stroke-linejoin="round"/>
<path d="M59.5148 6.08688L59.8516 5.47271C60.1061 5.05894 60.2741 4.59781 60.3453 4.11723C60.4165 3.63666 60.3895 3.14662 60.2658 2.67681C60.1422 2.20699 59.9244 1.76715 59.6258 1.38392C59.3273 1.00068 58.954 0.682021 58.5287 0.447224C58.1034 0.212427 57.6348 0.0663759 57.1514 0.0179118C56.668 -0.0305522 56.1798 0.0195804 55.7164 0.165271C55.2529 0.310961 54.8238 0.549186 54.4551 0.865517C54.0864 1.18185 53.7857 1.56971 53.5712 2.00563L53.2344 2.61979L59.5148 6.08688Z" fill="#179BD7"/>
<path d="M44.7549 32.3725C46.9713 31.063 49.5011 30.3783 52.0754 30.3913" stroke="#EFDB24" stroke-miterlimit="10" stroke-linecap="round"/>
<path d="M36.5969 32.6396L29.4795 45.7254" stroke="#EFDB24" stroke-miterlimit="10" stroke-linecap="round" stroke-dasharray="2 2"/>
</svg>
