<svg width="100" height="95" viewBox="0 0 100 95" fill="none" xmlns="http://www.w3.org/2000/svg">
<path d="M30.3275 63.5084C30.5169 64.2119 30.9137 64.4103 31.4323 64.2525C31.9509 64.0947 32.208 63.77 32.0321 63.062L30.7018 57.7316C30.686 57.5975 30.6415 57.4684 30.5715 57.353C30.5015 57.2375 30.4074 57.1385 30.2958 57.0626C30.1841 56.9866 30.0575 56.9356 29.9244 56.9129C29.7913 56.8901 29.6548 56.8963 29.5243 56.9309C29.3938 56.9654 29.2722 57.0277 29.1679 57.1133C29.0635 57.199 28.9787 57.3061 28.9193 57.4273C28.8599 57.5486 28.8273 57.6812 28.8236 57.8162C28.8199 57.9511 28.8453 58.0853 28.8979 58.2096C29.4571 60.3291 29.7457 61.3889 30.3275 63.5084Z" fill="#179BD7"/>
<path d="M51.2967 11.5671H51.5808H51.9145L53.9619 0H51.5808H51.2967H48.9111L50.963 11.5671H51.2967Z" fill="#179BD7"/>
<path d="M59.7435 12.5682L60.0636 12.6675L65.4075 2.20071L63.1257 1.50172L62.8551 1.42055L60.5777 0.726074L59.1572 12.3879L59.4729 12.4871L59.7435 12.5682Z" fill="#179BD7"/>
<path d="M67.2557 15.9141L67.5353 16.099L75.7066 7.65259L73.7269 6.31775L73.4924 6.15992L71.5172 4.82959L66.7461 15.5669L67.0257 15.7563L67.2557 15.9141Z" fill="#179BD7"/>
<path d="M43.1338 12.5682L43.3998 12.4871L43.72 12.3879L42.2995 0.726074L40.0176 1.42055L39.7471 1.50172L37.4697 2.20071L42.8136 12.6675L43.1338 12.5682Z" fill="#179BD7"/>
<path d="M79.9323 35.9458L79.9594 36.2254L79.9865 36.5591L91.6933 37.5918L91.4859 35.2152L91.4633 34.9356L91.2559 32.5591L79.9053 35.6121L79.9323 35.9458Z" fill="#179BD7"/>
<path d="M51.4771 14.4756C45.4546 14.4695 39.6132 16.5348 34.933 20.325C30.2527 24.1152 27.0183 29.3996 25.7725 35.2918C26.485 34.9581 27.211 34.6379 27.9506 34.3538C29.5992 33.7183 31.2976 33.2206 33.0284 32.8657C36.4614 32.1261 40.0125 32.1261 43.4455 32.8657C45.0682 33.2289 46.6382 33.7972 48.1174 34.5568C48.8585 34.9409 49.5726 35.3749 50.255 35.8555C50.5707 36.0765 50.8818 36.3065 51.184 36.5545L51.432 36.7575L51.5132 36.8251C51.5673 36.9153 51.6214 36.9153 51.6755 36.8251C51.8863 36.698 52.0816 36.5466 52.2572 36.3741C57.8401 32.0494 65.299 31.5399 71.9416 33.3121C73.6101 33.753 75.2427 34.3198 76.8255 35.0077L77.1005 35.134C75.8253 29.285 72.5891 24.0475 67.9287 20.2901C63.2683 16.5327 57.4635 14.4811 51.4771 14.4756Z" fill="#179BD7"/>
<path d="M35.6164 15.9141L35.8509 15.7563L36.1259 15.5669L31.3548 4.82959L29.3796 6.15992L29.1451 6.31775L27.1699 7.65259L35.3413 16.099L35.6164 15.9141Z" fill="#179BD7"/>
<path d="M77.7229 28.0225L77.8267 28.2796L77.9529 28.5907L89.4524 26.1556L88.5595 23.9459L88.4512 23.6843L87.5583 21.4746L77.5967 27.7114L77.7229 28.0225Z" fill="#179BD7"/>
<path d="M73.2895 21.0865L73.4653 21.3075L73.6773 21.5645L83.9591 15.8779L82.4574 14.0245L82.2816 13.8035L80.7844 11.9546L73.082 20.8295L73.2895 21.0865Z" fill="#179BD7"/>
<path d="M25.046 28.2796L25.1542 28.0225L25.276 27.7114L15.3143 21.4746L14.4214 23.6843L14.3177 23.9459L13.4248 26.1556L24.9242 28.5907L25.046 28.2796Z" fill="#179BD7"/>
<path d="M29.4069 21.3075L29.5873 21.0865L29.7947 20.8295L22.0923 11.9546L20.5907 13.8035L20.4148 14.0245L18.9131 15.8779L29.1995 21.5645L29.4069 21.3075Z" fill="#179BD7"/>
<path d="M22.9181 36.2254L22.9407 35.9458L22.9722 35.6121L11.6216 32.5591L11.4142 34.9356L11.3871 35.2152L11.1797 37.5918L22.8866 36.5591L22.9181 36.2254Z" fill="#179BD7"/>
<path d="M10.7869 78.0971L8.91093 79.2876L4 71.5356L0 74.0159L6.38106 77.7138L6.83202 85.0644L17.434 78.4849L15.4859 75.3508C13.8955 76.2076 12.3292 77.123 10.7869 78.0971Z" fill="#179BD7"/>
<path d="M93.3441 76.2211L100 65.7318C85.4891 56.5223 68.6571 51.6318 51.4703 51.6318C34.2835 51.6318 17.4515 56.5223 2.94043 65.7318L9.59658 76.2211C22.1174 68.2749 36.6408 64.0554 51.4703 64.0554C66.2998 64.0554 80.8232 68.2749 93.3441 76.2211ZM82.034 58.5841C83.9596 59.3147 84.9111 59.7115 86.8006 60.5638L86.2009 61.8897C85.0239 61.3575 84.4331 61.105 83.2426 60.6225C82.8187 61.6732 82.6022 62.1963 82.1783 63.247C83.0802 63.6168 83.5312 63.8107 84.4331 64.2121L83.8469 65.565C82.945 65.1726 82.494 64.9787 81.5921 64.6135C81.1411 65.7183 80.9201 66.273 80.4692 67.3733C81.556 67.8243 82.0971 68.0498 83.1749 68.5368L82.5932 69.8355C80.9292 69.087 80.0859 68.7352 78.3903 68.0858C79.8604 64.2843 80.5864 62.3857 82.034 58.5841ZM68.9021 62.6428C69.3756 60.5819 69.6146 59.5492 70.0926 57.4883C70.4579 55.9009 71.5988 55.1974 73.3756 55.6845C75.1524 56.1715 75.7973 57.3395 75.3328 58.8953L75.0487 59.8423C74.3948 59.6484 74.0701 59.5537 73.4117 59.3688L73.7048 58.3226C73.8987 57.6191 73.6191 57.2538 73.0509 57.105C72.4827 56.9562 72.0588 57.1321 71.8829 57.8355L70.5301 63.1614C70.3497 63.8649 70.6112 64.1986 71.1298 64.3384C71.6484 64.4782 72.0318 64.3158 72.2347 63.6123C72.4376 62.9088 72.5368 62.53 72.7353 61.8085L71.9731 61.6011L72.3474 60.1941C73.308 60.4511 73.786 60.5864 74.7375 60.875L73.8131 63.9641C73.3621 65.5244 72.2753 66.1602 70.7105 65.7679C69.1456 65.3756 68.5368 64.2301 68.9021 62.6428ZM59.6394 53.3034C61.6597 53.5018 62.6654 53.6326 64.6721 53.9483C64.5819 54.5255 64.5368 54.8096 64.4421 55.3868C63.193 55.1884 62.5707 55.0982 61.317 54.9359C61.1817 56.0633 61.1141 56.6225 60.9743 57.7499C61.9393 57.8671 62.4218 57.9302 63.3824 58.0746C63.2967 58.6518 63.2516 58.9359 63.1659 59.5131C62.2234 59.3688 61.7499 59.3057 60.8029 59.1929C60.6586 60.3744 60.5909 60.9652 60.4466 62.1512C61.5921 62.2865 62.1648 62.3677 63.3102 62.5481C63.2155 63.1253 63.1704 63.4094 63.0802 63.9866C61.3125 63.7025 60.4241 63.5898 58.6428 63.4139C59.0442 59.3598 59.2426 57.353 59.6394 53.3034ZM50.7285 52.884C50.7285 56.3744 50.751 58.1197 50.7646 61.6056C51.8649 61.6056 52.4151 61.6056 53.5154 61.6416L53.4703 63.0937C51.7341 63.0396 50.8683 63.0396 49.1366 63.0937C49.0284 59.0351 48.9788 56.9923 48.8705 52.9246C49.6146 52.893 49.9844 52.8885 50.7285 52.884ZM39.9686 53.6056C40.4196 57.0644 40.6405 58.7916 41.0915 62.2504C42.1828 62.1106 42.7285 62.052 43.8243 61.9483L43.9596 63.3959C42.2324 63.5582 41.3711 63.6619 39.6529 63.9235C39.0442 59.9009 38.751 57.8897 38.1287 53.8626C38.8502 53.7544 39.2336 53.7003 39.9686 53.6056ZM29.1456 55.5898C30.9224 55.1388 32.1084 55.8243 32.4692 57.3936L33.6417 62.5526C34.0024 64.1399 33.344 65.2313 31.7792 65.6416C30.2144 66.052 29.1005 65.4207 28.6225 63.8604C28.0227 61.831 27.7206 60.8164 27.1163 58.7916C26.6744 57.2448 27.3869 56.0543 29.1682 55.5898H29.1456ZM17.9979 59.3598C19.7161 58.6518 20.9472 59.1974 21.5199 60.7127L21.8672 61.6371C21.2268 61.8761 20.9066 62.0024 20.2663 62.2549C20.1084 61.8491 20.0272 61.6507 19.8649 61.2448C19.8239 61.1199 19.7576 61.0047 19.6701 60.9066C19.5826 60.8084 19.4759 60.7294 19.3564 60.6744C19.237 60.6194 19.1075 60.5896 18.9761 60.5869C18.8446 60.5842 18.714 60.6087 18.5925 60.6587C18.4709 60.7088 18.361 60.7834 18.2695 60.8779C18.1781 60.9723 18.1071 61.0846 18.061 61.2078C18.015 61.3309 17.9948 61.4623 18.0018 61.5935C18.0088 61.7248 18.0428 61.8533 18.1016 61.9708L20.2527 67.0261C20.5368 67.6935 20.9517 67.8017 21.4523 67.5943C21.9528 67.3868 22.1693 67.0216 21.9032 66.3451L21.3666 64.9923C21.9799 64.7487 22.2685 64.627 22.9089 64.397L23.3824 65.6597C23.9551 67.1839 23.4861 68.3384 21.9709 68.9652C20.4557 69.592 19.3057 69.105 18.6338 67.6123C17.7634 65.6822 17.3305 64.7172 16.4602 62.7916C15.7837 61.3079 16.3023 60.0452 17.9979 59.3598Z" fill="#179BD7"/>
<path d="M17.524 74.2954C20.5646 78.1678 24.7299 81.0034 29.4474 82.4127C44.3019 86.9764 50.8273 93.5198 51.7428 94.5029V94.6382C51.7652 94.6186 51.7863 94.5975 51.8059 94.575C51.8262 94.5983 51.8489 94.6195 51.8735 94.6382V94.5344C52.7754 93.5513 59.3098 87.0079 74.1644 82.4442C78.7813 81.0584 82.8695 78.3052 85.8893 74.548C75.3076 69.1586 63.6084 66.3289 51.7334 66.2866C39.8584 66.2443 28.1394 68.9906 17.5195 74.3044L17.524 74.2954ZM36.9919 79.4363L34.7912 77.849L32.5951 79.4409L33.4384 76.8569L31.2422 75.2605H33.9479L34.7867 72.681L35.6255 75.2605H38.3313L36.1441 76.8569L36.9919 79.4363ZM67.9773 75.2605L68.816 72.681L69.6548 75.2605H72.3606L70.1644 76.8569L71.0032 79.4363L68.816 77.849L66.6199 79.4409L67.4587 76.8614L65.267 75.265L67.9773 75.2605ZM52.9468 76.2841H56.6402L53.6503 78.4533L54.7912 81.9617L51.8059 79.7926L48.8205 81.9617L49.9615 78.4533L46.9671 76.2841H50.6559L51.7969 72.7712L52.9468 76.2841Z" fill="#179BD7"/>
<path d="M40.6537 47.3188C38.0742 47.5352 36.1441 47.7697 36.1441 47.7697L36.5364 47.8148C34.0201 48.0899 21.4203 49.7314 10.8047 55.8329C10.0904 56.2584 9.49929 56.8627 9.08967 57.5863C8.68004 58.3099 8.46605 59.1277 8.46878 59.9591L8.65817 59.8419C8.65817 59.8419 8.65817 59.8735 8.65817 59.887C21.9108 52.9867 36.6342 49.3898 51.5757 49.4024C66.5172 49.415 81.2345 53.0366 94.4755 59.9591C94.4755 59.9186 94.4755 59.8825 94.4485 59.8419L94.6379 59.9591C94.6406 59.1277 94.4266 58.3099 94.017 57.5863C93.6073 56.8627 93.0163 56.2584 92.3019 55.8329C81.6593 49.7269 69.064 48.0854 66.5432 47.8103L66.9355 47.7652C66.9355 47.7652 64.9919 47.5352 62.3989 47.3143C55.1756 46.364 47.8589 46.364 40.6356 47.3143L40.6537 47.3188Z" fill="#179BD7"/>
<path d="M38.3989 44.2797C36.9943 44.3203 35.5951 44.4711 34.2141 44.7306C32.8341 44.9922 31.4542 45.3259 30.1013 45.6776C27.3956 46.3901 24.7304 47.2019 22.2321 47.8738C20.9874 48.212 19.7653 48.5051 18.6244 48.7396C17.4835 48.9741 16.3696 49.1906 15.3369 49.3349C13.2851 49.6461 11.5579 49.8219 10.3493 49.9256L8.44629 50.0745L10.3584 50.1015C11.5714 50.1015 13.3121 50.1015 15.4046 49.9662C16.4463 49.9031 17.5782 49.8129 18.7732 49.6776C19.9683 49.5423 21.2265 49.362 22.5207 49.1365C24.55 48.7892 26.6695 48.3653 28.8026 47.982C29.3753 47.8783 29.948 47.7746 30.5162 47.6799C31.8691 47.4589 33.2219 47.2605 34.5478 47.1342C35.8144 47.0146 37.0884 46.9934 38.3584 47.0711C39.1385 47.1162 39.8826 47.2064 40.6132 47.3146C47.8364 46.3643 55.1531 46.3643 62.3764 47.3146C63.107 47.2019 63.8691 47.1162 64.6312 47.0711C65.9011 46.9934 67.1751 47.0146 68.4418 47.1342C69.7676 47.2605 71.1115 47.4589 72.4734 47.6799C73.5331 47.8558 74.5974 48.0542 75.6526 48.2481C77.2896 48.5547 78.913 48.8659 80.4779 49.15C81.7721 49.3755 83.0258 49.5559 84.2253 49.6911C85.4249 49.8264 86.5523 49.9166 87.5985 49.9798C89.6864 50.106 91.4271 50.1196 92.6402 50.1151L94.5523 50.088L92.6492 49.9392C91.4407 49.8355 89.7135 49.6596 87.6887 49.3484C86.6605 49.1906 85.5557 48.9967 84.3967 48.7532C83.2377 48.5096 82.0201 48.2255 80.789 47.8873C78.2907 47.2154 75.6346 46.4037 72.9198 45.6912C71.5669 45.3394 70.187 45.0057 68.8071 44.7441C67.426 44.4846 66.0268 44.3339 64.6222 44.2932C62.3287 44.2141 60.0342 44.417 57.7902 44.8975C58.5178 44.5194 59.2825 44.2171 60.072 43.9955C61.143 43.6955 62.2387 43.4917 63.346 43.3868C65.9694 43.1649 68.6096 43.2436 71.2152 43.6213C71.8961 43.7114 72.568 43.8197 73.2535 43.9369C73.939 44.0542 74.6515 44.1759 75.3775 44.2842C76.8341 44.4916 78.2276 44.663 79.5895 44.7802C80.2704 44.8479 80.9423 44.8975 81.5962 44.9471C82.2501 44.9967 82.886 45.0328 83.5083 45.0733C84.7575 45.1455 85.9345 45.1906 87.0168 45.2267C88.0991 45.2627 89.1002 45.2808 89.9796 45.2898H92.2614C93.5241 45.2898 94.2456 45.2673 94.2456 45.2673C94.2456 45.2673 93.5286 45.2131 92.2749 45.1004L90.0201 44.8749C89.1543 44.7757 88.1757 44.663 87.116 44.5277C86.0562 44.3924 84.9063 44.2346 83.7022 44.0497C83.1024 43.9505 82.4846 43.8603 81.8578 43.7475C81.231 43.6348 80.5906 43.5266 79.9457 43.4003C78.656 43.1613 77.3347 42.8636 76.0494 42.5525C75.4046 42.3901 74.6966 42.1917 74.0652 42.0204C73.3708 41.8309 72.6673 41.6415 71.9503 41.4792C70.5045 41.1327 69.0413 40.8633 67.5669 40.672C66.0722 40.4709 64.5655 40.3715 63.0573 40.3743C61.5923 40.3724 60.1299 40.5007 58.6876 40.7577C58.1915 40.8433 57.7045 40.9516 57.2355 41.0733C57.4068 40.8884 57.5872 40.7036 57.7811 40.5232C58.5387 39.8196 59.4014 39.2384 60.3381 38.8005C61.4461 38.2854 62.6211 37.9286 63.8285 37.7408C65.1898 37.5411 66.5688 37.4897 67.9412 37.5874C69.3685 37.6893 70.7849 37.9095 72.1757 38.2458C73.5255 38.5726 74.8538 38.9823 76.1532 39.4724C76.8206 39.7205 77.4384 39.9505 78.0878 40.1759C78.7372 40.4014 79.4046 40.6269 80.0404 40.7802C80.6763 40.9335 81.3076 41.1139 81.9119 41.2673C82.5162 41.4206 83.1069 41.5378 83.6842 41.6415C84.8206 41.867 85.8803 42.0158 86.8183 42.1421C87.7563 42.2684 88.5816 42.345 89.258 42.3946C90.6109 42.5029 91.3956 42.5029 91.3956 42.5029C91.3956 42.5029 90.6244 42.4307 89.3031 42.2098C88.6402 42.097 87.8465 41.9437 86.9446 41.7588C86.0427 41.5739 85.0416 41.3078 83.9773 40.9967C83.4362 40.8479 82.895 40.663 82.3268 40.4826C81.7586 40.3022 81.1904 40.0948 80.6222 39.8603C80.054 39.6258 79.4767 39.4093 78.8995 39.1432C78.3223 38.8772 77.709 38.5705 77.1227 38.2864C75.8081 37.6349 74.4524 37.07 73.0641 36.5953C71.5459 36.074 69.9859 35.6833 68.4012 35.4273C66.7143 35.1532 65.0022 35.067 63.2963 35.1703C61.6049 35.2792 59.9361 35.6175 58.3358 36.1759C56.9176 36.6736 55.5781 37.3722 54.3584 38.2503C53.3595 38.9612 52.4508 39.791 51.6526 40.7216L51.5128 40.893V41.7002L51.4767 41.637V40.8704L51.3369 40.699C50.5387 39.7685 49.6301 38.9386 48.6312 38.2278C47.4114 37.3496 46.0719 36.651 44.6537 36.1534C43.0534 35.595 41.3846 35.2567 39.6932 35.1477C37.9873 35.0444 36.2752 35.1306 34.5883 35.4048C33.0036 35.6607 31.4437 36.0515 29.9254 36.5728C28.5372 37.0475 27.1814 37.6124 25.8668 38.2639C25.2806 38.548 24.6673 38.8501 24.09 39.1207C23.5128 39.3913 22.9536 39.6213 22.3674 39.8377C21.7811 40.0542 21.2174 40.2661 20.6628 40.46C20.1081 40.6539 19.5534 40.8253 19.0123 40.9741C17.948 41.2943 16.9378 41.5288 16.0449 41.7362C15.152 41.9437 14.3493 42.0835 13.6864 42.1872C12.3696 42.4082 11.594 42.4803 11.594 42.4803C11.594 42.4803 12.3741 42.4803 13.7315 42.3721C14.408 42.3225 15.2287 42.2368 16.1712 42.1196C17.1137 42.0023 18.169 41.8445 19.3054 41.619C19.8826 41.5153 20.4688 41.3755 21.0776 41.2447C21.6864 41.1139 22.3178 40.9471 22.9491 40.7577C23.5805 40.5683 24.2343 40.3698 24.9063 40.1534C25.5782 39.9369 26.1689 39.7024 26.8364 39.4499C28.1357 38.9598 29.4641 38.5501 30.8138 38.2233C32.2047 37.887 33.621 37.6667 35.0483 37.5649C36.4208 37.4672 37.7997 37.5186 39.1611 37.7182C40.3685 37.9061 41.5434 38.2628 42.6515 38.778C43.5881 39.2158 44.4508 39.797 45.2084 40.5006C45.4023 40.681 45.5827 40.8659 45.7541 41.0508C45.3031 40.929 44.798 40.8208 44.302 40.7351C42.8596 40.4782 41.3973 40.3499 39.9322 40.3518C38.424 40.3489 36.9173 40.4483 35.4226 40.6494C33.9483 40.8407 32.4851 41.1102 31.0393 41.4567C30.3223 41.619 29.6188 41.8084 28.9288 41.9978C28.2389 42.1872 27.5759 42.3676 26.9401 42.5299C25.6549 42.8411 24.3336 43.1387 23.0438 43.3777C22.3989 43.504 21.7586 43.6167 21.1317 43.725C20.5049 43.8332 19.8871 43.9279 19.2873 44.0271C18.0833 44.212 16.9378 44.3698 15.8736 44.5051C14.8093 44.6404 13.8352 44.7532 12.9694 44.8524L10.7146 45.0778C9.46094 45.1906 8.74392 45.2447 8.74392 45.2447C8.74392 45.2447 9.46547 45.2447 10.7282 45.2673H13.01C13.8894 45.2673 14.886 45.2357 15.9728 45.2041C17.0596 45.1725 18.2276 45.1229 19.4812 45.0508C20.1036 45.0102 20.7439 44.9786 21.3978 44.9245C22.0517 44.8704 22.7191 44.8253 23.4001 44.7577C24.7529 44.6404 26.1554 44.4691 27.612 44.2616C28.3381 44.1534 28.992 44.0406 29.736 43.9144C30.4125 43.7971 31.0889 43.6889 31.7744 43.5987C34.3799 43.2211 37.0201 43.1424 39.6436 43.3642C40.7509 43.4692 41.8465 43.6729 42.9175 43.973C43.7071 44.1946 44.4717 44.4968 45.1994 44.8749C42.9653 44.4001 40.6815 44.2002 38.3989 44.2797Z" fill="#179BD7"/>
</svg>
