<svg width="100" height="110" viewBox="0 0 100 110" fill="none" xmlns="http://www.w3.org/2000/svg">
<path d="M44.3153 95.8186C42.2499 94.2621 37.0915 90.745 28.9748 87.5921C34.4695 84.1672 40.8068 82.3343 47.2814 82.2973C53.756 82.2603 60.1138 84.0207 65.6473 87.3825C57.2213 90.5853 51.8583 94.2271 49.7431 95.8235L47.0242 97.849L44.3153 95.8186ZM52.4121 97.1655L47.0242 101.157L41.6413 97.1655C36.8959 93.9428 31.7529 91.3487 26.3407 89.4479C25.6057 90.0166 24.8973 90.6186 24.2155 91.2538C32.2374 93.9977 37.6054 97.2803 40.2394 99.1261L47.0242 104.15L53.8139 99.161C56.5228 97.2653 62.1252 93.843 70.5114 91.0543C69.8129 90.4224 69.0895 89.8204 68.3412 89.2483C62.7029 91.167 57.3459 93.8295 52.4121 97.1655ZM3.16282 40.7923C-1.2722 52.95 -1.03273 65.9757 3.81637 75.629C4.8434 77.687 6.10567 79.6189 7.5779 81.386C8.1117 80.7774 8.65547 80.1737 9.21422 79.5851C7.95399 78.0287 6.86515 76.3411 5.96653 74.5514C1.41676 65.4768 1.21221 53.1645 5.42274 41.6254C6.53524 38.5573 7.49807 35.8983 7.77745 32.2216C7.8872 26.699 7.27857 25.1525 7.27857 25.0926C6.94931 24.2495 6.60509 23.4613 6.23094 22.6681L4.42498 18.8417L7.72258 16.2026C18.8818 7.28273 32.7431 2.42363 47.0292 2.42363C61.3153 2.42363 75.1765 7.28273 86.3358 16.2026L89.6333 18.8417L87.8274 22.6631C87.4532 23.4513 87.109 24.2445 86.7748 25.0876C86.7099 25.2473 86.1711 26.7639 86.2759 32.2066C86.5652 35.9382 87.5231 38.5723 88.6306 41.6155C92.8411 53.1645 92.6216 65.4768 88.0868 74.5414C87.2946 76.1257 86.3506 77.6293 85.2681 79.0313C85.8369 79.61 86.394 80.202 86.9394 80.8073C88.2146 79.1935 89.3213 77.4533 90.242 75.614C95.0861 65.9607 95.3305 52.935 90.8955 40.7773C89.808 37.7841 88.9549 35.4394 88.6805 32.0719C88.5957 27.582 88.9698 26.0854 89.0247 25.9208C89.334 25.1425 89.6533 24.4241 90.0225 23.6758L92.6416 18.1333L87.8524 14.3069C76.2672 5.04528 61.8763 0 47.0441 0C32.212 0 17.821 5.04528 6.23591 14.3069L1.45168 18.1333L4.06081 23.6708C4.40504 24.3942 4.71933 25.1176 5.02864 25.8958C5.08351 26.1054 5.46765 27.6369 5.38284 32.0819C5.11843 35.4044 4.25038 37.799 3.16282 40.7923ZM66.8696 19.9692C66.1462 20.3483 65.333 20.9669 64.3752 21.5107C63.9012 21.8 63.4373 22.1792 62.9284 22.5084C62.3938 22.8689 61.8807 23.2604 61.3919 23.6808C60.893 24.1298 60.3193 24.5239 59.8154 25.0327C59.3115 25.5416 58.7528 26.0305 58.2489 26.5743C57.7451 27.1181 57.2163 27.6868 56.7523 28.3054C56.2883 28.924 55.7545 29.5277 55.3355 30.2211C54.9164 30.9145 54.4225 31.5631 54.0434 32.3064L53.4348 33.3939L52.891 34.5364C52.1572 36.0943 51.537 37.7032 51.0352 39.3506C50.7957 40.1887 50.5363 41.0168 50.3417 41.8749L50.0324 43.152L49.778 44.4341C49.5934 45.2872 49.4936 46.1503 49.334 46.9984C49.1743 47.8465 49.1095 48.6946 49.0197 49.5377C48.6655 52.8901 48.5208 56.0879 48.4909 58.8517C48.4909 60.2386 48.4909 61.5157 48.4909 62.6532C48.4909 62.9225 48.4909 63.182 48.4909 63.4314C57.2714 63.5728 65.8822 65.872 73.5645 70.1263C77.0818 72.0886 80.3582 74.4543 83.3275 77.1755C84.2342 75.9734 85.0291 74.6909 85.7022 73.3441C89.9327 64.9181 90.0873 53.389 86.1212 42.5284C84.9888 39.4154 83.9212 36.472 83.6269 32.3313C83.5171 26.9335 84.006 24.8482 84.3103 24.0949C84.6645 23.2019 85.0337 22.3588 85.4328 21.5157L86.3358 19.605L84.6845 18.2829C74.001 9.73934 60.7286 5.08497 47.0491 5.08497C33.3696 5.08497 20.0972 9.73934 9.41376 18.2829L7.76248 19.6L8.66545 21.5057C9.06455 22.3538 9.42874 23.1969 9.77795 24.0849C10.0274 24.7085 10.5811 26.7489 10.4664 32.3264C10.1671 36.4122 9.09449 39.3805 7.97202 42.5234C4.00594 53.394 4.16059 64.9131 8.39107 73.3391C9.16281 74.8812 10.0924 76.339 11.1648 77.6893C13.7004 75.2942 16.4717 73.1614 19.4362 71.3237C27.5476 66.3602 36.8331 63.6432 46.3407 63.4513H46.67C46.6201 63.2967 46.5702 63.147 46.5203 62.9874C46.1711 61.8699 45.8269 60.5928 45.5226 59.181C45.2182 57.7691 44.9488 56.2226 44.7593 54.5663C44.5559 52.8243 44.4543 51.072 44.455 49.3182C44.447 47.4223 44.5753 45.5283 44.8391 43.6509C44.889 43.2568 44.9488 42.8577 45.0137 42.4586L43.9262 43.2568C43.557 43.5162 43.1429 43.7107 42.7538 43.9352C42.3647 44.1597 41.9855 44.3743 41.5814 44.5538C41.1773 44.7334 40.7633 44.8831 40.3542 45.0527C39.9589 45.2191 39.55 45.351 39.1319 45.4469C38.7179 45.5516 38.3138 45.6514 37.9097 45.7362C37.5056 45.821 37.0965 45.8409 36.7024 45.8908C36.3126 45.9477 35.9189 45.9728 35.525 45.9657C34.787 45.9764 34.0493 45.9247 33.32 45.811C32.073 45.6305 30.8562 45.2814 29.7031 44.7734C28.844 44.382 28.0253 43.9075 27.2586 43.3566C26.7714 43.0152 26.3141 42.633 25.8917 42.2141C25.7404 42.0691 25.5972 41.9159 25.4627 41.7551C26.1896 42.0319 26.9347 42.2586 27.6927 42.4336C28.5287 42.6324 29.377 42.7758 30.2319 42.8627C31.2919 42.9694 32.3599 42.9694 33.4198 42.8627C34.6153 42.7361 35.7892 42.4543 36.9119 42.0245C37.5089 41.7866 38.0889 41.5082 38.648 41.1914C38.9324 41.0218 39.2217 40.8572 39.5111 40.6925C39.8004 40.5279 40.0648 40.2934 40.3442 40.0989C40.6236 39.9043 40.9079 39.7048 41.1773 39.4753L41.9805 38.7619L42.3796 38.4077L42.5393 38.268L42.5891 38.2131L42.6939 38.0984L43.1229 37.6544C43.1878 37.5796 43.2826 37.4947 43.3275 37.4349L43.4522 37.2652C43.8368 36.7834 44.1711 36.2635 44.45 35.7137C44.74 35.1704 44.9532 34.5895 45.0835 33.9876C45.3633 32.7719 45.3411 31.5061 45.0187 30.3009C44.6805 29.0218 44.1254 27.8103 43.3774 26.719C41.9245 24.6107 40.008 22.8632 37.775 21.6105C36.8394 21.0753 35.8597 20.6214 34.8466 20.2535C34.3876 20.0689 33.9436 19.9692 33.5295 19.8195L32.3721 19.5251C31.6587 19.4004 31.08 19.2657 30.6809 19.2358L30.0673 19.141L30.656 18.9415C31.2206 18.7497 31.7994 18.6029 32.3871 18.5025L33.6642 18.3328C35.421 18.1972 37.1881 18.366 38.8875 18.8317C42.0391 19.6596 44.8721 21.4087 47.0242 23.8554C48.3055 25.3039 49.2721 27.0027 49.8628 28.8442C49.9426 29.0836 50.0125 29.3281 50.0723 29.5776C50.5793 28.8343 51.1273 28.1197 51.7136 27.4373C52.0084 27.0695 52.3249 26.7197 52.6615 26.3897C52.9858 26.0555 53.315 25.7262 53.6592 25.392C54.3228 24.7634 55.0312 24.2146 55.6997 23.6658C56.3682 23.1171 57.1065 22.698 57.78 22.254C58.4535 21.81 59.1719 21.4957 59.8254 21.1465C60.4549 20.8199 61.1068 20.5382 61.776 20.3034C62.4146 20.0789 62.9883 19.8045 63.567 19.6698C64.7244 19.3755 65.7071 19.0961 66.5602 18.9714C67.4133 18.8467 68.0569 18.7768 68.4959 18.722L69.1793 18.6521L68.5857 19.0013C68.1516 19.2458 67.5929 19.585 66.8696 19.9642V19.9692ZM56.5029 16.5469C56.448 17.5729 56.09 18.5597 55.4741 19.3822C54.8582 20.2047 54.0122 20.8261 53.043 21.1676C52.0739 21.5091 51.0252 21.5555 50.0297 21.3008C49.0342 21.0461 48.1367 20.5018 47.4506 19.7368C46.7646 18.9718 46.3209 18.0205 46.1757 17.0033C46.0305 15.986 46.1904 14.9486 46.635 14.0222C47.0797 13.0959 47.7891 12.3222 48.6736 11.7992C49.5581 11.2762 50.5779 11.0274 51.6039 11.0841C52.9775 11.1601 54.2648 11.778 55.1833 12.8022C56.1017 13.8264 56.5763 15.1731 56.5029 16.5469ZM33.0905 32.9699C33.8338 33.6983 34.5373 34.4665 35.2407 35.2149C33.774 33.8928 29.0197 30.4157 24.0908 29.2682L23.0331 46.9884C23.0331 46.9884 31.2746 50.1113 41.4318 62.4187C36.1536 58.9265 20.9778 57.4299 11.0301 56.931L16.6675 32.8103L14.9264 53.5985C14.9264 53.5985 31.6388 54.5963 40.2444 61.401C34.0224 56.1902 26.6314 52.5632 18.7029 50.8297L22.3048 25.8858C24.2404 26.6292 26.0822 27.597 27.7924 28.7694C29.6893 29.994 31.4621 31.4008 33.0855 32.9699H33.0905ZM71.7586 25.9058L75.3604 50.8497C67.4324 52.5843 60.0416 56.2112 53.8189 61.4209C62.4295 54.6012 79.1419 53.6185 79.1419 53.6185L77.3959 32.8103L83.0332 56.941C73.0806 57.4399 57.9097 58.9365 52.6366 62.4287C62.7937 50.1213 71.0302 46.9984 71.0302 46.9984L69.9726 29.2682C65.0437 30.4157 60.2844 33.8928 58.8226 35.2149C59.5211 34.4466 60.2295 33.7182 60.9678 32.9699C62.5985 31.4067 64.378 30.0065 66.2809 28.7893C67.9864 27.618 69.8231 26.6502 71.7536 25.9058H71.7586Z" fill="#179BD7"/>
<path d="M72.5014 72.0317C64.8657 67.812 56.2815 65.6059 47.5575 65.6212H46.3951C37.2732 65.808 28.365 68.4164 20.5831 73.1792C12.3059 78.3216 5.67936 85.7326 1.49107 94.5311L1.40625 94.7157L14.4569 101.007L14.5417 100.822C17.3317 94.9316 21.6627 89.9054 27.0762 86.2757C32.4896 82.6459 38.7839 80.5478 45.2925 80.2034C58.7622 79.4002 71.0796 85.6311 78.2734 96.8759C78.7722 97.689 79.2711 98.5421 79.77 99.4052L79.8648 99.5848L92.6261 92.7252L92.5313 92.5406C87.9581 83.926 81.0055 76.8072 72.5014 72.0317ZM78.6226 85.0375L77.6997 85.9903C76.9613 85.272 76.5872 84.9277 75.8139 84.2592L74.0379 86.3146C74.9459 87.1028 75.3899 87.5119 76.2529 88.375L75.32 89.3129C74.2434 88.2137 73.0951 87.1871 71.8827 86.2398L77.6548 78.9811C79.1446 80.144 80.5546 81.4056 81.8753 82.7576L80.9474 83.6955C79.9496 82.6978 79.4507 82.1989 78.3831 81.3059L76.6919 83.2615C77.4552 83.945 77.8643 84.2992 78.6226 85.0375ZM39.6652 77.9983C38.2756 78.2234 36.9012 78.5333 35.5495 78.9262C34.5517 75.3593 34.0528 73.5733 33.0551 70.0013C33.8084 69.7868 34.1925 69.687 34.9508 69.5024L36.8066 77.235C37.8593 76.9806 38.3931 76.8709 39.4557 76.6913C39.5405 77.2101 39.5754 77.4795 39.6652 77.9983ZM28.2758 81.8746C26.859 82.588 25.6817 82.3236 24.9333 81.0415L22.4988 76.8759C21.7455 75.5937 22.2394 74.2917 23.9954 73.3837C25.7515 72.4758 27.0735 72.8848 27.6622 74.2418L29.5629 78.7067C30.1566 80.0537 29.6926 81.1562 28.2758 81.8746ZM13.4841 80.5426C15.0106 79.1906 16.3726 79.2455 17.2855 80.4179L17.8393 81.1263C17.2656 81.5753 16.9812 81.8048 16.4225 82.2787L15.7839 81.5154C15.3549 81.0165 14.8809 81.0764 14.402 81.5154C13.9231 81.9544 13.7884 82.4034 14.2374 82.8923L17.6298 86.579C17.796 86.7436 18.0184 86.8389 18.2522 86.8457C18.486 86.8526 18.7137 86.7704 18.8892 86.6158C19.0647 86.4612 19.175 86.2457 19.1977 86.0129C19.2204 85.7801 19.1539 85.5474 19.0117 85.3618L18.1536 84.364C18.6824 83.915 18.9468 83.7005 19.4906 83.2814L20.2439 84.2543C21.1568 85.4216 20.9972 86.589 19.745 87.6865C18.4928 88.7841 17.3055 88.819 16.2529 87.7713L12.8455 84.359C11.8079 83.2815 11.9525 81.8946 13.4841 80.5426ZM46.1656 68.1405C46.1905 71.3184 46.2055 72.9098 46.2304 76.0876C47.308 76.0876 47.8468 76.0876 48.9244 76.1525L48.8495 77.4745C47.4524 77.3872 46.0511 77.3872 44.654 77.4745C44.4794 73.7679 44.3946 71.917 44.215 68.2104C44.9932 68.1555 45.3873 68.1455 46.1656 68.1405ZM68.8994 74.7556C68.7955 74.6744 68.674 74.6189 68.5446 74.5935C68.4151 74.5681 68.2816 74.5736 68.1547 74.6096C68.0278 74.6456 67.9112 74.711 67.8144 74.8005C67.7175 74.89 67.6432 75.0011 67.5974 75.1248C66.7193 76.9257 66.2754 77.8237 65.3973 79.6147C65.3369 79.7188 65.2983 79.834 65.2838 79.9534C65.2694 80.0729 65.2793 80.194 65.3131 80.3095C65.3468 80.425 65.4037 80.5324 65.4802 80.6253C65.5568 80.7181 65.6514 80.7944 65.7583 80.8496C65.8652 80.9047 65.9822 80.9376 66.1023 80.9461C66.2223 80.9547 66.3428 80.9387 66.4564 80.8993C66.5701 80.8599 66.6746 80.7978 66.7635 80.7167C66.8525 80.6357 66.924 80.5374 66.9738 80.4279L67.7869 78.9312C67.5026 78.7766 67.3579 78.6968 67.0736 78.5521C67.313 78.0532 67.4377 77.8437 67.6822 77.3747C68.5901 77.8487 69.0441 78.0981 69.9321 78.6219C69.3285 79.6197 69.0291 80.1185 68.4355 81.1562C67.6822 82.4333 66.5397 82.7177 65.1279 81.9894C63.7161 81.261 63.2971 80.1734 63.8957 78.8165L65.8413 74.4014C66.44 73.0445 67.7221 72.6503 69.4632 73.5483C71.2043 74.4463 71.6483 75.7284 70.8949 77.0056L70.436 77.7788C69.8224 77.4146 69.5131 77.24 68.8895 76.9008L69.3634 76.0278C69.6727 75.4491 69.4731 75.04 68.8994 74.7556ZM58.9967 73.718L58.6375 74.9901C57.7096 74.7357 57.2407 74.6159 56.3028 74.4064C56.0683 75.469 55.9486 75.9978 55.7141 77.0604C56.8216 77.3049 57.3754 77.4496 58.4679 77.7688L58.0938 79.041C56.7067 78.617 55.2936 78.2837 53.8633 78.0432C54.5268 74.3964 54.861 72.5556 55.5195 68.9187C57.2768 69.2161 59.0132 69.626 60.7179 70.146L60.3437 71.4181C59.0765 71.049 58.438 70.8843 57.1509 70.6L56.5921 73.1193C57.53 73.3488 57.999 73.4685 58.9967 73.718Z" fill="#179BD7"/>
<path d="M16.5125 101.77L15.4748 103.92L5.20292 98.9711L2.86816 103.755L11.2094 102.708L15.5197 109.926L20.5085 99.7393L18.2386 98.6318C17.611 99.6482 17.0349 100.696 16.5125 101.77Z" fill="#179BD7"/>
<path d="M78.9521 102.518L77.8246 100.413C77.3856 99.5997 76.9117 98.7965 76.4228 98.0282C76.2781 97.7988 76.1285 97.5793 75.9738 97.3548L73.7588 98.562L79.1716 108.54L83.1626 101.136L91.5438 101.815L88.9995 97.1353L78.9521 102.518Z" fill="#179BD7"/>
<path d="M24.5749 74.5909C24.0262 74.8702 23.7967 75.2743 24.111 75.863L26.4657 80.283C26.5715 80.4921 26.7561 80.6505 26.9787 80.7235C27.2014 80.7965 27.4439 80.778 27.653 80.6722C27.8621 80.5663 28.0205 80.3818 28.0935 80.1591C28.1664 79.9364 28.148 79.6939 28.0421 79.4848C27.1741 77.6789 26.745 76.7759 25.877 74.965C25.6026 74.3714 25.1436 74.3065 24.5749 74.5909Z" fill="#179BD7"/>
<path d="M100 81.5553H97.1716L96.2936 78.8613L95.4205 81.5553H92.5869L94.8817 83.2165L94.0037 85.9105L96.2936 84.2492L98.5884 85.9105L97.7104 83.2165L100 81.5553Z" fill="#179BD7"/>
<path d="M30.157 101.645L29.2789 98.9561L28.4059 101.645H25.5723L27.8671 103.311L26.9891 106.005L29.2789 104.339L31.5738 106.005L30.6957 103.311L32.9906 101.645H30.157Z" fill="#179BD7"/>
<path d="M65.652 101.645L64.7789 98.9561L63.9009 101.645H61.0723L63.3621 103.311L62.4891 106.005L64.7789 104.339L67.0688 106.005L66.1957 103.311L68.4856 101.645H65.652Z" fill="#179BD7"/>
</svg>
