<svg width="100" height="92" viewBox="0 0 100 92" fill="none" xmlns="http://www.w3.org/2000/svg">
<path d="M23.421 57.4675C23.6992 56.9186 23.8084 56.2995 23.7348 55.6885C23.6612 55.0775 23.4081 54.5021 23.0075 54.0349C22.6069 53.5678 22.0768 53.2299 21.4842 53.064C20.8916 52.8981 20.2631 52.9116 19.6781 53.1028C19.0932 53.294 18.5781 53.6544 18.1979 54.1384C17.8178 54.6223 17.5897 55.2081 17.5424 55.8217C17.4951 56.4353 17.6309 57.0491 17.9324 57.5856C18.234 58.122 18.6878 58.557 19.2365 58.8356C19.6011 59.0207 19.9985 59.1321 20.4062 59.1635C20.8138 59.1949 21.2236 59.1457 21.6122 59.0186C22.0008 58.8916 22.3606 58.6892 22.6709 58.423C22.9813 58.1569 23.2362 57.8322 23.421 57.4675Z" fill="#179BD7"/>
<path d="M40.7374 89.4697L40.5178 89.3262C40.7918 89.0036 40.9865 88.6213 41.0862 88.2099C41.1859 87.7986 41.1879 87.3696 41.0921 86.9574C41.0268 86.5104 40.832 86.0922 40.5319 85.7546C40.2318 85.4169 39.8394 85.1745 39.4031 85.0573C39.0945 85.4007 38.8768 85.816 38.7699 86.2651C38.6629 86.7143 38.6701 87.1831 38.7908 87.6287C38.8549 87.9148 38.9586 88.1906 39.0991 88.4479L38.4657 88.0763L37.8281 87.7174L37.6001 87.5908C37.85 87.2503 38.0181 86.8568 38.0913 86.4409C38.1645 86.0249 38.1409 85.5977 38.0223 85.1924C37.9291 84.7522 37.7091 84.349 37.3895 84.0324C37.0698 83.7158 36.6645 83.4996 36.2236 83.4105C35.9363 83.7723 35.7445 84.2004 35.6656 84.6555C35.5866 85.1107 35.6232 85.5784 35.7718 86.0157C35.8544 86.2969 35.9752 86.5654 36.1307 86.8138C36.1307 86.8138 35.8055 86.6407 35.4762 86.4845L34.8175 86.1678L34.581 86.0538C34.8067 85.6974 34.9479 85.2941 34.994 84.8748C35.0401 84.4555 34.9899 84.0312 34.847 83.6343C34.7306 83.2015 34.4889 82.8128 34.1524 82.5168C33.8158 82.2209 33.3994 82.0309 32.9554 81.9706C32.6898 82.3476 32.5231 82.7853 32.4708 83.2434C32.4184 83.7016 32.4819 84.1656 32.6556 84.5928C32.7555 84.8719 32.8979 85.134 33.0778 85.3697L32.4022 85.0784L31.7266 84.7997L31.4859 84.7026C31.6928 84.3351 31.8122 83.9249 31.8349 83.5039C31.8576 83.0828 31.783 82.6622 31.6168 82.2746C31.4779 81.8501 31.2174 81.4758 30.8676 81.198C30.5178 80.9203 30.0941 80.7514 29.6492 80.7123C29.4039 81.1036 29.2603 81.55 29.2316 82.0109C29.2028 82.4718 29.2898 82.9326 29.4845 83.3514C29.5943 83.6221 29.7452 83.8742 29.9321 84.0988L28.5218 83.6216L28.2769 83.5372C28.461 83.1582 28.5566 82.7424 28.5566 82.3211C28.5566 81.8998 28.461 81.4839 28.2769 81.105C28.0818 80.6657 27.7727 80.2867 27.3817 80.0072C27.0667 79.7708 26.6819 79.646 26.2881 79.6525C26.0562 80.0507 25.9268 80.5003 25.9113 80.9608C25.8959 81.4214 25.9948 81.8786 26.1994 82.2915C26.3263 82.5552 26.4898 82.7997 26.685 83.0178L25.2916 82.5955L25.0467 82.5153C25.2174 82.1378 25.3103 81.7297 25.3197 81.3154C25.3291 80.9011 25.2549 80.4892 25.1016 80.1043C24.9675 79.678 24.7312 79.2909 24.4133 78.9769C24.2794 78.8582 24.1267 78.7626 23.9615 78.694C23.8092 78.6229 23.6439 78.5841 23.4759 78.58C23.2071 78.9506 23.0322 79.3808 22.966 79.8337C22.8998 80.2867 22.9444 80.749 23.0959 81.181C23.1931 81.4523 23.3359 81.7051 23.5181 81.9284L22.8425 81.6751L22.1838 81.3879L21.9473 81.2824C22.1566 80.9251 22.2921 80.5296 22.3458 80.1191C22.3994 79.7086 22.3702 79.2914 22.2598 78.8924C22.0318 77.9255 21.466 77.3386 20.8157 77.2457C20.5073 77.5823 20.2849 77.9884 20.1672 78.4296C20.0496 78.8707 20.0403 79.3337 20.1401 79.7792C20.2013 80.0601 20.3128 80.3276 20.4695 80.5688L20.2668 80.4674C20.1444 80.4083 19.9839 80.3281 19.8446 80.2352L19.2196 79.8805L18.9958 79.7538C19.2447 79.4211 19.4252 79.0422 19.5267 78.6392C19.6281 78.2362 19.6486 77.8171 19.587 77.4061C19.5474 76.979 19.4023 76.5683 19.1647 76.2112C18.981 75.9133 18.6889 75.6984 18.3498 75.6116C18.0041 75.9101 17.7362 76.2883 17.5692 76.7135C17.4022 77.1387 17.3412 77.5981 17.3913 78.0522C17.4139 78.3449 17.4898 78.6311 17.6151 78.8966C17.5509 78.8593 17.4889 78.8185 17.4293 78.7742L17.0071 78.4829L16.4201 78.0606L16.2132 77.9086C16.4994 77.6069 16.7232 77.2517 16.8717 76.8633C17.0202 76.4749 17.0906 76.061 17.0788 75.6453C17.0577 74.6784 16.6566 73.9563 16.0485 73.7199C15.6707 73.9749 15.3606 74.318 15.145 74.7197C14.9295 75.1214 14.8149 75.5695 14.8114 76.0254C14.8098 76.3117 14.8525 76.5966 14.938 76.8699L14.4018 76.3885L14.0302 76.0592C13.9736 76.0103 13.9201 75.9581 13.8698 75.9029L13.684 75.7256C14.0037 75.4604 14.2673 75.134 14.4595 74.7657C14.6516 74.3974 14.7683 73.9945 14.8029 73.5805C14.8549 73.1535 14.8087 72.7202 14.6678 72.3138C14.5419 71.9903 14.3096 71.7192 14.0091 71.5453C13.6038 71.7569 13.2555 72.0631 12.9938 72.438C12.7321 72.8129 12.5647 73.2454 12.5059 73.6988C12.4715 73.9803 12.4829 74.2654 12.5397 74.5433L12.0541 74.0112C11.9316 73.8803 11.8176 73.741 11.7332 73.6354L11.5896 73.4623L11.4249 73.2638C11.7728 73.0388 12.0718 72.746 12.3039 72.4029C12.5361 72.0597 12.6967 71.6732 12.7761 71.2666C13.0084 70.2954 12.7761 69.5185 12.2145 69.1554C11.7871 69.32 11.4059 69.5857 11.1036 69.9299C10.8014 70.274 10.5871 70.6864 10.4791 71.1315C10.4129 71.4078 10.3929 71.6932 10.42 71.976C10.42 71.976 10.2004 71.6889 9.99772 71.3933L9.60081 70.7937L9.45726 70.5784C9.82783 70.3913 10.1573 70.1321 10.4263 69.8159C10.6953 69.4998 10.8985 69.1331 11.0238 68.7374C11.1742 68.3331 11.2206 67.8975 11.1589 67.4706C11.1161 67.1211 10.9463 66.7995 10.6818 66.567C10.2399 66.6855 9.83337 66.9096 9.49723 67.22C9.1611 67.5304 8.90539 67.9178 8.75209 68.3489C8.65043 68.6188 8.59892 68.905 8.60008 69.1934C8.60008 69.1934 8.40586 68.8852 8.24541 68.5642L7.90759 67.9266L7.78515 67.6986C8.17573 67.5493 8.53219 67.3227 8.83327 67.0325C9.13434 66.7423 9.37386 66.3944 9.53749 66.0096C9.95974 65.106 9.86683 64.2911 9.42347 63.797C8.97035 63.8723 8.54197 64.0554 8.17451 64.331C7.80705 64.6066 7.51131 64.9665 7.31223 65.3805C7.19062 65.6387 7.11354 65.9157 7.08423 66.1996C7.08423 66.1996 6.92376 65.8745 6.78442 65.5409L6.52263 64.8696L6.42972 64.6289C6.83043 64.5237 7.20556 64.338 7.53222 64.0832C7.85889 63.8284 8.13026 63.5098 8.32984 63.1468C8.82387 62.3023 8.86188 61.4578 8.41429 60.9215C7.95956 60.9493 7.51866 61.0887 7.13056 61.3273C6.74246 61.5659 6.41912 61.8964 6.18906 62.2896C6.04056 62.537 5.93224 62.8064 5.86815 63.0877L5.4459 61.7111L5.38255 61.462C5.79421 61.394 6.18769 61.2428 6.53905 61.0178C6.8904 60.7927 7.19227 60.4985 7.42625 60.153C7.68733 59.8026 7.85447 59.3913 7.91182 58.9581C7.97733 58.6038 7.90807 58.2378 7.7176 57.932C7.25945 57.9212 6.80554 58.0221 6.39506 58.2258C5.98458 58.4296 5.62985 58.7302 5.36145 59.1016C5.18505 59.3325 5.05069 59.5927 4.96453 59.8701C4.96453 59.8701 4.9392 59.7857 4.90964 59.6506C4.88008 59.5154 4.85053 59.3423 4.81253 59.165L4.66895 58.4598L4.61829 58.2065C5.03188 58.1742 5.43447 58.0575 5.80122 57.8636C6.16797 57.6697 6.49109 57.4027 6.75063 57.0791C7.41356 56.3148 7.54868 55.4788 7.22355 54.8749C6.76931 54.8264 6.31011 54.8899 5.88611 55.06C5.46211 55.23 5.08626 55.5014 4.79142 55.8503C4.6041 56.0683 4.45296 56.315 4.34381 56.5808L4.23405 55.8672C4.17494 55.5126 4.14537 55.1494 4.14537 55.1494L4.12004 54.896C4.53721 54.8982 4.95038 54.8147 5.3339 54.6505C5.71742 54.4863 6.06309 54.2451 6.34949 53.9418C7.02509 53.2366 7.27845 52.4006 6.99132 51.7714C6.39552 51.6687 5.78249 51.7567 5.23962 52.0228C4.69675 52.2889 4.25176 52.7196 3.96803 53.2535L3.89623 51.8094V51.5518C4.31094 51.5864 4.72832 51.5348 5.12215 51.4004C5.51599 51.266 5.8778 51.0516 6.18484 50.7707C6.95333 50.1162 7.20666 49.2971 6.98709 48.6595C6.5438 48.5422 6.07843 48.5359 5.63213 48.6412C5.18583 48.7465 4.77236 48.9602 4.42827 49.2633C4.21081 49.4512 4.02416 49.672 3.87512 49.9178V49.1957C3.87512 49.0141 3.87512 48.8326 3.87512 48.6974V48.4737V48.2161C4.28714 48.2803 4.70796 48.2586 5.11123 48.1525C5.51449 48.0465 5.89149 47.8582 6.2186 47.5996C6.99131 46.9958 7.36289 46.1977 7.16866 45.5306C6.73429 45.3832 6.27041 45.3446 5.81766 45.4182C5.36491 45.4918 4.93713 45.6754 4.57184 45.9528C4.33828 46.1251 4.13189 46.3315 3.95958 46.5651L4.09893 45.1252L4.12426 44.8677C4.53026 44.9601 4.95098 44.9677 5.36005 44.89C5.76913 44.8122 6.15775 44.6508 6.50152 44.4159C7.34602 43.8712 7.73025 43.09 7.5909 42.4102C7.16792 42.2356 6.70869 42.167 6.25316 42.2104C5.79762 42.2539 5.35957 42.4079 4.97719 42.6593C4.73466 42.8145 4.51928 43.0085 4.33961 43.2336L4.44095 42.52C4.4874 42.1568 4.55916 41.8022 4.55916 41.8022L4.60563 41.5488C5.00495 41.6707 5.42536 41.7078 5.83985 41.6576C6.25435 41.6075 6.65375 41.4711 7.01243 41.2574C7.4032 41.0462 7.73435 40.7398 7.97516 40.3665C8.18813 40.0647 8.28142 39.6945 8.23696 39.3278C7.82553 39.1249 7.37074 39.0258 6.91222 39.0391C6.45371 39.0523 6.00539 39.1775 5.60636 39.4038C5.34977 39.5411 5.1173 39.7194 4.91809 39.9316C4.91809 39.9316 4.91808 39.8429 4.96453 39.712L5.08275 39.2264L5.25166 38.5213L5.31078 38.2721C5.69931 38.4182 6.11401 38.4816 6.52843 38.4583C6.94284 38.435 7.34786 38.3256 7.7176 38.137C8.63388 37.7148 9.13213 36.9843 9.06457 36.2876C8.66924 36.0587 8.22369 35.9306 7.76718 35.9144C7.31067 35.8982 6.85719 35.9944 6.44663 36.1947C6.18594 36.3202 5.94543 36.4838 5.73303 36.6803L6.15528 35.2869L6.2355 35.042C6.61691 35.2149 7.03015 35.3064 7.4489 35.3108C7.86765 35.3151 8.28273 35.2322 8.66766 35.0673C9.08497 34.9111 9.45454 34.6492 9.74016 34.3072C9.98747 34.0022 10.1257 33.6232 10.1328 33.2305C9.74458 32.983 9.30081 32.8361 8.84157 32.8029C8.38232 32.7697 7.92206 32.8514 7.50225 33.0405C7.23575 33.1398 6.9875 33.2825 6.76754 33.4627C6.76754 33.4627 6.87732 33.1165 7.004 32.7745L7.24888 32.0904L7.33757 31.8413C7.71398 32.0335 8.1297 32.1361 8.5523 32.1413C8.97491 32.1464 9.39298 32.0539 9.77395 31.8709C10.2124 31.6865 10.5864 31.3763 10.8486 30.9795C11.1109 30.5827 11.2497 30.117 11.2476 29.6414C10.5593 29.1938 9.51216 29.2783 8.59166 29.7554C8.33035 29.8911 8.08765 30.06 7.8696 30.2579C7.8696 30.2579 7.97938 29.9074 8.0765 29.5485C8.17362 29.1896 8.26229 28.8307 8.26229 28.8307L8.32141 28.5731C8.72203 28.7261 9.15517 28.7739 9.5795 28.7118C10.0038 28.6497 10.4051 28.4798 10.7451 28.2184C11.1722 27.9068 11.5006 27.4787 11.6909 26.9854C11.7527 26.8284 11.7925 26.6636 11.8092 26.4957C11.8092 26.2634 11.8387 26.1916 11.8429 26.0734C11.8483 25.8741 11.8183 25.6753 11.7543 25.4865C11.306 25.3848 10.8394 25.3968 10.3969 25.5214C9.95441 25.6461 9.55014 25.8794 9.2208 26.2001C9.10679 26.3099 9.00122 26.4492 8.89144 26.5632C8.78165 26.6772 8.70144 26.7828 8.61699 26.8926V26.6645C8.64028 26.4896 8.65155 26.3132 8.65075 26.1367V25.1402C8.93777 24.8641 9.15836 24.5265 9.29588 24.1527C9.43339 23.7789 9.48422 23.3788 9.44458 22.9825C9.41664 22.6708 9.35288 22.3634 9.25456 22.0662C9.11485 21.8127 8.93196 21.5855 8.7141 21.3949C8.38387 21.1125 7.97633 20.936 7.54446 20.8882C7.30112 21.2425 7.15548 21.6546 7.12221 22.0832C7.09688 22.2943 7.08845 22.4505 7.08 22.6194C7.04095 22.8011 7.03097 22.9878 7.05044 23.1726C7.09748 23.9287 7.43847 24.6364 8.0005 25.1445V25.402C8.0005 25.402 8.0005 25.7652 8.0005 26.1283C8.00167 26.2849 7.99321 26.4414 7.97516 26.597C7.97516 26.7321 7.94983 26.8208 7.94983 26.8208C7.8933 26.6944 7.82398 26.5741 7.74293 26.4619C7.65821 26.3541 7.5587 26.2589 7.44735 26.179C7.1137 25.8655 6.70835 25.6384 6.26671 25.5177C5.82508 25.397 5.3606 25.3863 4.91386 25.4865C4.84731 25.6499 4.81429 25.8251 4.81676 26.0016C4.81676 26.0903 4.81675 26.2127 4.84209 26.179C4.86742 26.1452 4.8843 26.179 4.90964 26.2803C5.04219 26.6647 5.26019 27.0141 5.54724 27.3021C6.09642 27.9244 6.85547 28.3227 7.67959 28.4211L7.62046 28.6702C7.62046 28.6702 7.54024 29.0165 7.44313 29.3627C7.34601 29.709 7.24046 30.0552 7.24046 30.0552C7.17407 29.7751 7.05825 29.5092 6.89844 29.2698C6.64535 28.8888 6.30392 28.5747 5.90323 28.3541C5.50253 28.1335 5.05445 28.0131 4.59718 28.0031C4.22138 28.4802 4.26782 29.2698 4.77452 30.1439C4.98029 30.5066 5.25921 30.8227 5.59357 31.072C5.92794 31.3214 6.31045 31.4985 6.71687 31.5922L6.63242 31.8371L6.38751 32.5211C6.26083 32.8589 6.14682 33.2094 6.14682 33.2094C6.09039 32.9143 5.98931 32.6295 5.84704 32.3649C5.64034 31.9551 5.3356 31.6026 4.95992 31.3389C4.58424 31.0752 4.14924 30.9084 3.69356 30.8533C3.44725 31.1577 3.3144 31.5384 3.31775 31.93C3.3133 32.4163 3.43244 32.8957 3.664 33.3234C3.85472 33.6986 4.12969 34.0246 4.46739 34.2759C4.80509 34.5272 5.19635 34.6969 5.61056 34.7717L5.52613 35.0166L5.10388 36.4269C5.02728 36.1437 4.9122 35.8724 4.76186 35.6204C4.53918 35.2137 4.21881 34.8687 3.82961 34.6166C3.44042 34.3645 2.99462 34.2132 2.53238 34.1763C2.30551 34.5634 2.19304 35.0069 2.20799 35.4553C2.22293 35.9037 2.3647 36.3387 2.61683 36.7098C2.83494 37.0738 3.13385 37.3826 3.49043 37.6125C3.847 37.8424 4.25169 37.9872 4.67318 38.0357L4.60983 38.289L4.44095 39.0026C4.39872 39.18 4.35649 39.3573 4.32271 39.4924C4.30329 39.5662 4.28779 39.6409 4.27627 39.7162C4.18364 39.4399 4.05442 39.1771 3.89203 38.9351C3.64582 38.5447 3.30594 38.222 2.90331 37.9964C2.50068 37.7707 2.04805 37.6492 1.58655 37.643C1.37046 38.0005 1.27428 38.4177 1.31207 38.8337C1.34844 39.346 1.52522 39.8383 1.823 40.2567C2.06001 40.6031 2.37387 40.8901 2.7401 41.0952C3.10633 41.3003 3.51503 41.4179 3.93425 41.439L3.8878 41.6966C3.8878 41.6966 3.81178 42.0555 3.76534 42.4186L3.664 43.1449C3.55109 42.8745 3.4004 42.6214 3.21642 42.3933C2.94372 42.0191 2.58195 41.7188 2.16389 41.5197C1.74583 41.3206 1.28469 41.229 0.822278 41.2532C0.442255 41.9373 0.594264 42.9422 1.24453 43.7614C1.50691 44.0938 1.843 44.3608 2.22626 44.541C2.60952 44.7213 3.02945 44.81 3.45288 44.8001L3.42754 45.0619L3.28399 46.5229C3.15998 46.2588 2.99621 46.0153 2.7984 45.8008C2.50354 45.4451 2.12387 45.1693 1.6944 44.9988C1.26493 44.8283 0.799476 44.7687 0.340909 44.8254C0.182723 45.2503 0.154047 45.7126 0.258516 46.1537C0.362985 46.5949 0.595915 46.9952 0.92784 47.304C1.2119 47.6166 1.56436 47.8592 1.95769 48.013C2.35102 48.1669 2.77459 48.2277 3.19531 48.1908V48.4483V48.6806C3.19531 48.8157 3.19531 49.0015 3.19531 49.183V49.9178C3.0466 49.663 2.8617 49.4311 2.64639 49.2295C2.32455 48.8952 1.92398 48.647 1.48137 48.5075C1.03876 48.3681 0.568245 48.3419 0.112904 48.4314C-0.182669 49.1619 0.112899 50.1584 0.872946 50.8636C1.1779 51.1566 1.54698 51.3744 1.95086 51.4997C2.35474 51.6251 2.7823 51.6545 3.19954 51.5856V51.8474L3.26709 53.3126C3.10671 53.0702 2.9102 52.8538 2.68438 52.6708C2.34236 52.3598 1.92733 52.1402 1.47779 52.0325C1.02825 51.9247 0.558764 51.9322 0.112904 52.0543C0.017183 52.4993 0.0555518 52.9626 0.223157 53.3858C0.390762 53.8089 0.680068 54.1729 1.05451 54.4316C1.37969 54.702 1.7639 54.8922 2.17611 54.9868C2.58832 55.0814 3.01698 55.0778 3.42754 54.9763L3.45288 55.2381C3.45288 55.2381 3.47822 55.6054 3.54156 55.9643L3.65135 56.6906C3.46491 56.4629 3.24743 56.2625 3.00529 56.0952C2.63905 55.8116 2.2075 55.6242 1.75015 55.5505C1.29279 55.4767 0.824219 55.5188 0.38735 55.673C0.214228 56.4415 0.657604 57.3916 1.51054 57.9785C1.85856 58.2215 2.2584 58.3801 2.67838 58.4416C3.09835 58.5032 3.5269 58.4661 3.93002 58.3332L3.98069 58.5865L4.12849 59.3085C4.16649 59.4859 4.20027 59.6675 4.22982 59.8026C4.24351 59.8783 4.26184 59.953 4.28472 60.0264C4.08108 59.8161 3.85117 59.6331 3.60068 59.4817C3.21404 59.2289 2.76983 59.0778 2.30924 59.0423C1.84866 59.0069 1.38658 59.0883 0.965828 59.279C0.922008 59.7018 1.01371 60.1277 1.22765 60.4951C1.48567 60.9154 1.84972 61.2606 2.28327 61.4958C2.6469 61.71 3.05609 61.8351 3.47736 61.8608C3.89863 61.8865 4.32 61.8121 4.70697 61.6436L4.77452 61.8969L5.22632 63.2946C5.00556 63.1011 4.75813 62.9404 4.49162 62.8174C4.08066 62.601 3.62224 62.4903 3.15779 62.4955C2.69333 62.5006 2.2375 62.6214 1.83146 62.847C1.8554 63.3077 2.01147 63.7518 2.28102 64.1262C2.55058 64.5005 2.92222 64.7894 3.35154 64.9582C3.73647 65.1387 4.15865 65.2255 4.58357 65.2116C5.00849 65.1977 5.42408 65.0833 5.79635 64.878L5.88926 65.1229L6.1595 65.807C6.30307 66.1448 6.46351 66.4783 6.46351 66.4783C6.21954 66.3097 5.95395 66.1748 5.67391 66.0772C5.2496 65.896 4.78608 65.8261 4.32722 65.8742C3.86836 65.9222 3.42933 66.0865 3.05174 66.3516C3.05174 67.1624 3.778 67.9731 4.76606 68.3109C5.16422 68.4547 5.59114 68.5006 6.01077 68.4448C6.4304 68.3889 6.83043 68.2329 7.17711 67.99L7.29955 68.2222L7.6458 68.8725C7.8147 69.2018 8.00895 69.5143 8.00895 69.5143C7.74973 69.3739 7.47475 69.2647 7.18979 69.1892C6.74739 69.0546 6.27816 69.0339 5.82565 69.1291C5.37314 69.2244 4.95203 69.4324 4.6014 69.7339C4.67972 70.1572 4.89304 70.5439 5.20944 70.8359C5.57597 71.1716 6.02456 71.4047 6.50995 71.5115C6.92236 71.6114 7.35263 71.6118 7.76523 71.5127C8.17782 71.4136 8.56092 71.2178 8.88298 70.9415L9.03078 71.1568L9.45303 71.7733C9.66416 72.0731 9.87528 72.3645 9.87528 72.3645C9.60475 72.2525 9.32091 72.1759 9.03078 72.1365C8.57477 72.0436 8.10257 72.069 7.65912 72.2101C7.21567 72.3513 6.81572 72.6036 6.4973 72.943C6.69153 73.7368 7.54869 74.3955 8.60854 74.5222C9.03223 74.5738 9.4621 74.5242 9.86288 74.3774C10.2637 74.2305 10.6239 73.9907 10.914 73.6777L11.0787 73.8803L11.2265 74.0577C11.3109 74.1632 11.4291 74.3068 11.5558 74.4419L12.0498 74.9866C11.7678 74.9005 11.4749 74.855 11.18 74.8515C10.7187 74.8148 10.2555 74.895 9.83338 75.0847C9.41122 75.2743 9.04369 75.5674 8.76477 75.9367C8.93117 76.3395 9.22875 76.6743 9.60926 76.8867C10.1928 77.2309 10.8822 77.3496 11.5472 77.2205C12.2123 77.0913 12.8071 76.7233 13.2195 76.1858L13.4053 76.3716C13.4053 76.3716 13.4686 76.4392 13.57 76.5321L13.95 76.8656L14.4989 77.3554C14.2111 77.2995 13.9165 77.2867 13.6248 77.3174C12.5903 77.4188 11.6909 77.9381 11.3447 78.6813C11.6017 79.0734 11.9674 79.3822 12.3971 79.5697C12.8269 79.7571 13.3019 79.8153 13.7642 79.7369C14.1858 79.6964 14.5913 79.5547 14.9464 79.3239C15.3015 79.0931 15.5955 78.7799 15.8036 78.4111L16.0148 78.5673L16.6144 78.9896L17.0366 79.2851C17.1506 79.3653 17.2308 79.4118 17.2308 79.4118C16.938 79.3959 16.6443 79.4172 16.3568 79.4751C15.3476 79.6863 14.5031 80.3196 14.2455 81.0923C14.5102 81.4396 14.8761 81.6963 15.2927 81.8271C15.7735 81.9693 16.2832 81.9824 16.7706 81.8651C17.1849 81.7739 17.5711 81.5843 17.8967 81.3123C18.2223 81.0404 18.4776 80.6941 18.6412 80.3027L18.8692 80.4336L19.511 80.7968C19.6672 80.8897 19.8319 80.9741 19.9586 81.0332L20.1612 81.1388C19.8736 81.1607 19.5898 81.2189 19.3167 81.3119C18.3414 81.6328 17.5813 82.3591 17.4209 83.1529C17.9571 83.7778 19.017 83.9974 20.005 83.6343C20.4073 83.4944 20.7704 83.2605 21.0642 82.952C21.3579 82.6436 21.5739 82.2695 21.694 81.8608L21.9347 81.9664L22.6103 82.262L23.2985 82.5238C23.0055 82.5727 22.721 82.6637 22.454 82.794C21.5209 83.2162 20.8537 84.027 20.7651 84.8377C20.92 84.9791 21.0987 85.092 21.2929 85.1713C21.5017 85.2492 21.7208 85.2961 21.9431 85.3106C22.6177 85.3581 23.2864 85.1572 23.8231 84.7458C24.3598 84.3343 24.7274 83.7407 24.8566 83.0769L25.11 83.1613L26.495 83.5836C26.2132 83.6504 25.9438 83.7616 25.6969 83.913C24.8524 84.445 24.2528 85.3064 24.2739 86.1255C24.5854 86.3605 24.9695 86.4786 25.3591 86.4591C25.8095 86.4241 26.2445 86.2791 26.6259 86.0369C26.9898 85.8311 27.306 85.5504 27.5535 85.2134C27.8009 84.8764 27.9741 84.4907 28.0615 84.0819L28.3064 84.1663L29.6703 84.6561C29.3849 84.7095 29.1099 84.8079 28.8553 84.9475C28.4489 85.1578 28.1007 85.4651 27.8414 85.8423C27.5821 86.2194 27.4199 86.6546 27.369 87.1094C27.9011 87.5739 28.792 87.595 29.6745 87.1094C30.0408 86.9316 30.3663 86.68 30.6308 86.3705C30.8953 86.061 31.093 85.7001 31.2115 85.3106L31.4522 85.4077L32.1235 85.6864L32.7865 85.9735C32.4937 86.0068 32.2083 86.0881 31.942 86.2142C31.5206 86.4058 31.1535 86.699 30.8734 87.0675C30.5934 87.4359 30.4092 87.8682 30.3374 88.3255C30.8484 88.8026 31.7266 88.8828 32.6387 88.4606C33.0205 88.2928 33.3628 88.0467 33.6435 87.7383C33.9243 87.4299 34.1372 87.0661 34.2686 86.6702L34.505 86.78L35.1553 87.0967C35.4846 87.2529 35.8013 87.4218 35.8013 87.4218C35.5109 87.4384 35.2253 87.5041 34.9568 87.6161C34.5293 87.7826 34.1492 88.0513 33.8496 88.3988C33.55 88.7462 33.3401 89.1618 33.2383 89.6091C33.7154 90.12 34.5895 90.2425 35.5142 89.8751C35.9054 89.7296 36.2621 89.5042 36.5616 89.2135C36.8611 88.9227 37.0968 88.5729 37.2538 88.1861L37.4819 88.3128L38.111 88.6675L38.7359 89.0348C38.4487 89.0351 38.1635 89.0822 37.8914 89.1742C37.4551 89.3135 37.0595 89.5576 36.7393 89.8852C36.4191 90.2127 36.184 90.6138 36.0547 91.0532C36.4769 91.5894 37.3214 91.771 38.2884 91.4754C38.6867 91.3558 39.0563 91.1559 39.3744 90.8879C39.6925 90.6199 39.9523 90.2896 40.1378 89.9173L40.3532 90.0567L40.9148 90.4325C40.9497 90.461 40.9902 90.482 41.0338 90.4941C41.0773 90.5061 41.1228 90.509 41.1675 90.5024C41.2122 90.4959 41.255 90.4801 41.2933 90.4561C41.3315 90.4321 41.3644 90.4004 41.3897 90.363C41.415 90.3256 41.4323 90.2834 41.4403 90.2389C41.4484 90.1945 41.4472 90.1489 41.4367 90.105C41.4261 90.061 41.4066 90.0198 41.3792 89.9839C41.3519 89.9479 41.3174 89.9181 41.2779 89.8962L40.7374 89.4697Z" fill="#179BD7"/>
<path d="M86.8515 64.7177C90.9346 56.5767 91.1204 45.5307 87.3371 35.1603C86.3448 32.4283 85.4877 30.068 85.2259 26.7153C85.1287 21.8341 85.6143 20.4703 85.6692 20.3309C85.969 19.5751 86.2773 18.8615 86.6151 18.1521L88.2365 14.7277L85.2808 12.3589C75.2708 4.35826 62.8374 0 50.023 0C37.2086 0 24.7752 4.35826 14.7653 12.3589L11.8096 14.7235L13.393 18.1732C13.7308 18.8826 14.0348 19.592 14.3346 20.3478C14.3346 20.4027 14.8835 21.7877 14.7864 26.7407C14.5331 30.0426 13.6717 32.4283 12.6752 35.1856C8.87493 45.5518 9.0776 56.5978 13.1607 64.743C14.5681 67.6381 16.5657 70.2067 19.0251 72.2836C21.4845 74.3605 24.3513 75.8998 27.4412 76.8024C36.4308 79.4879 42.3719 83.0897 45.1756 85.0532L50.0103 88.6042L54.8409 85.0574C57.6488 83.0939 63.5983 79.4837 72.5753 76.8024C75.6671 75.8971 78.5348 74.354 80.9937 72.2726C83.4526 70.1911 85.4481 67.6175 86.8515 64.7177ZM52.4383 83.8117L50.0061 85.6316L47.5698 83.8117C45.277 82.0805 38.7025 77.6427 28.1252 74.4843C25.3496 73.6736 22.7748 72.2903 20.5668 70.4233C18.3587 68.5564 16.5665 66.2473 15.3058 63.6452C11.5055 56.0827 11.3704 45.7461 14.9258 35.9921C15.9476 33.1757 16.9145 30.5029 17.1805 26.842C17.2861 21.8384 16.7836 20.0058 16.5641 19.4484C16.2474 18.6504 15.9222 17.8946 15.5633 17.1345L14.7568 15.4455L16.2347 14.2632C25.823 6.59332 37.736 2.41478 50.0146 2.41478C62.2931 2.41478 74.2061 6.59332 83.7944 14.2632L85.2723 15.4497L84.4616 17.1641C84.1027 17.9199 83.7776 18.6757 83.4566 19.478C83.1864 20.162 82.743 22.0115 82.8444 26.8673C83.1231 30.5831 84.0858 33.2222 85.1034 36.0175C88.6587 45.7714 88.5194 56.108 84.7234 63.6663C83.4631 66.2692 81.6711 68.5791 79.463 70.4468C77.255 72.3145 74.6799 73.6985 71.9039 74.5096C61.3139 77.6385 54.7395 82.0805 52.4383 83.8117Z" fill="#179BD7"/>
<path d="M96.5463 55.2465L96.5717 54.9847C96.9824 55.0842 97.4106 55.0868 97.8224 54.9923C98.2343 54.8978 98.6185 54.7087 98.9447 54.44C99.3191 54.1813 99.6084 53.8173 99.776 53.3942C99.9437 52.971 99.982 52.5077 99.8863 52.0627C99.4407 51.9409 98.9716 51.9331 98.5223 52.0401C98.0729 52.1471 97.6577 52.3654 97.3148 52.675C97.0898 52.8604 96.8934 53.0781 96.7321 53.321L96.7997 51.8558V51.5941C97.2176 51.6626 97.6457 51.633 98.0502 51.5077C98.4547 51.3824 98.8245 51.1648 99.1305 50.872C99.8821 50.1668 100.182 49.183 99.8905 48.4398C99.4352 48.3488 98.9642 48.3742 98.5213 48.5137C98.0784 48.6532 97.678 48.9023 97.357 49.2379C97.1416 49.4389 96.9554 49.6692 96.8039 49.9219V49.1915C96.8039 49.0057 96.8039 48.8241 96.8039 48.6848C96.8039 48.5454 96.8039 48.4567 96.8039 48.4567V48.1949C97.2248 48.2338 97.6489 48.1739 98.0426 48.02C98.4363 47.866 98.7885 47.6223 99.0714 47.3082C99.4034 47.0004 99.6365 46.6008 99.741 46.1603C99.8455 45.7197 99.8167 45.258 99.6583 44.8339C99.2001 44.7774 98.7352 44.8368 98.3059 45.0064C97.8766 45.1761 97.4966 45.4506 97.2008 45.805C97.0048 46.0209 96.8413 46.2641 96.7152 46.5271L96.5759 45.0703L96.5506 44.8085C96.9731 44.8165 97.3917 44.7269 97.774 44.5467C98.1563 44.3665 98.4918 44.1007 98.7547 43.7698C99.4049 42.9633 99.5527 41.9457 99.1769 41.2616C98.7154 41.2365 98.255 41.3273 97.8376 41.5257C97.4201 41.7241 97.059 42.0238 96.787 42.3975C96.6014 42.626 96.4506 42.8807 96.3394 43.1533L96.2339 42.427C96.1874 42.0639 96.1156 41.705 96.1156 41.705L96.065 41.4474C96.7317 41.3981 97.3606 41.1184 97.8437 40.6561C98.3267 40.1938 98.6339 39.5779 98.7125 38.9139C98.7503 38.4979 98.6541 38.0807 98.438 37.7232C97.9771 37.7297 97.5252 37.8514 97.1233 38.077C96.7214 38.3027 96.3823 38.6252 96.1367 39.0153C95.9727 39.2564 95.8434 39.5194 95.7525 39.7964C95.7525 39.7964 95.7525 39.7035 95.7018 39.5726C95.6512 39.4417 95.63 39.2602 95.5836 39.0828L95.4147 38.3692L95.3556 38.1116C95.7758 38.0624 96.1791 37.9177 96.5348 37.6887C96.8905 37.4596 97.1891 37.1522 97.4077 36.79C97.6618 36.4197 97.8047 35.9845 97.8197 35.5356C97.8346 35.0867 97.721 34.643 97.4922 34.2565C97.0305 34.2934 96.5852 34.4447 96.1967 34.6968C95.8082 34.949 95.4886 35.294 95.2669 35.7006C95.1124 35.9504 94.997 36.2224 94.9249 36.5071L94.5026 35.0968L94.4224 34.8477C94.8368 34.7747 95.2283 34.6057 95.5656 34.3542C95.9029 34.1027 96.1766 33.7757 96.3648 33.3994C96.6001 32.9732 96.7195 32.4927 96.711 32.0059C96.7153 31.6129 96.5824 31.2306 96.3352 30.925C95.8788 30.9814 95.4434 31.1496 95.0677 31.4148C94.692 31.68 94.3877 32.0339 94.1817 32.4451C94.0444 32.704 93.9449 32.9813 93.8862 33.2685C93.8862 33.2685 93.7722 32.918 93.6455 32.5802C93.5188 32.2424 93.3963 31.8962 93.3963 31.8962L93.3119 31.6512C93.7182 31.5573 94.1005 31.3795 94.4342 31.1294C94.7679 30.8793 95.0458 30.5623 95.25 30.1987C95.7567 29.3542 95.8032 28.5393 95.4274 28.0875C94.9721 28.0933 94.5249 28.2092 94.1242 28.4254C93.7235 28.6416 93.381 28.9516 93.1261 29.3289C92.9683 29.5694 92.8527 29.835 92.7841 30.1143C92.7841 30.1143 92.6785 29.768 92.5814 29.4218C92.4843 29.0755 92.4041 28.7293 92.4041 28.7293L92.345 28.4802C93.17 28.3839 93.9306 27.9871 94.4815 27.3654C94.7697 27.0767 94.9878 26.7256 95.1191 26.3394C95.1656 26.0903 95.212 26.3605 95.2078 26.0565C95.2096 25.8804 95.1781 25.7056 95.1149 25.5413C94.6682 25.4415 94.2038 25.4524 93.7622 25.5731C93.3206 25.6938 92.9153 25.9206 92.5814 26.2338C92.4703 26.3126 92.3721 26.408 92.2901 26.5167C92.2107 26.6316 92.1415 26.7531 92.0832 26.8798L92.0578 26.6561C92.0578 26.5125 92.0283 26.3647 92.0283 26.1874V25.2035C92.5863 24.6917 92.9239 23.9832 92.9699 23.2274C92.9781 23.1304 92.9781 23.033 92.9699 22.9361C92.9699 22.8516 92.9488 22.7671 92.9319 22.6785C92.9319 22.5096 92.9319 22.3576 92.8939 22.1422C92.8598 21.7139 92.7143 21.3019 92.4716 20.9473C92.0413 20.9961 91.6354 21.1726 91.3062 21.454C91.0855 21.6424 90.8997 21.8682 90.7573 22.1211C90.7085 22.2723 90.6676 22.4259 90.6349 22.5814C90.6038 22.7347 90.5827 22.8898 90.5715 23.0458C90.5324 23.4418 90.584 23.8415 90.7222 24.2146C90.8605 24.5877 91.0819 24.9244 91.3696 25.1993V25.4611C91.3696 25.4611 91.3696 25.8285 91.3696 26.1958C91.3686 26.3723 91.3799 26.5487 91.4033 26.7236L91.4245 26.9516C91.339 26.8383 91.2474 26.7298 91.15 26.6265C91.0402 26.5125 90.9304 26.3774 90.8206 26.2592C90.4909 25.9392 90.0864 25.7067 89.6439 25.5828C89.2015 25.4589 88.7351 25.4475 88.2872 25.5498C88.2212 25.7381 88.1911 25.9372 88.1985 26.1367C88.1985 26.1874 88.1985 26.238 88.1985 26.2929V26.5632C88.2133 26.6584 88.233 26.7528 88.2576 26.8461C88.2722 26.9114 88.2934 26.975 88.3209 27.0361C88.5137 27.5257 88.8417 27.9504 89.2668 28.2606C89.6055 28.5227 90.0059 28.6934 90.4296 28.7562C90.8533 28.8191 91.286 28.772 91.6862 28.6195L91.7454 28.8771C91.7454 28.8771 91.8298 29.2402 91.9312 29.5949C92.0325 29.9496 92.1423 30.3043 92.1423 30.3043C91.9227 30.1064 91.6786 29.9375 91.416 29.8018C90.4955 29.3247 89.4483 29.236 88.7601 29.6836C88.7566 30.1611 88.8952 30.6289 89.1584 31.0275C89.4216 31.426 89.7974 31.7372 90.2379 31.9215C90.6191 32.1041 91.0374 32.1962 91.4601 32.1903C91.8827 32.1844 92.2983 32.0809 92.6743 31.8877L92.763 32.1368L93.0079 32.8209C93.1388 33.1629 93.2486 33.5049 93.2486 33.5049C92.7804 33.1189 92.2038 32.888 91.5986 32.8441C90.9934 32.8002 90.3895 32.9456 89.8706 33.26C89.8805 33.6516 90.0201 34.0288 90.2675 34.3325C90.5531 34.6745 90.9227 34.9364 91.34 35.0926C91.7244 35.2566 92.1387 35.3391 92.5566 35.3347C92.9745 35.3304 93.387 35.2393 93.7679 35.0672L93.8524 35.3122L94.2746 36.7013C93.8317 36.2927 93.2706 36.035 92.6721 35.9652C92.0735 35.8954 91.4682 36.0171 90.9431 36.3129C90.8797 37.0096 91.3653 37.7316 92.2901 38.1581C92.66 38.3482 93.0656 38.4589 93.4808 38.4829C93.8961 38.5069 94.3117 38.4437 94.7011 38.2974L94.7602 38.5466L94.9291 39.2517C94.9713 39.4248 95.0136 39.6022 95.0431 39.7331C95.0727 39.864 95.0938 39.9569 95.0938 39.9569C94.8939 39.7454 94.6616 39.5672 94.4055 39.4291C94.0065 39.2028 93.5582 39.0776 93.0997 39.0644C92.6411 39.0511 92.1864 39.1502 91.7749 39.3531C91.7315 39.7178 91.8231 40.0858 92.0325 40.3876C92.2852 40.7608 92.6279 41.0643 93.029 41.2701C93.3885 41.4816 93.7879 41.6167 94.202 41.6668C94.6161 41.7169 95.0362 41.6811 95.4358 41.5614L95.4823 41.8148C95.4823 41.8148 95.5583 42.1695 95.6005 42.5284C95.6427 42.8873 95.7061 43.2462 95.7061 43.2462C95.5238 43.0221 95.3071 42.8283 95.0642 42.6719C94.6835 42.4185 94.246 42.2632 93.7908 42.2197C93.3355 42.1763 92.8765 42.246 92.4547 42.4228C92.3112 43.0984 92.6912 43.8796 93.5441 44.4243C93.8863 44.661 94.274 44.8238 94.6826 44.9024C95.0912 44.9809 95.5117 44.9734 95.9172 44.8803L95.9425 45.1379L96.0818 46.5777C95.9119 46.3409 95.7053 46.1328 95.4696 45.9612C95.1046 45.6848 94.6776 45.5019 94.2257 45.4283C93.7738 45.3547 93.3108 45.3927 92.877 45.539C92.6828 46.2062 93.0501 47.0042 93.827 47.608C94.1529 47.8674 94.5291 48.0562 94.9318 48.1623C95.3345 48.2684 95.7549 48.2896 96.1663 48.2245V48.4821C96.1663 48.4821 96.1663 48.575 96.1663 48.7101C96.1663 48.8452 96.1663 49.0268 96.1663 49.2083V49.9304C96.0174 49.6833 95.8308 49.4611 95.6132 49.2717C95.271 48.9739 94.8619 48.7634 94.4207 48.6583C93.9794 48.5531 93.5193 48.5564 93.0797 48.6678C92.8559 49.3181 93.1092 50.1373 93.8777 50.7791C94.186 51.0595 94.5485 51.2735 94.9429 51.4079C95.3374 51.5423 95.7552 51.5941 96.1705 51.5603V51.8178L96.103 53.2619C95.9665 53.0045 95.7913 52.7695 95.5836 52.5652C95.2613 52.2395 94.8644 51.9973 94.4273 51.8597C93.9903 51.7221 93.5262 51.6933 93.0754 51.7756C92.7883 52.4048 93.0417 53.2408 93.7173 53.946C94.0037 54.2493 94.3494 54.4905 94.7329 54.6547C95.1164 54.8188 95.5295 54.9024 95.9467 54.9002L95.9214 55.1578C95.9214 55.1578 95.8918 55.5167 95.8285 55.8756L95.7229 56.5892C95.6141 56.3232 95.463 56.0765 95.2754 55.8587C94.9807 55.5093 94.605 55.2374 94.1811 55.0666C93.7571 54.8958 93.2978 54.8315 92.8432 54.8791C92.5181 55.4829 92.6532 56.3232 93.3161 57.0875C93.5754 57.4111 93.8985 57.6778 94.2654 57.8711C94.6322 58.0643 95.035 58.1799 95.4485 58.2107L95.3978 58.464L95.2542 59.1734C95.2162 59.3507 95.1825 59.5239 95.1529 59.659C95.1389 59.7332 95.1206 59.8065 95.098 59.8786C95.0126 59.6016 94.8797 59.3416 94.7053 59.1101C94.4376 58.7376 94.0831 58.436 93.6726 58.2314C93.262 58.0269 92.8078 57.9255 92.3492 57.9362C92.1592 58.2422 92.0885 58.6075 92.1507 58.9623C92.2073 59.3977 92.3761 59.8109 92.6405 60.1615C92.8751 60.5064 93.1771 60.8003 93.5283 61.0252C93.8796 61.2502 94.2728 61.4016 94.6842 61.4704L94.6167 61.7196L94.1733 63.0919C94.1114 62.8099 94.003 62.5401 93.8524 62.2938C93.6226 61.9003 93.2993 61.5696 92.9111 61.331C92.523 61.0924 92.0819 60.9531 91.6271 60.9257C91.1795 61.4451 91.2049 62.298 91.7158 63.151C91.9141 63.5147 92.1845 63.8341 92.5105 64.0896C92.8365 64.3452 93.2112 64.5315 93.6117 64.6373L93.5188 64.8737L93.257 65.5493C93.1177 65.8787 92.9614 66.2038 92.9614 66.2038C92.929 65.92 92.8505 65.6433 92.7292 65.3847C92.5313 64.9699 92.2359 64.6092 91.8682 64.3335C91.5005 64.0577 91.0716 63.8751 90.6179 63.8012C90.1957 64.2995 90.0733 65.1102 90.4997 66.0138C90.6644 66.398 90.9042 66.7453 91.2052 67.0354C91.5061 67.3255 91.8621 67.5524 92.252 67.7028L92.1338 67.9266C92.1338 67.9266 91.9649 68.2475 91.7918 68.5642C91.6187 68.8809 91.4413 69.1934 91.4413 69.1934C91.4389 68.9049 91.386 68.6191 91.2851 68.3489C91.1324 67.9174 90.8769 67.5297 90.5407 67.2192C90.2045 66.9087 89.7976 66.6848 89.3554 66.567C89.09 66.8005 88.9201 67.1238 88.8783 67.4748C88.816 67.9017 88.8625 68.3374 89.0134 68.7415C89.1381 69.1376 89.341 69.5046 89.6101 69.8208C89.8792 70.1371 90.209 70.3961 90.58 70.5825L90.4364 70.7979L90.0395 71.3975C89.8326 71.6931 89.6172 71.9802 89.6172 71.9802C89.6442 71.6973 89.6243 71.412 89.5581 71.1357C89.4501 70.6905 89.2358 70.2782 88.9336 69.9341C88.6313 69.5899 88.2501 69.3241 87.8227 69.1596C87.2822 69.5396 87.0331 70.3165 87.2611 71.2708C87.3405 71.6774 87.5011 72.0639 87.7333 72.407C87.9654 72.7502 88.2644 73.043 88.6123 73.268L88.4476 73.4665L88.304 73.6396C88.2196 73.7452 88.1056 73.8845 87.9831 74.0154L87.4976 74.5475C87.5543 74.2696 87.5657 73.9844 87.5313 73.703C87.4732 73.2493 87.3061 72.8166 87.0443 72.4416C86.7825 72.0665 86.4339 71.7605 86.0281 71.5495C85.7265 71.7221 85.4938 71.9935 85.3694 72.318C85.2285 72.7244 85.1823 73.1577 85.2343 73.5847C85.269 73.9982 85.3854 74.4007 85.5768 74.7689C85.7681 75.1371 86.0306 75.4637 86.349 75.7297L86.1675 75.9071C86.1172 75.9623 86.0636 76.0145 86.007 76.0633L85.6354 76.3927L85.0823 76.8656C85.1682 76.5924 85.211 76.3075 85.2089 76.0211C85.2054 75.5653 85.0909 75.1171 84.8753 74.7155C84.6598 74.3138 84.3496 73.9706 83.9718 73.7156C83.3426 73.9352 82.9626 74.6741 82.9415 75.6411C82.912 76.4776 83.2157 77.2916 83.786 77.9043L83.5791 78.0563L82.9921 78.4786L82.591 78.7699L82.4052 78.8924C82.5282 78.626 82.6039 78.3402 82.629 78.0479C82.6788 77.5945 82.6176 77.1358 82.4506 76.7114C82.2836 76.2869 82.0159 75.9095 81.6705 75.6115C81.3327 75.6985 81.0411 75.9115 80.8556 76.2069C80.618 76.5656 80.4729 76.9776 80.4333 77.4061C80.3717 77.8161 80.3918 78.2343 80.4925 78.6365C80.5933 79.0387 80.7726 79.417 81.0203 79.7496L80.8007 79.8805L80.1715 80.2351C80.0195 80.328 79.8548 80.4083 79.7493 80.4674L79.5466 80.5687C79.7036 80.3283 79.8139 80.0604 79.8718 79.7791C79.9721 79.334 79.9635 78.8712 79.8466 78.4301C79.7297 77.989 79.508 77.5826 79.2004 77.2456C78.5501 77.3427 77.9843 77.9297 77.7521 78.8966C77.6425 79.2959 77.6141 79.7132 77.6685 80.1236C77.7229 80.5341 77.859 80.9295 78.0687 81.2865L77.8323 81.3879C77.8323 81.3879 77.5029 81.5399 77.1694 81.675L76.498 81.9326C76.6782 81.7079 76.8208 81.4555 76.9202 81.1852C77.0717 80.7532 77.1163 80.2909 77.0501 79.8379C76.9839 79.3849 76.809 78.9547 76.5402 78.5842C76.3722 78.5883 76.2069 78.6271 76.0546 78.6982C75.8877 78.7635 75.7345 78.8595 75.6028 78.9811C75.2854 79.2788 75.0461 79.65 74.9061 80.062C74.753 80.4469 74.6786 80.8585 74.6873 81.2727C74.696 81.6868 74.7876 82.095 74.9568 82.4731L74.7119 82.5533L73.3227 82.9755C73.5197 82.7598 73.6821 82.5148 73.804 82.2493C74.01 81.8369 74.1101 81.3798 74.0953 80.9191C74.0806 80.4584 73.9515 80.0086 73.7196 79.6102C73.3257 79.6031 72.9407 79.7279 72.626 79.9649C72.2337 80.2431 71.9243 80.6225 71.7308 81.0627C71.5454 81.4413 71.4491 81.8573 71.4491 82.2788C71.4491 82.7004 71.5454 83.1163 71.7308 83.4949L71.4817 83.5794L70.1051 84.0734C70.2914 83.8484 70.4424 83.5964 70.5527 83.326C70.7468 82.9069 70.833 82.4459 70.8035 81.985C70.774 81.5241 70.6298 81.0779 70.3838 80.6869C69.939 80.7265 69.5156 80.8956 69.1659 81.1733C68.8162 81.451 68.5555 81.825 68.4162 82.2493C68.2516 82.6374 68.1782 83.058 68.2016 83.4789C68.225 83.8998 68.3447 84.3097 68.5513 84.6772L68.3106 84.7785L67.6308 85.0572L66.9594 85.3486C67.1393 85.1129 67.2817 84.8508 67.3816 84.5716C67.5539 84.1439 67.6163 83.6799 67.5632 83.2219C67.5101 82.7638 67.3432 82.3264 67.0776 81.9495C66.6279 82.0056 66.2052 82.1948 65.8637 82.4927C65.5222 82.7906 65.2774 83.1837 65.1606 83.6216C65.0156 84.0181 64.9641 84.4428 65.0103 84.8625C65.0564 85.2822 65.1989 85.6855 65.4266 86.041L65.1902 86.1508L64.5315 86.4717C64.2021 86.628 63.877 86.8011 63.877 86.8011C64.0325 86.5527 64.1532 86.2842 64.2359 86.0031C64.3845 85.5657 64.421 85.098 64.3421 84.6428C64.2631 84.1877 64.0713 83.7596 63.7841 83.3978C63.3429 83.4864 62.9373 83.7024 62.6176 84.0191C62.2979 84.3358 62.0781 84.7393 61.9853 85.1797C61.8667 85.585 61.8431 86.0122 61.9164 86.4282C61.9896 86.8441 62.1576 87.2376 62.4075 87.578L62.1795 87.7047L61.5419 88.0636L60.9086 88.4352C61.049 88.1779 61.1528 87.9021 61.2168 87.616C61.3375 87.1704 61.3447 86.7016 61.2378 86.2524C61.1308 85.8032 60.9132 85.388 60.6046 85.0445C60.1683 85.1618 59.7759 85.4042 59.4757 85.7419C59.1756 86.0795 58.9809 86.4976 58.9156 86.9447C58.8216 87.3573 58.825 87.7862 58.9254 88.1973C59.0258 88.6084 59.2205 88.9906 59.494 89.3135L59.2745 89.457L58.7086 89.8371C58.6725 89.8609 58.6415 89.8917 58.6175 89.9276C58.5934 89.9636 58.5767 90.004 58.5685 90.0464C58.5602 90.0889 58.5605 90.1326 58.5694 90.1749C58.5782 90.2173 58.5954 90.2575 58.62 90.2931C58.6701 90.3626 58.7453 90.4099 58.8296 90.4248C58.914 90.4398 59.0008 90.4213 59.0718 90.3733L59.6334 89.9975L59.8487 89.8582C60.0342 90.2305 60.294 90.5608 60.6121 90.8287C60.9302 91.0967 61.2998 91.2967 61.6982 91.4163C62.644 91.7287 63.4927 91.5472 63.9361 90.994C63.805 90.5548 63.5688 90.1542 63.248 89.8268C62.9273 89.4994 62.5315 89.2551 62.0951 89.115C61.823 89.023 61.5378 88.9759 61.2506 88.9757L61.8755 88.6083L62.5047 88.2536L62.7327 88.127C62.8891 88.5141 63.1246 88.8643 63.4241 89.1552C63.7237 89.446 64.0807 89.6711 64.4723 89.8159C65.3971 90.1833 66.2711 90.0608 66.7483 89.5499C66.6464 89.1026 66.4365 88.6871 66.1369 88.3396C65.8373 87.9922 65.4572 87.7235 65.0297 87.5569C64.7612 87.445 64.4757 87.3793 64.1852 87.3627C64.1852 87.3627 64.5061 87.1938 64.8355 87.0376L65.4857 86.7209L65.7222 86.6111C65.8535 87.0069 66.0665 87.3708 66.3472 87.6792C66.628 87.9876 66.9703 88.2336 67.3521 88.4014C68.2641 88.8237 69.1424 88.7434 69.6533 88.2621C69.5773 87.8095 69.3912 87.3826 69.1114 87.0188C68.8316 86.6551 68.4667 86.3657 68.0488 86.1762C67.7826 86.0488 67.4973 85.9661 67.2043 85.9313L67.8672 85.6441L68.5386 85.3697L68.7751 85.2725C68.8865 85.6754 69.0808 86.0506 69.3455 86.3741C69.6101 86.6976 69.9393 86.9624 70.312 87.1516C71.1945 87.616 72.0855 87.5738 72.6175 87.1305C72.5666 86.6751 72.4043 86.2394 72.1451 85.8616C71.8859 85.4838 71.5377 85.1757 71.1312 84.9643C70.8759 84.8265 70.6011 84.7283 70.3163 84.673L71.6801 84.1832L71.925 84.1029C72.0125 84.5107 72.1853 84.8953 72.432 85.2315C72.6787 85.5677 72.9937 85.8479 73.3564 86.0537C73.738 86.2955 74.1729 86.4405 74.6232 86.476C75.0139 86.4989 75.4005 86.3855 75.7168 86.1551C75.7379 85.3359 75.1426 84.4661 74.2938 83.9383C74.0452 83.7904 73.7764 83.6794 73.4958 83.6089L74.885 83.1866L75.1341 83.1064C75.21 83.5243 75.3838 83.9182 75.6415 84.2559C75.8991 84.5935 76.2332 84.8653 76.6162 85.0488C77.0578 85.2748 77.5528 85.3756 78.0476 85.3401C78.2713 85.3252 78.4917 85.2783 78.7021 85.2008C78.895 85.1189 79.0732 85.0063 79.2299 84.8672C79.1435 84.4113 78.9433 83.9846 78.6481 83.6266C78.3529 83.2686 77.972 82.9909 77.5409 82.8193C77.2729 82.6915 76.9888 82.6006 76.6964 82.5491L77.3805 82.2873C77.7225 82.1479 78.0561 81.9959 78.0561 81.9959L78.2967 81.8904C78.4175 82.2987 78.6336 82.6725 78.9273 82.9808C79.221 83.2892 79.5838 83.5233 79.9857 83.6638C80.978 84.0185 82.0379 83.8031 82.5741 83.1824C82.4137 82.3886 81.6494 81.6581 80.6782 81.3372C80.3982 81.2437 80.1073 81.1869 79.8126 81.1683L80.0195 81.0627C80.142 80.9994 80.3067 80.9192 80.4671 80.8263L81.1047 80.4589L81.3369 80.3323C81.5001 80.7235 81.7554 81.0694 82.0811 81.3407C82.4068 81.612 82.7932 81.8006 83.2075 81.8904C83.6943 82.0111 84.2046 81.9994 84.6854 81.8566C85.102 81.7259 85.4679 81.4692 85.7325 81.1219C85.4792 80.3534 84.6347 79.7158 83.6213 79.5004C83.3333 79.4459 83.0399 79.426 82.7473 79.4413C82.7473 79.4413 82.8275 79.3949 82.9373 79.3146L83.3595 79.0191L83.9591 78.5968L84.1702 78.4406C84.3778 78.8099 84.6717 79.1234 85.0269 79.3543C85.3821 79.5852 85.7879 79.7266 86.2097 79.7664C86.672 79.8453 87.1472 79.7875 87.5771 79.5999C88.0069 79.4124 88.3726 79.1034 88.6292 78.7108C88.2829 77.9677 87.3835 77.4441 86.349 77.347C86.0574 77.3162 85.7628 77.329 85.475 77.385L86.0239 76.8952L86.3997 76.5574C86.4587 76.5084 86.5151 76.4562 86.5686 76.4011L86.7544 76.2153C87.0061 76.5575 87.3359 76.8345 87.7164 77.0232C88.0969 77.212 88.517 77.3071 88.9416 77.3005C89.4417 77.3115 89.9342 77.1781 90.3604 76.9163C90.7415 76.7046 91.0393 76.3695 91.2049 75.9662C90.926 75.5969 90.5584 75.3039 90.1363 75.1142C89.7141 74.9245 89.251 74.8443 88.7896 74.881C88.4947 74.8845 88.2019 74.93 87.9198 75.0161L88.4138 74.4715C88.5405 74.3363 88.6587 74.197 88.7432 74.0872L88.891 73.9099L89.0556 73.7072C89.3451 74.0211 89.7053 74.2615 90.1062 74.4083C90.5072 74.5552 90.9374 74.6044 91.3611 74.5517C92.3998 74.425 93.257 73.7663 93.4723 72.9725C93.1539 72.6331 92.754 72.3808 92.3105 72.2397C91.8671 72.0985 91.3949 72.0731 90.9389 72.166C90.6481 72.2048 90.364 72.2829 90.0944 72.3982C90.0944 72.3982 90.3182 72.1026 90.5166 71.8028L90.9389 71.1906L91.0867 70.971C91.4078 71.2489 91.7907 71.4461 92.2035 71.546C92.6163 71.6458 93.047 71.6456 93.4597 71.5453C93.9438 71.4349 94.3916 71.2023 94.7602 70.8697C95.0769 70.5762 95.2902 70.1881 95.3682 69.7634C95.0176 69.4619 94.5965 69.2539 94.144 69.1586C93.6915 69.0634 93.2222 69.0841 92.7799 69.2187C92.4949 69.2943 92.2199 69.4034 91.9607 69.5438C91.9607 69.5438 92.1592 69.2314 92.3238 68.902L92.6701 68.2517L92.7925 68.0237C93.1401 68.2647 93.54 68.4195 93.9593 68.4753C94.3785 68.5311 94.8051 68.4863 95.2036 68.3446C96.1916 68.0068 96.8926 67.1919 96.9179 66.3812C96.5403 66.1179 96.1021 65.9546 95.6443 65.9067C95.1865 65.8587 94.724 65.9275 94.3 66.1067C94.0196 66.2034 93.7538 66.3384 93.5104 66.5078C93.5104 66.5078 93.6666 66.1743 93.8144 65.8365C93.9622 65.4987 94.0804 65.1524 94.0804 65.1524L94.1775 64.9075C94.5497 65.1129 94.965 65.2276 95.3898 65.2422C95.8146 65.2569 96.2369 65.1712 96.6223 64.992C97.0506 64.8221 97.421 64.5328 97.6898 64.1586C97.9585 63.7843 98.1141 63.3408 98.1382 62.8807C97.4753 62.4247 96.4239 62.4163 95.4823 62.8512C95.2152 62.9732 94.9676 63.134 94.7475 63.3283L95.1994 61.9307L95.2627 61.6731C95.6498 61.8433 96.0718 61.919 96.494 61.894C96.9161 61.869 97.3262 61.7441 97.6906 61.5295C98.1236 61.2917 98.4874 60.9454 98.7462 60.5246C98.9566 60.1574 99.0481 59.734 99.008 59.3127C98.5873 59.1221 98.1252 59.0407 97.6646 59.0761C97.204 59.1115 96.7598 59.2626 96.3732 59.5154C96.1231 59.6656 95.8932 59.8473 95.6892 60.0559C95.6892 60.0559 95.7145 59.9672 95.744 59.8321C95.7736 59.697 95.8074 59.5196 95.8454 59.3381L95.9932 58.6202L96.0439 58.3627C96.4465 58.4975 96.8751 58.536 97.2953 58.4752C97.7155 58.4143 98.1155 58.2557 98.4633 58.0122C99.3078 57.4253 99.7554 56.4752 99.5865 55.7025C99.1495 55.5495 98.6811 55.508 98.224 55.5817C97.7669 55.6555 97.3354 55.8421 96.9686 56.1248C96.7255 56.2908 96.5078 56.4914 96.3225 56.7201L96.4323 55.9939C96.5168 55.6096 96.5463 55.2465 96.5463 55.2465Z" fill="#179BD7"/>
<path d="M33.977 61.6646C32.4991 58.1388 31.0212 54.4484 28.8593 51.3026C28.1711 50.2893 26.9001 48.7945 25.5827 50.0359C24.2653 51.2773 26.0725 53.8826 25.9374 55.3773C25.6585 57.5052 24.5862 59.4491 22.9352 60.8201C21.8627 61.7195 18.7507 63.1889 19.8781 64.9877C20.5917 66.1193 22.6185 65.3171 23.6108 65.1271C26.0809 64.6584 28.5004 65.5873 30.4554 67.0863C31.2324 67.6859 31.8446 68.505 32.7525 68.9188C33.0251 69.0534 33.3197 69.1378 33.6223 69.168C33.8362 69.1858 34.0506 69.1403 34.2388 69.0371C36.35 67.821 35.0833 64.291 34.3781 62.5978L33.977 61.6646Z" fill="#179BD7"/>
<path d="M82.253 54.9089C80.6316 53.8406 78.2163 56.4627 76.5611 56.7119C74.2767 57.0581 71.6926 56.2389 69.8516 54.8877C68.5848 53.9588 66.1738 50.9819 64.5228 52.6836C63.4883 53.7519 64.8986 55.7407 65.3673 56.7668C66.5327 59.3002 66.1696 62.1842 65.0633 64.705C64.641 65.7057 63.8979 66.5882 63.6867 67.6608C63.6139 67.9923 63.6025 68.3343 63.653 68.6699C63.6891 68.9053 63.795 69.1245 63.957 69.2991C65.836 71.2541 69.3322 68.9697 70.9748 67.741L71.8615 67.0823C75.2901 64.5488 78.8919 61.9435 81.7294 58.7809C82.6415 57.7844 83.9251 56.0109 82.253 54.9089Z" fill="#179BD7"/>
<path d="M71.0211 50.3696C70.8645 51.0389 70.9098 51.7398 71.1516 52.3833C71.3933 53.0269 71.8205 53.5844 72.3791 53.9851C72.9376 54.3859 73.6025 54.6119 74.2896 54.6347C74.9767 54.6575 75.6552 54.4759 76.2391 54.1131C76.823 53.7502 77.2861 53.2223 77.5699 52.5961C77.8538 51.97 77.9455 51.2737 77.8335 50.5954C77.7215 49.9171 77.4108 49.2873 76.9408 48.7856C76.4708 48.2839 75.8625 47.9329 75.1929 47.777C74.7488 47.6729 74.2885 47.6575 73.8383 47.7316C73.3882 47.8056 72.9571 47.9677 72.5696 48.2085C72.1821 48.4492 71.8459 48.7641 71.5802 49.1349C71.3145 49.5057 71.1246 49.9253 71.0211 50.3696Z" fill="#179BD7"/>
<path d="M31.8277 44.4119C31.7685 45.5182 31.7362 46.5851 31.7306 47.6125L32.0515 47.5408C32.1528 46.5527 32.2837 45.5646 32.4357 44.585C34.7683 45.1971 37.1321 45.6834 39.5168 46.0418C39.5168 46.0418 39.5168 46.0122 39.5168 45.9996C39.7187 44.9898 40.0747 44.0171 40.5724 43.1156C38.0233 42.64 35.5147 41.968 33.0691 41.1057C33.8069 37.64 34.9595 34.2758 36.502 31.0858C39.3526 31.8094 42.2551 32.3105 45.1834 32.5847C46.1714 32.6861 47.1679 32.7621 48.1391 32.8043C48.2517 34.5102 48.3643 36.2175 48.4769 37.9262C48.7716 37.8972 49.0675 37.8831 49.3636 37.884C49.6254 37.884 49.883 37.884 50.1448 37.9177L50.4741 32.8508C54.5245 32.8641 58.5572 32.317 62.4575 31.2251C64.2033 34.8904 65.4501 38.773 66.1649 42.7694C63.6946 43.3714 61.1842 43.7948 58.6531 44.0361C58.9161 44.6561 59.1156 45.3013 59.2485 45.9616C61.6829 45.5124 64.0818 44.8887 66.4267 44.0952C66.7754 46.2676 67.0136 48.4562 67.1403 50.6527C67.2389 48.3913 67.2149 46.1261 67.0685 43.8672C71.2025 42.4152 75.0953 40.3514 78.617 37.7446C80.6481 41.7621 81.8229 46.1576 82.0668 50.6527C82.235 45.9727 81.3895 41.3116 79.5882 36.9888V36.9381C74.6774 25.2038 63.1205 16.8349 49.7521 16.0537H49.2285C30.9705 17.0291 16.3523 32.23 16.8801 50.6527C17.0798 46.3785 18.1336 42.1876 19.9794 38.3273C22.1202 40.8988 26.5707 42.9636 31.8277 44.4119ZM78.5536 37.6179C74.9765 39.8612 71.0717 41.5337 66.9798 42.5751C66.6734 38.4865 65.9013 34.4462 64.6786 30.5326C66.7896 29.7981 68.8268 28.8665 70.7632 27.75C73.9822 30.4964 76.6293 33.8494 78.5536 37.6179ZM70.6492 27.6613C68.6459 28.5698 66.5622 29.2894 64.4252 29.8106C63.4777 26.9262 62.0502 24.2224 60.2027 21.8132C64.0289 23.072 67.5759 25.0577 70.6492 27.6613ZM51.3144 20.4071C56.259 21.2136 59.8607 26.1455 62.0311 30.3173C58.268 30.9758 54.4335 31.1264 50.6304 30.7649C50.8668 27.3109 51.0977 23.8583 51.3229 20.4071H51.3144ZM47.358 20.4493C47.5775 23.7851 47.7957 27.1194 48.0124 30.4524C44.6782 29.9882 41.4091 29.138 38.2712 27.9189C40.4331 24.5071 43.469 21.2052 47.3664 20.4493H47.358ZM38.6807 21.8596C37.4874 23.3866 36.4836 25.0525 35.6912 26.821C34.4932 26.3212 33.4023 25.5959 32.4779 24.6845C34.4402 23.5212 36.5228 22.574 38.6892 21.8596H38.6807ZM28.969 27.1166C30.1513 28.548 32.1106 29.6121 34.3147 30.3975C33.2374 33.7666 32.5087 37.2373 32.1401 40.7552C28.4111 39.4023 24.987 37.3243 22.0653 34.6411C23.9477 31.7825 26.274 29.2425 28.9564 27.1166H28.969ZM20.4438 37.449C20.3917 37.7754 20.2448 38.0793 20.0216 38.3231C20.1356 38.0191 20.2792 37.7404 20.4312 37.449H20.4438Z" fill="#179BD7"/>
<path d="M43.8872 46.2993C43.6692 47.3917 43.78 48.5242 44.2056 49.5536C44.6312 50.583 45.3524 51.4631 46.2782 52.0827C47.2039 52.7023 48.2925 53.0335 49.4064 53.0344C50.5204 53.0353 51.6096 52.7059 52.5363 52.0879C53.4631 51.4699 54.1858 50.5909 54.613 49.5622C55.0403 48.5335 55.153 47.4012 54.9368 46.3084C54.7206 45.2157 54.1853 44.2116 53.3985 43.423C52.6117 42.6345 51.6088 42.0969 50.5165 41.8783C49.0513 41.5862 47.5299 41.8878 46.2869 42.7167C45.0438 43.5457 44.1807 44.8343 43.8872 46.2993Z" fill="#179BD7"/>
<path d="M61.4448 54.7821C58.772 53.5154 54.8915 56.1375 52.282 56.6695C48.8069 57.3789 45.5936 55.825 42.8617 53.794C41.0798 52.4724 36.4604 48.423 34.1169 50.5216C31.4398 52.92 36.625 57.5816 37.9509 59.4733C40.2229 62.6446 42.1642 66.0403 43.7442 69.6072C44.7491 71.9465 45.032 74.4124 46.2777 76.4392C46.774 77.267 47.4334 77.9853 48.2158 78.5504C50.403 80.1423 53.4347 80.5055 54.4608 77.4526C55.2166 75.1936 54.2666 72.7319 54.4608 70.4264C54.7165 67.1633 56.1127 64.0943 58.4046 61.7576C60.026 60.1573 64.7383 57.1256 61.4448 54.7821Z" fill="#179BD7"/>
<path d="M24.8104 21.9737C25.7942 21.2516 25.9631 20.3776 25.334 19.4402L22.336 14.9517C21.8842 15.2515 21.6562 15.4077 21.2128 15.7244L24.3713 20.1875C24.4286 20.2581 24.4711 20.3396 24.496 20.427C24.5209 20.5145 24.5278 20.6061 24.5162 20.6963C24.5047 20.7865 24.4749 20.8735 24.4288 20.9518C24.3826 21.0302 24.321 21.0983 24.2477 21.1522C24.1744 21.206 24.0909 21.2444 24.0023 21.265C23.9138 21.2856 23.8219 21.288 23.7324 21.272C23.6429 21.256 23.5575 21.222 23.4815 21.1721C23.4055 21.1221 23.3405 21.0572 23.2903 20.9814L19.9799 16.6153C19.5154 16.9658 19.2874 17.1431 18.8271 17.5105L22.2051 21.733C22.9356 22.6112 23.8308 22.7084 24.8104 21.9737Z" fill="#179BD7"/>
<path d="M29.8391 18.7134L27.4154 14.1827C28.9861 15.6732 29.742 16.4417 31.1861 18.0209C31.6336 17.8013 31.8617 17.6958 32.3135 17.4889L29.3577 11.0327C28.8975 11.2396 28.6695 11.3452 28.2177 11.569C28.9608 13.0933 29.3282 13.8575 30.0713 15.3692C28.851 14.0729 28.2219 13.4395 26.9171 12.2066C26.288 12.5359 25.9713 12.7048 25.3506 13.051L28.8553 19.2159C29.2691 19.0174 29.4548 18.9203 29.8391 18.7134Z" fill="#179BD7"/>
<path d="M36.2743 15.9225L33.9942 9.20459C33.4664 9.38616 33.2003 9.47905 32.6768 9.67328C33.6606 12.3334 34.1546 13.6635 35.1427 16.3237C35.6029 16.1548 35.8183 16.0619 36.2743 15.9225Z" fill="#179BD7"/>
<path d="M41.7546 14.4614C41.6659 11.5859 41.6617 10.146 41.725 7.25781C41.2268 7.34226 40.9734 7.3887 40.4583 7.48582C40.4836 9.83774 40.5216 11.0116 40.6441 13.3509C39.7996 11.1721 39.3351 10.0869 38.385 7.9334C37.8403 8.0643 37.5659 8.13186 37.0254 8.27965C38.2921 10.8765 38.8875 12.1897 40.0022 14.8371C40.7116 14.6725 41.0579 14.5965 41.7546 14.4614Z" fill="#179BD7"/>
<path d="M48.8187 13.6765C48.8187 13.2542 48.8187 13.0684 48.7892 12.6631C47.9447 12.6884 47.5224 12.7095 46.6779 12.7729C46.6146 11.9284 46.5808 11.5314 46.5175 10.6996C47.2142 10.6489 47.5646 10.6278 48.2613 10.6025C48.2613 10.1803 48.2614 9.99445 48.2234 9.58909C47.5098 9.61865 47.1551 9.63554 46.4415 9.69043L46.2937 7.72276C47.2268 7.65098 47.6955 7.62566 48.6287 7.60032C48.6287 7.17807 48.6287 6.99227 48.6034 6.58691C47.0917 6.62914 46.3401 6.67982 44.8369 6.83183C45.1325 9.65667 45.2592 11.0543 45.5716 13.8876C46.8806 13.7567 47.5266 13.7145 48.8187 13.6765Z" fill="#179BD7"/>
<path d="M53.0883 10.8768L53.5106 10.9064C54.0849 10.9528 54.3171 11.2231 54.2538 11.8776L54.1482 12.9881C54.0862 13.2761 54.0862 13.5741 54.1482 13.8621C54.6296 13.9128 54.8703 13.9381 55.3516 13.9973C55.2788 13.7128 55.2701 13.4157 55.3263 13.1274C55.3812 12.7052 55.4107 12.4772 55.4614 12.0422C55.5543 11.3075 55.4149 10.746 54.8027 10.4462C55.0916 10.3626 55.3459 10.188 55.5277 9.94837C55.7095 9.70875 55.8092 9.41684 55.8119 9.11607C55.8414 8.89227 55.8541 8.78249 55.8794 8.56292C56.0145 7.47352 55.4572 6.84859 54.0426 6.73458C53.1981 6.66702 52.7759 6.64169 51.9567 6.60791C51.8469 9.4412 51.7878 10.86 51.6738 13.6932C52.151 13.7144 52.3874 13.727 52.8603 13.7566C52.9701 12.6038 53.0123 12.0296 53.0883 10.8768ZM53.3037 7.69309L53.954 7.73953C54.4353 7.77753 54.6211 8.02244 54.5747 8.52913C54.5451 8.80782 54.5325 8.95139 54.5071 9.22163C54.4522 9.78744 54.144 9.93944 53.6626 9.90144L53.1559 9.86768L53.3037 7.69309Z" fill="#179BD7"/>
<path d="M59.696 14.8541C60.8361 15.1202 61.5919 14.6684 61.896 13.5874C62.4364 11.6324 60.0381 10.7583 60.3505 9.33113C60.3914 9.15755 60.4996 9.00731 60.6512 8.91347C60.8028 8.81963 60.9856 8.78989 61.1591 8.83077C61.3327 8.87164 61.4829 8.97981 61.5768 9.13145C61.6706 9.28309 61.7004 9.46578 61.6595 9.63936L61.5877 9.92229C62.0775 10.0447 62.3224 10.1081 62.8122 10.2432C62.8122 10.1587 62.846 10.1165 62.8714 10.0278C63.1754 8.93423 62.6771 8.11083 61.3597 7.80259C60.0423 7.49435 59.2485 8.01795 59.0205 9.13269C58.6404 11.1215 61.0303 11.9237 60.6757 13.3552C60.5574 13.8492 60.2534 13.9674 59.8987 13.8788C59.544 13.7901 59.3202 13.562 59.43 13.068L59.5356 12.574C59.0753 12.4727 58.8431 12.4262 58.3786 12.3375C58.3448 12.5107 58.328 12.5951 58.2984 12.7598C58.0831 13.8492 58.5602 14.5881 59.696 14.8541Z" fill="#179BD7"/>
<path d="M67.837 9.86353C67.3134 9.66085 67.0516 9.56372 66.5238 9.37793L64.1719 16.0621C64.6237 16.2226 64.8517 16.3028 65.2993 16.4844C66.3169 13.8369 66.8236 12.511 67.837 9.86353Z" fill="#179BD7"/>
<path d="M70.0373 18.6376L72.8833 13.2666C73.3984 13.541 73.6518 13.6888 74.15 13.9717L74.661 13.1061C73.3976 12.3728 72.0967 11.7062 70.7636 11.1089L70.3414 12.0294C70.8649 12.2701 71.1267 12.3925 71.6461 12.6501C70.5694 14.8331 70.0331 15.9225 68.9521 18.1013C69.3828 18.2998 69.6066 18.4095 70.0373 18.6376Z" fill="#179BD7"/>
<path d="M75.4795 22.0789C76.0411 21.3273 76.324 20.9473 76.8814 20.1915C78.545 19.0683 79.4149 18.5278 81.1672 17.5102C80.7449 17.1597 80.5085 16.9908 80.0651 16.6657C78.9335 17.43 78.3762 17.8227 77.2825 18.6292C77.7048 17.3371 77.9032 16.6868 78.2748 15.3694C77.7765 15.0274 77.5232 14.8627 77.0081 14.5249C76.5858 16.5137 76.3494 17.4806 75.8047 19.4314L74.4619 21.3569C74.8715 21.6398 75.0826 21.7834 75.4795 22.0789Z" fill="#179BD7"/>
</svg>
