<svg width="100" height="89" viewBox="0 0 100 89" fill="none" xmlns="http://www.w3.org/2000/svg">
<path d="M12.2422 74.6827L10.7016 76.0808L3.79736 68.499L0 71.8433L6.90428 74.4324L8.5872 81.587L17.9425 73.345L16.2164 71.3988C14.8557 72.4229 13.531 73.5176 12.2422 74.6827Z" fill="#179BD7"/>
<path d="M74.9204 82.4546C73.9926 78.9032 72.6463 77.4835 69.3106 74.5708C70.1261 75.9596 70.6448 77.5024 70.8339 79.1017L70.3592 79.1319C70.3592 79.1319 57.9747 79.132 50.4102 88.4398C54.2426 85.6653 58.6798 83.8416 63.3557 83.1192C71.2654 81.8721 74.9204 82.4546 74.9204 82.4546Z" fill="#179BD7"/>
<path d="M96.1812 68.499L89.2769 76.0808L87.758 74.6827C86.4634 73.5176 85.1689 72.4172 83.7837 71.3816L82.0576 73.3277L91.4129 81.5697L93.0958 74.4151L100 71.826L96.1812 68.499Z" fill="#179BD7"/>
<path d="M28.152 79.1319L27.6773 79.1017C27.8664 77.5024 28.3851 75.9596 29.2006 74.5708C25.8563 77.4835 24.51 78.886 23.5908 82.4546C23.5908 82.4546 27.2458 81.8721 35.1426 83.1192C39.8188 83.8403 44.2562 85.6641 48.0881 88.4398C40.5365 79.132 28.152 79.1319 28.152 79.1319Z" fill="#179BD7"/>
<path d="M55.6096 50.319C55.6398 49.9695 55.6571 49.7926 55.6829 49.456C55.739 48.8173 55.506 48.5153 54.9148 48.4721L54.1122 48.416C54.0475 49.5164 54.013 50.0687 53.9482 51.1691L54.5739 51.2079C55.1694 51.2209 55.5492 51.0224 55.6096 50.319Z" fill="#179BD7"/>
<path d="M89.1425 73.1424L97.7341 63.6964C84.6756 51.8124 67.6539 45.2266 49.9974 45.2266C32.3409 45.2266 15.3192 51.8124 2.26074 63.6964C5.13753 66.8408 8.00137 69.988 10.8523 73.1381C21.562 63.3954 35.5201 57.9969 49.9982 57.9977C64.4764 57.9985 78.4339 63.3986 89.1425 73.1424ZM82.4368 61.9229C82.9718 59.446 83.2005 58.1946 83.5932 55.6659C84.2319 56.0241 84.5512 56.2053 85.1855 56.5807C84.8187 58.2593 84.6159 59.0965 84.1887 60.7535C85.4833 59.6272 86.1392 59.0792 87.4812 57.9961C88.0465 58.3629 88.3442 58.5484 88.8923 58.9282C86.7994 60.4083 85.781 61.1764 83.809 62.7687C83.1747 63.7741 82.8553 64.2747 82.2167 65.2801C81.6989 64.9521 81.4356 64.7882 80.9221 64.4775L82.4368 61.9229ZM75.2434 53.1113L75.718 51.9246C77.703 52.7186 78.6869 53.1545 80.6201 54.1081L80.0505 55.256C79.4118 54.9409 79.0882 54.7856 78.4409 54.4879C77.1463 57.2798 76.5077 58.6779 75.2218 61.4741C74.6737 61.2195 74.3976 61.0944 73.8409 60.857L76.8831 53.7931C76.2229 53.5126 75.8949 53.3745 75.2434 53.1113ZM70.4362 50.0562C71.0922 50.259 71.4201 50.3625 72.0717 50.5826L69.2021 59.0878C68.6325 58.8937 68.3391 58.803 67.7781 58.6261L70.4362 50.0562ZM60.3689 54.6605L60.4596 54.1167C61.0378 54.216 61.3226 54.2678 61.9051 54.3757C61.8577 54.6302 61.8318 54.7554 61.7843 55.0057C61.6635 55.6357 61.9181 55.9205 62.3884 56.0154C62.8588 56.1104 63.2083 55.9507 63.3464 55.325C63.7391 53.5256 60.7573 52.5978 61.1888 50.0691C61.4261 48.6537 62.4057 47.9719 64.0368 48.3085C65.668 48.6451 66.3023 49.6592 65.9614 51.053C65.9355 51.1609 65.9226 51.2169 65.8924 51.3248C65.2882 51.1781 64.9819 51.1048 64.3734 50.971L64.4554 50.6085C64.5935 49.9828 64.3475 49.6807 63.8211 49.5729C63.2946 49.465 62.958 49.6462 62.8329 50.2762C62.4791 52.0843 65.4738 53.0984 64.8653 55.5882C64.5244 56.982 63.5967 57.5861 62.1684 57.3143C60.74 57.0424 60.1402 56.0758 60.3603 54.6605H60.3689ZM52.498 47.0269C53.5251 47.0657 54.0386 47.0916 55.0613 47.165C56.8219 47.2945 57.4993 48.0712 57.3483 49.4434C57.3181 49.7239 57.3008 49.8749 57.2706 50.1468C57.1714 51.0616 56.7701 51.6226 56.0408 51.8513C56.8046 52.2181 56.9815 52.9258 56.9038 53.8535L56.7528 55.2301C56.6867 55.5954 56.7 55.9707 56.7917 56.3304C56.1918 56.2657 55.8941 56.2355 55.2943 56.1837C55.2019 55.8197 55.1872 55.4404 55.2511 55.0704L55.372 53.668C55.441 52.8395 55.1519 52.5029 54.4399 52.4511L53.9005 52.4166C53.8142 53.8751 53.771 54.6044 53.6804 56.0629C53.0892 56.0284 52.7958 56.0154 52.2046 55.9938C52.2995 52.4079 52.3729 50.6128 52.4894 47.0269H52.498ZM48.3555 47.0053L48.39 48.2999C47.2378 48.3301 46.6639 48.356 45.5075 48.4337C45.5765 49.4305 45.611 49.9267 45.6757 50.9235C46.5388 50.8674 47.0005 50.8458 47.8808 50.8156L47.924 52.1102C47.0609 52.1361 46.6294 52.1577 45.7664 52.2181C45.8354 53.2667 45.8743 53.7888 45.9433 54.8374C46.9833 54.7683 47.5054 54.7468 48.5324 54.7209C48.5324 55.2301 48.5324 55.489 48.5669 56.0154C46.953 56.0586 46.1461 56.106 44.5365 56.2528C44.2086 52.6798 44.0403 50.8933 43.7123 47.316C45.5679 47.1046 46.4956 47.0528 48.3468 47.0053H48.3555ZM35.7638 48.4768C36.8814 51.2342 37.4122 52.6194 38.4219 55.407C38.327 52.4425 38.3097 50.958 38.3227 47.9849C38.9441 47.8813 39.2505 47.8295 39.8718 47.7389C39.7381 51.3852 39.7122 53.2106 39.7553 56.8439C38.8923 56.995 38.4608 57.077 37.5977 57.2755C36.3032 53.888 35.5825 52.2051 34.0981 48.8652C34.7454 48.6969 35.082 48.6192 35.7552 48.4768H35.7638ZM30.2965 49.8879C31.3235 53.34 31.837 55.0445 32.8597 58.4837C32.2901 58.652 31.9966 58.7426 31.4357 58.9152C30.3223 55.4976 29.7657 53.7715 28.6394 50.3755C29.3126 50.164 29.6405 50.0605 30.2965 49.8879ZM21.4892 53.1804C23.0254 54.8417 23.7719 55.6875 25.2132 57.4092L23.1203 52.464C23.6899 52.2267 23.9834 52.1059 24.5443 51.8815L27.8584 60.2184C27.2845 60.4471 26.9953 60.5636 26.4257 60.8096C24.6997 58.7124 23.8366 57.6854 21.9725 55.6832C23.0642 58.0392 23.6122 59.2173 24.7083 61.5734C24.2164 61.8021 23.9704 61.9229 23.4785 62.1646L19.5171 54.1167C20.3025 53.7068 20.6952 53.5212 21.4892 53.1588V53.1804ZM12.6733 57.9573L16.4145 63.7784C16.4663 63.8798 16.5385 63.9693 16.6267 64.0414C16.7148 64.1135 16.8169 64.1665 16.9265 64.1972C17.0361 64.2278 17.1509 64.2355 17.2636 64.2196C17.3763 64.2037 17.4845 64.1646 17.5814 64.1048C17.6783 64.045 17.7617 63.9658 17.8264 63.8721C17.8912 63.7785 17.9358 63.6725 17.9575 63.5607C17.9793 63.449 17.9776 63.334 17.9527 63.2229C17.9277 63.1118 17.8801 63.0071 17.8126 62.9154L14.2267 56.995C14.7963 56.6498 15.0898 56.4815 15.6594 56.1319L19.0554 62.0567C19.7717 63.3038 19.4869 64.3912 18.2226 65.1895C16.9582 65.9878 15.8406 65.7634 15.0337 64.5767L11.2061 58.9497C11.8102 58.5182 12.0907 58.3413 12.6733 57.9573Z" fill="#179BD7"/>
<path d="M12.3971 53.5729C13.1263 53.1414 13.8599 52.7099 14.6021 52.2784C12.5395 45.7366 12.7725 38.1462 15.3702 30.8276C18.913 20.8164 16.6648 14.499 15.5515 12.2465L14.4252 9.99394L16.6864 8.89358C19.749 7.39685 22.9109 6.11221 26.1496 5.04875L27.7677 4.51798L28.8552 5.81253C29.7292 6.87751 30.8608 7.70155 32.1426 8.20646C33.4244 8.71138 34.814 8.88043 36.1795 8.69758C37.545 8.51474 38.8412 7.98606 39.945 7.1617C41.0489 6.33733 41.9238 5.24462 42.4868 3.98722L43.1514 2.52006H55.4237L56.0926 3.98722C56.6554 5.24671 57.5313 6.34109 58.637 7.16606C59.7427 7.99102 61.0412 8.51909 62.4088 8.69994C63.7764 8.88079 65.1675 8.70839 66.4496 8.19917C67.7317 7.68995 68.862 6.86087 69.7328 5.79096L70.816 4.47052C73.1462 5.22999 75.4548 6.05418 77.7202 6.97332C79.921 7.86656 82.0009 9.02303 84.193 9.94216C83.8176 10.693 83.4335 11.4482 83.0581 12.2033C81.9232 14.4515 79.6664 20.7733 83.2264 30.819C85.7335 37.8916 86.0356 45.2231 84.1887 51.6095C84.9395 52.0065 85.6861 52.4251 86.4283 52.848C88.5859 45.8358 88.3313 37.7449 85.5652 29.9775C82.3289 20.838 84.2707 15.28 85.2718 13.3166C85.2718 13.3166 87.3172 9.25173 87.4682 8.9583C79.3773 4.66901 73.5388 2.56753 69.9874 1.54483H69.9616L67.804 4.1814C67.2023 4.92297 66.4205 5.49786 65.5333 5.85109C64.646 6.20433 63.683 6.32412 62.7363 6.19901C61.7896 6.07391 60.8908 5.70808 60.1257 5.13651C59.3607 4.56494 58.7551 3.80672 58.3667 2.93432L57.0376 0H41.5418L40.2127 2.93432C39.824 3.80143 39.2214 4.5556 38.4614 5.12606C37.7015 5.69653 36.809 6.06458 35.8679 6.19571C34.9267 6.32683 33.9676 6.21672 33.0807 5.87572C32.1937 5.53471 31.4079 4.97398 30.797 4.24613L28.6394 1.61819L25.3987 2.68403C22.0501 3.78166 18.7815 5.1096 15.6162 6.65832L11.0637 8.89358L13.3162 13.3986C14.3001 15.3663 16.2376 20.92 13.0142 30.0293C10.1661 38.034 9.9849 46.4011 12.3971 53.5729Z" fill="#179BD7"/>
<path d="M49.2927 75.6966C49.308 75.717 49.3253 75.7358 49.3445 75.7527V75.6405C50.0996 74.8206 55.5324 69.3748 67.8997 65.5775C69.042 65.2292 70.1511 64.7801 71.2138 64.2355C64.3514 61.4385 57.0034 60.0268 49.5931 60.0816C42.1827 60.1364 34.8565 61.6567 28.0361 64.5548C28.8978 64.956 29.7859 65.2977 30.6943 65.5775C43.0529 69.3748 48.4858 74.8206 49.2495 75.6405V75.7527L49.2927 75.6966Z" fill="#179BD7"/>
<path d="M73.5174 83.4297C73.7828 84.062 73.9291 84.7379 73.949 85.4233C71.6964 85.1169 70.4321 84.9918 69.6338 84.9616C65.7113 84.8106 59.847 85.1644 55.4541 87.9434C55.4541 87.9434 63.3164 86.364 70.6306 87.5119L71.1398 87.5938L72.0805 87.7535C73.0945 87.9304 73.9231 88.0944 74.6049 88.2411C75.4981 88.4267 76.5035 88.6726 77.5521 88.9186C76.7797 86.7302 75.3756 84.82 73.5174 83.4297Z" fill="#179BD7"/>
<path d="M28.8987 84.9616C28.1004 85.0047 26.8361 85.1169 24.5835 85.4233C24.6034 84.7379 24.7497 84.062 25.0151 83.4297C23.1629 84.8266 21.7663 86.7412 21.002 88.9315C22.0505 88.6683 23.056 88.4396 23.9492 88.2541C24.631 88.1073 25.4595 87.9434 26.4693 87.7665L27.4143 87.6068L27.9235 87.5248C35.2593 86.364 43.1 87.9563 43.1 87.9563C38.6855 85.1644 32.8212 84.8106 28.8987 84.9616Z" fill="#179BD7"/>
<path d="M69.3581 70.3547C71.9557 69.5676 74.4094 68.3669 76.6249 66.7989C75.7619 66.3459 74.929 65.91 74.066 65.5044C72.3669 66.5596 70.5377 67.3893 68.6246 67.9727C58.6997 71.0149 53.5948 75.0711 51.8428 76.685L49.4134 79.1015L46.738 76.6936C44.9688 75.0711 39.8121 71.0019 29.9519 67.9727C28.2775 67.4595 26.6664 66.7588 25.1492 65.8841C24.2861 66.3157 23.4231 66.7472 22.5859 67.2348C24.6329 68.5934 26.8673 69.6459 29.2184 70.359C38.5952 73.2415 43.4153 77.0389 45.068 78.5578L49.4997 82.5537L53.5689 78.5017C55.2216 76.9785 60.0028 73.2329 69.3581 70.3547Z" fill="#179BD7"/>
<path d="M61.0039 43.9802C68.2617 45.0816 75.3116 47.2725 81.9152 50.4789C83.4428 44.7095 83.1278 38.0814 80.8537 31.6819C77.0175 20.8508 79.4211 13.8559 80.8062 11.1029C78.4855 9.96656 76.1042 8.95818 73.6732 8.08223C73.6344 8.15128 73.6085 8.22463 73.5654 8.29367L73.6517 8.07361C72.9914 7.83627 72.3269 7.6162 71.6624 7.39612C70.5217 8.79433 69.0424 9.8776 67.3651 10.543C65.6878 11.2083 63.8682 11.4336 62.0792 11.1975C60.2903 10.9614 58.5914 10.2717 57.1442 9.19399C55.6969 8.11626 54.5493 6.68631 53.8105 5.04004H44.7486C44.0103 6.68334 42.8649 8.1111 41.4208 9.18826C39.9768 10.2654 38.2818 10.9564 36.4962 11.1957C34.7106 11.435 32.8935 11.2149 31.2167 10.556C29.54 9.89721 28.059 8.82149 26.914 7.43064C23.784 8.45667 20.7287 9.69809 17.7701 11.146C19.1639 13.9336 21.52 20.9113 17.7097 31.6819C15.3536 38.3144 15.1206 45.2057 16.8467 51.1002C23.6121 47.6482 30.8761 45.2763 38.3751 44.0708C31.9235 40.3515 26.4435 35.1584 22.383 28.9159C26.8708 31.1835 31.9902 31.878 36.9199 30.8882C41.8496 29.8983 46.3041 27.2814 49.5687 23.4572C46.8979 29.6743 46.1087 36.5381 47.2989 43.1992C48.1921 43.1646 49.0897 43.1431 49.9872 43.1431C50.6172 43.1431 51.2473 43.1431 51.8773 43.1733C53.0668 36.5207 52.2776 29.6654 49.6075 23.4572C52.8721 27.2814 57.3265 29.8983 62.2562 30.8882C67.186 31.878 72.3053 31.1835 76.7931 28.9159C72.777 35.1001 67.3698 40.2589 61.0039 43.9802ZM36.6447 26.3527C35.5719 26.5173 34.4745 26.3599 33.4912 25.9005C32.5079 25.4411 31.683 24.7002 31.121 23.7718C30.559 22.8433 30.285 21.769 30.3339 20.6848C30.3827 19.6005 30.7521 18.5552 31.3953 17.681C32.0386 16.8068 32.9267 16.1432 33.9473 15.774C34.9679 15.4048 36.0751 15.3468 37.1287 15.6071C38.1823 15.8675 39.135 16.4347 39.8662 17.2367C40.5973 18.0388 41.0741 19.0398 41.236 20.113C41.3432 20.8253 41.309 21.5517 41.1354 22.2508C40.9618 22.9499 40.6522 23.608 40.2242 24.1874C39.7963 24.7669 39.2583 25.2563 38.6412 25.6278C38.0241 25.9994 37.3398 26.2457 36.6274 26.3527H36.6447ZM68.8273 21.7441C68.6667 22.817 68.1915 23.8183 67.4618 24.6211C66.7321 25.424 65.7807 25.9924 64.7279 26.2545C63.6751 26.5165 62.5683 26.4605 61.5474 26.0934C60.5264 25.7263 59.6373 25.0647 58.9925 24.1922C58.3476 23.3197 57.976 22.2756 57.9247 21.1919C57.8733 20.1082 58.1445 19.0336 58.704 18.1041C59.2634 17.1745 60.086 16.4318 61.0676 15.9698C62.0492 15.5078 63.1458 15.3473 64.2187 15.5087C65.6528 15.73 66.9409 16.5103 67.8013 17.6788C68.6617 18.8473 69.0244 20.3089 68.81 21.7441H68.8273Z" fill="#179BD7"/>
</svg>
