<svg width="539" height="535" viewBox="0 0 539 535" fill="none" xmlns="http://www.w3.org/2000/svg">
<circle cx="268.786" cy="267.871" r="264.129" stroke="url(#paint0_linear_1142_13913)" stroke-width="2"/>
<circle cx="4.57118" cy="253.244" r="4.57118" fill="#FD1A5A"/>
<circle cx="15.542" cy="344.667" r="4.57118" fill="#179BD7"/>
<circle cx="67.6535" cy="438.834" r="4.57118" fill="#FD1A5A"/>
<circle cx="50.283" cy="118.851" r="4.57118" fill="#179BD7"/>
<circle cx="85.9382" cy="76.7959" r="4.57118" fill="#FD1A5A"/>
<circle cx="135.307" cy="40.2264" r="4.57118" fill="#179BD7"/>
<circle cx="200.218" cy="12.7993" r="4.57118" fill="#4958E3"/>
<circle cx="289.813" cy="4.57118" r="4.57118" fill="#179BD7"/>
<circle cx="340.096" cy="13.7136" r="4.57118" fill="#179BD7"/>
<circle cx="410.492" cy="44.7976" r="4.57118" fill="#FD1A5A"/>
<circle cx="457.118" cy="83.1956" r="4.57118" fill="#179BD7"/>
<circle cx="517.458" cy="179.19" r="4.57118" fill="#179BD7"/>
<circle cx="509.23" cy="377.58" r="4.57118" fill="#179BD7"/>
<circle cx="533.528" cy="286.571" r="4.57118" fill="#179BD7"/>
<circle cx="479.06" cy="427.863" r="4.57118" fill="#FD1A5A"/>
<circle cx="416.528" cy="487.571" r="4.57118" fill="#FD1A5A"/>
<circle cx="303.528" cy="529.571" r="4.57118" fill="#179BD7"/>
<circle cx="166.528" cy="513.571" r="4.57118" fill="#FD1A5A"/>
<circle cx="269" cy="267" r="222" stroke="#7B7E86" stroke-dasharray="2 2"/>
<circle cx="269" cy="267" r="197" fill="#F7F7F7"/>
<path d="M284.628 335.374L322.947 350.765L370.383 232.648L337.991 219.643C336.418 219.012 334.66 219.032 333.102 219.697C331.544 220.363 330.314 221.62 329.682 223.191L284.628 335.374Z" fill="#F4A640"/>
<path d="M280.555 333.028L353.579 345.696L371.39 243.023L298.366 230.356L280.555 333.028Z" fill="#ADCFD8"/>
<path d="M316.8 242.411L349.564 248.218L349.695 247.482L316.93 241.676L316.8 242.411Z" fill="#55769F"/>
<path d="M310.246 239.326L356.776 247.573L356.907 246.837L310.376 238.591L310.246 239.326Z" fill="#55769F"/>
<path d="M303.586 248.038L360.039 258.042L360.169 257.307L303.716 247.302L303.586 248.038Z" fill="#55769F"/>
<path d="M302.958 251.575L359.411 261.58L359.541 260.845L303.088 250.84L302.958 251.575Z" fill="#55769F"/>
<path d="M301.705 258.65L358.157 268.655L358.288 267.92L301.835 257.915L301.705 258.65Z" fill="#55769F"/>
<path d="M301.075 262.188L357.528 272.193L357.658 271.457L301.205 261.453L301.075 262.188Z" fill="#55769F"/>
<path d="M300.703 267.906L356.889 277.652L357.016 276.92L300.83 267.174L300.703 267.906Z" fill="#55769F"/>
<path d="M297.69 281.284L354.143 291.289L354.273 290.554L297.82 280.549L297.69 281.284Z" fill="#55769F"/>
<path d="M297.04 284.953L353.493 294.958L353.623 294.223L297.17 284.218L297.04 284.953Z" fill="#55769F"/>
<path d="M296.39 288.623L352.843 298.628L352.973 297.893L296.52 287.888L296.39 288.623Z" fill="#55769F"/>
<path d="M295.738 292.291L352.191 302.296L352.321 301.561L295.869 291.556L295.738 292.291Z" fill="#55769F"/>
<path d="M295.086 295.961L351.539 305.966L351.67 305.231L295.217 295.226L295.086 295.961Z" fill="#55769F"/>
<path d="M294.437 299.629L350.89 309.634L351.02 308.899L294.567 298.894L294.437 299.629Z" fill="#55769F"/>
<path d="M293.785 303.296L350.238 313.301L350.368 312.565L293.915 302.56L293.785 303.296Z" fill="#55769F"/>
<path d="M282.299 326.579L354.361 345.538L381.018 244.218L308.956 225.259L282.299 326.579Z" fill="#DAEEF7"/>
<path d="M324.505 241.916L356.783 250.235L356.97 249.51L324.692 241.191L324.505 241.916Z" fill="#55769F"/>
<path d="M319.833 237.686L365.534 249.71L365.725 248.987L320.023 236.964L319.833 237.686Z" fill="#55769F"/>
<path d="M312.481 245.822L367.927 260.41L368.117 259.687L312.671 245.1L312.481 245.822Z" fill="#55769F"/>
<path d="M311.566 249.298L367.012 263.885L367.202 263.163L311.756 248.575L311.566 249.298Z" fill="#55769F"/>
<path d="M309.737 256.245L365.183 270.833L365.373 270.11L309.927 255.523L309.737 256.245Z" fill="#55769F"/>
<path d="M308.822 259.721L364.268 274.308L364.458 273.586L309.012 258.999L308.822 259.721Z" fill="#55769F"/>
<path d="M307.909 263.195L363.355 277.782L363.545 277.06L308.099 262.472L307.909 263.195Z" fill="#55769F"/>
<path d="M303.884 278.479L359.33 293.066L359.52 292.344L304.074 277.757L303.884 278.479Z" fill="#55769F"/>
<path d="M302.936 282.082L358.382 296.67L358.572 295.947L303.126 281.36L302.936 282.082Z" fill="#55769F"/>
<path d="M301.988 285.682L357.434 300.27L357.624 299.547L302.178 284.96L301.988 285.682Z" fill="#55769F"/>
<path d="M301.04 289.287L356.485 303.874L356.675 303.151L301.23 288.564L301.04 289.287Z" fill="#55769F"/>
<path d="M298.25 293.338L353.863 307.671L354.05 306.946L298.437 292.613L298.25 293.338Z" fill="#55769F"/>
<path d="M299.14 296.494L354.586 311.081L354.776 310.359L299.33 295.771L299.14 296.494Z" fill="#55769F"/>
<path d="M296.327 300.515L351.94 314.848L352.127 314.124L296.514 299.791L296.327 300.515Z" fill="#55769F"/>
<path d="M299.168 341.215L376.309 372.197L421.304 260.166L356.482 220.17C355.626 219.641 354.665 219.305 353.666 219.187C352.666 219.069 351.653 219.17 350.697 219.485C349.741 219.799 348.866 220.319 348.132 221.008C347.398 221.697 346.824 222.537 346.45 223.471L299.168 341.215Z" fill="#FEB546"/>
<path d="M392.02 329.457L405.997 325.369C408.458 315.197 409.935 306.534 409.935 306.534C393.071 307.214 380.092 312.375 370.11 319.714L368.044 336.318L363.585 325.17C340.018 347.651 337.26 382.343 337.26 382.343C337.26 382.343 384.696 363.783 393.74 356.134C397.231 353.18 400.442 345.111 403.067 336.316C398.344 333.784 392.02 329.457 392.02 329.457Z" fill="#FF5B7E"/>
<path d="M409.937 306.527C409.937 306.527 354.424 350.066 337.26 382.352C337.26 382.352 384.696 363.792 393.74 356.143C397.231 353.189 400.442 345.12 403.067 336.325C398.348 333.784 392.023 329.451 392.023 329.451L406 325.364C408.451 315.19 409.937 306.527 409.937 306.527Z" fill="#E03268"/>
<path d="M419.466 349.265C409.62 346.43 400.341 346.007 391.795 347.164C390.199 350.83 388.198 355.175 388.198 355.175L385.969 348.216C353.935 355.424 333.513 383.789 333.513 383.789C354.996 390.33 371.498 389.242 384.022 384.718C384.105 382.044 384.174 378.074 384.174 378.074L387.984 383.116C393.39 380.684 398.385 377.428 402.792 373.464C400.791 370.863 398.612 367.844 398.612 367.844L406.489 369.855C415.998 359.736 419.466 349.265 419.466 349.265Z" fill="#FF5B7E"/>
<path d="M384.012 384.71C384.096 382.037 384.165 378.067 384.165 378.067L387.975 383.109C393.38 380.676 398.375 377.42 402.782 373.457C400.782 370.856 398.602 367.837 398.602 367.837L406.48 369.847C415.998 359.737 419.466 349.266 419.466 349.266C381.439 355.083 333.504 383.789 333.504 383.789C354.987 390.33 371.488 389.242 384.012 384.71Z" fill="#E03268"/>
<path d="M177.105 264.297H171.829C172.749 263.676 173.836 263.347 174.946 263.353H307.109C314.022 263.353 319.627 268.321 319.627 274.451V281.51C319.627 287.641 314.022 292.608 307.109 292.608L176.425 292.569L177.105 264.297Z" fill="#E03268"/>
<path d="M308.541 281.51V274.45C308.541 268.319 302.936 263.353 296.023 263.353H298.86C305.775 263.353 311.38 268.321 311.38 274.45V281.51C311.38 287.641 305.775 292.608 298.86 292.608H296.06C302.957 292.58 308.541 287.619 308.541 281.51Z" fill="#FEB546"/>
<path d="M277.589 281.51V274.45C277.589 268.319 271.984 263.353 265.069 263.353H267.908C274.823 263.353 280.428 268.321 280.428 274.45V281.51C280.428 287.641 274.823 292.608 267.908 292.608H265.108C272.004 292.58 277.589 287.619 277.589 281.51Z" fill="#FEB546"/>
<path d="M252.136 263.379C258.748 263.379 264.108 268.13 264.108 273.993V281.958C264.108 287.819 258.748 292.572 252.136 292.572H169.863V290.799H170.201L191.117 289.044L195.352 274.333C195.352 274.333 187.192 266.208 186.66 265.999C186.129 265.789 170.207 265.153 170.207 265.153H169.869V263.381L252.136 263.379Z" fill="#FF5B7E"/>
<path d="M175.199 277.923C175.199 269.328 170.183 265.161 170.183 265.161H250.443C256.517 265.161 261.44 269.525 261.44 274.909V281.04C261.44 286.428 256.517 290.789 250.443 290.789H170.183C170.183 290.789 175.199 288.756 175.199 277.923Z" fill="#DAEEF7"/>
<g style="mix-blend-mode:multiply">
<path d="M261.448 274.909V281.04C261.448 281.83 261.34 282.616 261.128 283.377C258.421 277.507 253.232 271.859 243.356 270.034C220.297 265.791 170.188 265.161 170.188 265.161H250.449C256.524 265.161 261.448 269.525 261.448 274.909Z" fill="#DAEEF7"/>
</g>
<path d="M179.281 322.755H173.31C174.326 321.986 175.565 321.571 176.84 321.573H326.42C334.245 321.573 340.59 327.794 340.59 335.465V344.29C340.59 351.961 334.245 358.181 326.42 358.181L178.512 358.131L179.281 322.755Z" fill="#07085B"/>
<path d="M264.201 321.604C271.686 321.604 277.752 327.549 277.752 334.887V344.864C277.752 352.201 271.686 358.148 264.201 358.148H171.084V355.919H171.468L195.142 353.721L199.926 335.318C199.926 335.318 190.692 325.15 190.088 324.888C189.484 324.626 171.468 323.829 171.468 323.829H171.084V321.604H264.201Z" fill="#55769F"/>
<path d="M177.124 339.809C177.124 329.05 171.452 323.831 171.452 323.831H262.302C269.176 323.831 274.75 329.295 274.75 336.033V343.71C274.75 350.449 269.176 355.913 262.302 355.913H171.452C171.452 355.913 177.124 353.356 177.124 339.809Z" fill="#DAEEF7"/>
<g style="mix-blend-mode:multiply">
<path d="M274.741 336.036V343.712C274.741 344.699 274.619 345.682 274.378 346.639C271.315 339.289 265.442 332.212 254.263 329.934C228.165 324.621 171.452 323.833 171.452 323.833H262.302C269.169 323.833 274.741 329.297 274.741 336.036Z" fill="#DAEEF7"/>
</g>
<path d="M345.519 293.46H351.492C350.42 292.838 349.201 292.517 347.962 292.531H198.324C190.495 292.531 184.149 297.466 184.149 303.554V310.555C184.149 316.643 190.495 321.577 198.324 321.577L346.29 321.538L345.519 293.46Z" fill="#02CCC0"/>
<path d="M260.563 292.55C253.076 292.55 247.001 297.269 247.001 303.091V311.004C247.001 316.825 253.071 321.544 260.563 321.544H353.718V319.783H353.331L329.651 318.038L324.867 303.433C324.867 303.433 334.106 295.364 334.713 295.156C335.321 294.948 353.341 294.317 353.341 294.317H353.727V292.557L260.563 292.55Z" fill="#06BFAD"/>
<path d="M347.678 306.995C347.678 298.448 353.352 294.32 353.352 294.32H262.473C255.599 294.32 250.025 298.655 250.025 304.002V310.092C250.025 315.439 255.599 319.775 262.473 319.775H353.352C353.352 319.775 347.678 317.739 347.678 306.995Z" fill="#DAEEF7"/>
<g style="mix-blend-mode:multiply">
<path d="M250.022 304.002V310.092C250.025 310.881 250.151 311.664 250.393 312.414C253.457 306.582 259.332 300.966 270.514 299.16C296.623 294.945 353.359 294.33 353.359 294.33H262.473C255.597 294.33 250.022 298.655 250.022 304.002Z" fill="#DAEEF7"/>
</g>
<path opacity="0.5" d="M211.562 310.547V303.546C211.562 297.458 217.908 292.523 225.737 292.523H211.528C203.699 292.523 197.352 297.458 197.352 303.546V310.547C197.352 316.635 203.699 321.57 211.528 321.57H225.55C217.808 321.488 211.562 316.587 211.562 310.547Z" fill="#55769F"/>
<path d="M355.377 359.3H362.864C361.497 358.595 359.978 358.235 358.44 358.252H170.841C161.025 358.252 153.07 363.766 153.07 370.568V378.39C153.07 385.192 161.025 390.706 170.841 390.706L356.341 390.663L355.377 359.3Z" fill="#FEB546"/>
<path d="M248.872 358.282C239.486 358.282 231.878 363.554 231.878 370.059V378.899C231.878 385.401 239.486 390.678 248.872 390.678H365.658V388.699H365.175L335.486 386.75L329.485 370.436C329.485 370.436 341.067 361.422 341.822 361.189C342.576 360.957 365.175 360.26 365.175 360.26H365.658V358.295L248.872 358.282Z" fill="#F4A640"/>
<path d="M358.084 374.421C358.084 364.883 365.196 360.259 365.196 360.259H251.274C242.653 360.259 235.668 365.102 235.668 371.077V377.881C235.668 383.856 242.657 388.699 251.274 388.699H365.205C365.205 388.699 358.084 386.431 358.084 374.421Z" fill="#DAEEF7"/>
<g style="mix-blend-mode:multiply">
<path d="M235.655 371.077V377.88C235.656 378.767 235.81 379.647 236.11 380.481C239.952 373.966 247.317 367.69 261.336 365.672C294.067 360.962 365.192 360.264 365.192 360.264H251.274C242.644 360.258 235.655 365.102 235.655 371.077Z" fill="#DAEEF7"/>
</g>
<path d="M132.457 394.063L404.516 394.063C405.32 394.063 405.972 393.411 405.972 392.606V391.937C405.972 391.133 405.32 390.481 404.516 390.481L132.457 390.481C131.652 390.481 131 391.133 131 391.937V392.606C131 393.411 131.652 394.063 132.457 394.063Z" fill="#C4DFE8"/>
<path d="M407.641 272.529L355.117 242.487L348.02 256.55L401.763 284.983L407.641 272.529Z" fill="#F4A640"/>
<path d="M362.435 155.213C362.435 155.213 362.849 159.301 366.073 159.581C362.849 159.864 362.435 163.949 362.435 163.949C362.435 163.949 362.021 159.862 358.797 159.581C362.021 159.299 362.435 155.213 362.435 155.213Z" fill="#02CCC0"/>
<path d="M421.309 283.028C421.309 283.028 421.93 289.159 426.766 289.581C421.935 290.005 421.309 296.132 421.309 296.132C421.309 296.132 420.687 290.001 415.853 289.581C420.687 289.156 421.309 283.028 421.309 283.028Z" fill="#FF5B7E"/>
<path d="M385.261 121.562C385.261 121.562 385.818 127.003 390.108 127.379C385.814 127.75 385.261 133.197 385.261 133.197C385.261 133.197 384.703 127.756 380.415 127.379C384.709 127.003 385.261 121.562 385.261 121.562Z" fill="#FEB546"/>
<path d="M150.577 307.149C150.577 307.149 150.948 310.811 153.837 311.064C150.948 311.324 150.577 314.984 150.577 314.984C150.577 314.984 150.205 311.324 147.316 311.069C150.205 310.817 150.577 307.149 150.577 307.149Z" fill="#FEB546"/>
<path d="M386.853 204.242C386.853 204.242 387.225 207.895 390.108 208.144C387.225 208.397 386.853 212.046 386.853 212.046C386.853 212.046 386.481 208.391 383.6 208.144C386.483 207.895 386.853 204.242 386.853 204.242Z" fill="#FF5B7E"/>
<path d="M325.346 105C325.346 105 325.717 108.653 328.599 108.902C325.716 109.154 325.346 112.803 325.346 112.803C325.346 112.803 324.974 109.149 322.091 108.902C324.974 108.653 325.346 105 325.346 105Z" fill="#FF5B7E"/>
<path d="M185.523 154.851C185.523 154.851 186.008 159.633 189.778 159.962C186.005 160.293 185.52 165.073 185.52 165.073C185.52 165.073 185.035 160.293 181.263 159.962C185.038 159.633 185.523 154.851 185.523 154.851Z" fill="#FF5B7E"/>
<path d="M153.07 237.664C153.07 237.664 153.779 244.669 159.307 245.153C153.779 245.638 153.07 252.643 153.07 252.643C153.07 252.643 152.358 245.638 146.831 245.153C152.358 244.67 153.07 237.664 153.07 237.664Z" fill="#FF5B7E"/>
<path d="M322.091 174.026C322.091 174.026 322.648 179.466 326.936 179.843C322.643 180.214 322.091 185.66 322.091 185.66C322.091 185.66 321.533 180.218 317.245 179.843C321.539 179.466 322.091 174.026 322.091 174.026Z" fill="#FF5B7E"/>
<path d="M426.155 232.763C426.155 232.763 426.712 238.203 431 238.58C426.706 238.952 426.155 244.397 426.155 244.397C426.155 244.397 425.597 238.957 421.309 238.58C425.603 238.203 426.155 232.763 426.155 232.763Z" fill="#02CCC0"/>
<path d="M156.522 121.115C156.522 121.115 156.914 124.991 159.974 125.259C156.914 125.528 156.522 129.404 156.522 129.404C156.522 129.404 156.128 125.528 153.07 125.259C156.128 124.991 156.522 121.115 156.522 121.115Z" fill="#02CCC0"/>
<path d="M197.352 216.928C197.352 216.928 197.982 223.135 202.88 223.564C197.982 223.994 197.352 230.201 197.352 230.201C197.352 230.201 196.723 223.994 191.823 223.564C196.723 223.135 197.352 216.928 197.352 216.928Z" fill="#02CCC0"/>
<path d="M143.007 176.51C143.007 176.51 143.437 181.435 146.783 181.775C143.438 182.115 143.007 187.04 143.007 187.04C143.007 187.04 142.576 182.115 139.232 181.775C142.576 181.435 143.007 176.51 143.007 176.51Z" fill="#FEB546"/>
<path d="M293.323 122.104C293.323 122.104 293.756 127.042 297.11 127.384C293.766 127.725 293.323 132.664 293.323 132.664C293.323 132.664 292.89 127.72 289.546 127.378C292.89 127.036 293.323 122.104 293.323 122.104Z" fill="#FEB546"/>
<path d="M250.022 148.003L249.914 155.899L241.57 157.409L241.847 146.268L250.022 148.003Z" fill="#FFC0BB"/>
<path opacity="0.6" d="M241.719 151.397L241.847 146.268L250.022 148.887L249.973 151.273C248.138 151.953 245.037 152.373 241.719 151.397Z" fill="#FC8D84"/>
<path d="M256.799 120.469C256.799 120.469 250.384 116.812 243.341 117.524C232.5 118.618 231.164 129.296 227.222 129.468C227.222 129.468 228.123 130.468 231.146 130.068C231.146 130.068 229.355 132.983 229.659 134.832C229.659 134.832 231.874 132.099 232.857 131.651C232.857 131.651 230.562 141.372 237.516 144.577C241.648 146.479 250.25 131.819 250.25 131.819L256.799 120.469Z" fill="#07085B"/>
<path d="M252.413 142.408C252.413 142.408 252.892 148.398 256.576 149.26C255.858 148.062 255.561 146.658 255.733 145.271C255.733 145.271 258.503 149.136 261.568 146.722C261.568 146.722 256.353 143.95 257.916 140.065C259.478 136.181 252.047 140.941 252.047 140.941L252.413 142.408Z" fill="#07085B"/>
<path d="M236.197 135.57C236.667 137.056 236.089 138.555 234.897 138.93C233.704 139.306 232.368 138.414 231.898 136.935C231.428 135.456 232.006 133.949 233.198 133.572C234.391 133.195 235.725 134.091 236.197 135.57Z" fill="#F99893"/>
<path d="M235.943 143.988C235.633 143.335 235.384 142.655 235.199 141.957C234.707 140.129 234.451 138.245 234.438 136.352C234.438 135.98 234.402 135.609 234.369 135.248C234.213 133.589 234.404 131.916 234.929 130.334C235.454 128.753 236.302 127.298 237.42 126.061C238.537 124.825 239.899 123.834 241.419 123.152C242.939 122.469 244.585 122.11 246.251 122.097C247.917 122.084 249.568 122.418 251.099 123.077C252.63 123.735 254.007 124.705 255.143 125.924C256.279 127.143 257.15 128.585 257.699 130.158C258.249 131.731 258.466 133.401 258.336 135.062C259.12 134.704 259.969 134.676 260.684 135.062C262.057 135.806 262.412 137.805 261.475 139.521C260.539 141.238 258.668 142.018 257.295 141.272C257.109 141.168 256.938 141.04 256.786 140.891C255.722 146.706 250.551 150.851 244.788 150.301C242.062 150.036 239.538 148.745 237.728 146.689C237.597 146.559 237.473 146.422 237.356 146.279C236.787 145.58 236.312 144.81 235.943 143.988Z" fill="#FFC0BB"/>
<path d="M247.484 135.246C247.464 135.453 247.506 135.661 247.604 135.844C247.702 136.027 247.852 136.177 248.036 136.274C248.219 136.372 248.427 136.413 248.634 136.392C248.84 136.371 249.036 136.289 249.196 136.157C249.357 136.025 249.474 135.849 249.534 135.65C249.594 135.451 249.593 135.239 249.532 135.04C249.471 134.841 249.353 134.665 249.192 134.534C249.031 134.403 248.835 134.322 248.628 134.303C248.491 134.289 248.353 134.303 248.221 134.343C248.089 134.384 247.967 134.449 247.86 134.537C247.754 134.625 247.666 134.732 247.601 134.854C247.537 134.976 247.497 135.109 247.484 135.246Z" fill="#333333"/>
<path d="M238.454 134.975C238.434 135.182 238.476 135.39 238.574 135.573C238.673 135.756 238.823 135.906 239.006 136.003C239.19 136.101 239.398 136.142 239.604 136.121C239.811 136.1 240.007 136.018 240.167 135.886C240.327 135.754 240.445 135.578 240.505 135.379C240.564 135.18 240.564 134.968 240.503 134.769C240.442 134.57 240.324 134.394 240.163 134.263C240.002 134.132 239.806 134.051 239.599 134.032C239.462 134.018 239.323 134.032 239.192 134.072C239.06 134.113 238.937 134.178 238.831 134.266C238.725 134.354 238.637 134.461 238.572 134.583C238.507 134.705 238.468 134.838 238.454 134.975Z" fill="#333333"/>
<path d="M246.421 133.065C246.924 132.907 247.438 132.789 247.959 132.712C248.447 132.642 248.942 132.642 249.429 132.712C249.915 132.779 250.387 132.92 250.83 133.13L251.006 133.204C251.064 133.23 251.116 133.267 251.174 133.295L251.517 133.481C251.748 133.609 251.959 133.767 252.216 133.895C252.085 133.649 251.932 133.415 251.759 133.197C251.573 132.982 251.365 132.788 251.136 132.619C250.668 132.266 250.116 132.039 249.535 131.961C248.956 131.879 248.365 131.939 247.814 132.136C247.278 132.321 246.798 132.641 246.421 133.065Z" fill="#07085B"/>
<path d="M242.194 132.868C241.858 132.412 241.41 132.05 240.894 131.818C240.364 131.571 239.781 131.458 239.198 131.489C238.611 131.516 238.042 131.693 237.544 132.004C237.301 132.151 237.075 132.326 236.872 132.524C236.679 132.727 236.506 132.946 236.353 133.18C236.619 133.074 236.846 132.935 237.096 132.829L237.455 132.677C237.514 132.652 237.57 132.621 237.63 132.6L237.815 132.543C238.275 132.372 238.758 132.273 239.248 132.249C239.739 132.224 240.232 132.268 240.712 132.379C241.218 132.503 241.714 132.667 242.194 132.868Z" fill="#07085B"/>
<path d="M241.713 142.288C242.183 143.833 243.757 144.889 245.511 144.714C247.265 144.539 248.606 143.205 248.77 141.598L241.713 142.288Z" fill="white"/>
<path d="M244.283 134.027C243.921 134.648 243.602 135.293 243.328 135.958C243.045 136.621 242.811 137.304 242.629 138.001C242.537 138.359 242.481 138.725 242.462 139.094C242.462 139.193 242.468 139.293 242.482 139.391C242.482 139.443 242.508 139.499 242.521 139.551C242.543 139.611 242.572 139.669 242.609 139.722L242.681 139.804L242.741 139.85C242.782 139.88 242.819 139.913 242.86 139.939C242.943 139.989 243.025 140.043 243.11 140.086C243.443 140.26 243.793 140.398 244.155 140.498C244.51 140.603 244.874 140.681 245.241 140.731C244.567 140.48 243.916 140.169 243.296 139.802C243.222 139.755 243.157 139.701 243.09 139.651L242.995 139.573L242.951 139.532C242.947 139.525 242.943 139.518 242.938 139.512C242.887 139.384 242.871 139.246 242.891 139.111C242.921 138.771 242.984 138.435 243.077 138.107C243.242 137.429 243.46 136.757 243.668 136.08C243.876 135.404 244.089 134.717 244.283 134.027Z" fill="#F99893"/>
<path d="M258.334 135.057C260.043 134.117 261.461 135.75 261.461 135.75C262.074 134.282 264.314 127.938 259.257 123.557L262.659 122.104C262.659 122.104 260.756 121.132 258.77 121.576C258.77 121.576 259.398 119.937 259.257 118.256C259.257 118.256 257.799 120.24 256.95 120.584L241.074 120.77C241.074 120.77 242.168 127.573 246.542 130.085C246.542 130.085 244.76 125.955 245.241 123.566C245.241 123.566 246.092 129.883 252.45 131.503L255.98 138.548L256.81 138.165C257.007 136.946 257.433 135.551 258.334 135.057Z" fill="#07085B"/>
<path d="M207.851 147.612C207.851 147.612 209.079 164.03 216.836 167.845C224.593 171.659 238.945 162.121 238.945 162.121L224.855 159.376C224.855 159.376 218.133 160.863 217.356 160.735C216.58 160.606 212.121 150.845 212.121 150.845L207.851 147.612Z" fill="#FFC0BB"/>
<path d="M239.631 154.63L224.851 156.339L227.049 169.136L234.287 166.745L239.631 154.63Z" fill="#E03268"/>
<path d="M229.763 191.178C229.763 191.178 224.981 233.839 225.756 248.706L234.205 249.713L243.002 200.356L244.117 200.401L249.787 250.041H257.459C257.459 250.041 258.724 200.486 254.588 186.524C250.453 172.562 229.763 191.178 229.763 191.178Z" fill="#FEB546"/>
<path d="M257.663 160.015C257.403 158.921 256.851 157.919 256.066 157.114C255.28 156.309 254.291 155.732 253.204 155.445C252.304 155.213 251.382 155.079 250.453 155.046L249.986 155.029C244.478 156.788 241.821 154.537 241.821 154.537C239.777 154.193 233.908 154.537 231.578 168.943C228.734 186.524 228.606 192.341 228.606 192.341C228.606 192.341 245.024 200.228 256.4 194.022C256.394 194.022 260.164 170.388 257.663 160.015Z" fill="#FF5B7E"/>
<path d="M232.738 251.884L232.563 258.064L228.461 261.036C228.461 261.036 226.521 258.424 226.56 258.064C226.599 257.703 226.932 250.26 226.932 250.26L232.738 251.884Z" fill="#FFC0BB"/>
<path d="M251.211 251.884L251.385 258.064L255.488 261.036C255.488 261.036 257.427 258.424 257.388 258.064C257.349 257.703 257.017 250.26 257.017 250.26L251.211 251.884Z" fill="#FFC0BB"/>
<path d="M225.514 248.15L234.402 249.211C234.461 249.217 234.517 249.235 234.568 249.265C234.619 249.294 234.663 249.333 234.698 249.38C234.733 249.427 234.757 249.481 234.77 249.538C234.784 249.595 234.785 249.655 234.774 249.712L234.172 252.846C234.151 252.953 234.09 253.048 234.002 253.112C233.914 253.175 233.804 253.203 233.696 253.188L225.371 252.038C225.268 252.025 225.173 251.974 225.104 251.895C225.036 251.816 224.999 251.715 225 251.611L225.037 248.568C225.038 248.508 225.051 248.449 225.076 248.395C225.101 248.34 225.138 248.292 225.183 248.253C225.228 248.213 225.28 248.184 225.337 248.166C225.395 248.148 225.455 248.143 225.514 248.15Z" fill="#F4A640"/>
<path d="M258.202 248.387L249.312 249.446C249.254 249.453 249.197 249.471 249.146 249.501C249.095 249.53 249.051 249.569 249.016 249.617C248.981 249.664 248.956 249.718 248.943 249.775C248.93 249.833 248.929 249.892 248.94 249.95L249.546 253.084C249.567 253.191 249.628 253.286 249.716 253.349C249.805 253.412 249.914 253.439 250.022 253.424L258.347 252.274C258.451 252.261 258.546 252.211 258.615 252.132C258.683 252.053 258.72 251.951 258.718 251.847L258.681 248.805C258.681 248.745 258.667 248.686 258.642 248.632C258.617 248.577 258.581 248.528 258.536 248.489C258.49 248.449 258.437 248.42 258.38 248.402C258.322 248.385 258.262 248.38 258.202 248.387Z" fill="#F4A640"/>
<path d="M287.237 192.361L296.744 191.698L287.237 191.035V192.361Z" fill="#EAF5F9"/>
<path d="M294.934 191.698C294.934 191.885 294.99 192.069 295.094 192.224C295.198 192.38 295.346 192.502 295.519 192.573C295.692 192.645 295.883 192.664 296.067 192.627C296.25 192.591 296.419 192.501 296.552 192.368C296.684 192.235 296.774 192.067 296.811 191.883C296.848 191.699 296.829 191.509 296.757 191.335C296.685 191.162 296.564 191.014 296.408 190.91C296.252 190.806 296.069 190.75 295.882 190.75C295.63 190.75 295.389 190.85 295.212 191.028C295.034 191.206 294.934 191.447 294.934 191.698Z" fill="#02CCC0"/>
<path d="M288.582 194.314H288.307V188.926H288.582C289.223 188.926 289.837 189.18 290.29 189.633C290.743 190.086 290.997 190.701 290.997 191.341V191.898C290.997 192.539 290.743 193.153 290.29 193.606C289.837 194.059 289.223 194.314 288.582 194.314Z" fill="#294A5C"/>
<path d="M258.889 192.361L249.384 191.698L258.889 191.035V192.361Z" fill="#294A5C"/>
<path d="M251.19 191.698C251.191 191.886 251.135 192.07 251.031 192.226C250.927 192.382 250.779 192.504 250.605 192.576C250.432 192.649 250.241 192.668 250.057 192.631C249.872 192.595 249.703 192.505 249.57 192.372C249.437 192.239 249.347 192.07 249.31 191.886C249.273 191.702 249.292 191.511 249.364 191.337C249.435 191.163 249.557 191.015 249.713 190.911C249.869 190.806 250.053 190.75 250.241 190.75C250.492 190.75 250.733 190.85 250.911 191.028C251.089 191.206 251.19 191.447 251.19 191.698Z" fill="#02CCC0"/>
<path d="M257.544 188.932H257.819V194.32H257.544C256.904 194.32 256.289 194.065 255.836 193.612C255.383 193.159 255.129 192.545 255.129 191.904V191.347C255.129 190.707 255.383 190.092 255.836 189.639C256.289 189.186 256.904 188.932 257.544 188.932Z" fill="#294A5C"/>
<path d="M287.237 192.361L296.744 191.698L287.237 191.035V192.361Z" fill="#294A5C"/>
<path d="M294.934 191.698C294.934 191.885 294.99 192.069 295.094 192.224C295.198 192.38 295.346 192.502 295.519 192.573C295.692 192.645 295.883 192.664 296.067 192.627C296.25 192.591 296.419 192.501 296.552 192.368C296.684 192.235 296.774 192.067 296.811 191.883C296.848 191.699 296.829 191.509 296.757 191.335C296.685 191.162 296.564 191.014 296.408 190.91C296.252 190.806 296.069 190.75 295.882 190.75C295.63 190.75 295.389 190.85 295.212 191.028C295.034 191.206 294.934 191.447 294.934 191.698Z" fill="#02CCC0"/>
<path d="M288.582 194.314H288.307V188.926H288.582C289.223 188.926 289.837 189.18 290.29 189.633C290.743 190.086 290.997 190.701 290.997 191.341V191.898C290.997 192.539 290.743 193.153 290.29 193.606C289.837 194.059 289.223 194.314 288.582 194.314Z" fill="#294A5C"/>
<path d="M286.759 217.562L286.236 214.418C290.409 213.721 294.233 211.659 297.107 208.554C299.982 205.45 301.744 201.479 302.119 197.265L302.403 194.052L305.578 194.335L305.294 197.545C304.857 202.463 302.8 207.096 299.445 210.719C296.091 214.342 291.629 216.749 286.759 217.562Z" fill="#294A5C"/>
<path d="M307.753 191.902C307.747 191.495 307.659 191.093 307.492 190.721C307.326 190.35 307.085 190.016 306.786 189.74V186.828C306.786 186.653 306.716 186.485 306.592 186.361C306.468 186.237 306.3 186.167 306.124 186.167C305.949 186.167 305.78 186.237 305.656 186.361C305.532 186.485 305.463 186.653 305.463 186.828V188.907C304.378 188.492 303.179 188.492 302.094 188.907V186.828C302.095 186.742 302.078 186.656 302.045 186.575C302.012 186.495 301.963 186.422 301.902 186.361C301.841 186.299 301.768 186.251 301.688 186.217C301.607 186.184 301.522 186.167 301.435 186.167C301.259 186.167 301.091 186.237 300.967 186.361C300.843 186.485 300.773 186.653 300.773 186.828V189.756C300.478 190.031 300.241 190.363 300.077 190.732C299.914 191.101 299.826 191.499 299.82 191.902C299.831 192.375 299.951 192.839 300.17 193.257C300.389 193.676 300.702 194.039 301.084 194.318C300.985 194.41 300.907 194.521 300.854 194.645C300.8 194.768 300.773 194.902 300.773 195.037C300.773 195.299 300.878 195.55 301.063 195.735C301.248 195.921 301.5 196.025 301.762 196.025H305.795C306.058 196.025 306.309 195.921 306.495 195.736C306.68 195.55 306.785 195.299 306.786 195.037C306.786 194.903 306.759 194.771 306.706 194.649C306.654 194.526 306.577 194.415 306.481 194.323C306.865 194.045 307.18 193.682 307.401 193.262C307.622 192.842 307.743 192.377 307.753 191.902Z" fill="#02CCC0"/>
<path d="M260.277 217.562L260.803 214.418C256.63 213.722 252.806 211.659 249.931 208.555C247.056 205.45 245.294 201.479 244.92 197.265L244.634 194.052L241.461 194.335L241.745 197.545C242.182 202.463 244.238 207.096 247.592 210.719C250.946 214.341 255.408 216.748 260.277 217.562Z" fill="#294A5C"/>
<path d="M239.298 191.903C239.304 191.496 239.393 191.094 239.559 190.722C239.726 190.35 239.966 190.016 240.266 189.74V186.829C240.261 186.739 240.275 186.65 240.306 186.565C240.337 186.481 240.385 186.404 240.446 186.339C240.508 186.274 240.583 186.222 240.665 186.186C240.748 186.151 240.837 186.133 240.926 186.133C241.016 186.133 241.105 186.151 241.188 186.186C241.27 186.222 241.344 186.274 241.406 186.339C241.468 186.404 241.516 186.481 241.547 186.565C241.578 186.65 241.592 186.739 241.587 186.829V188.908C242.671 188.493 243.871 188.493 244.955 188.908V186.829C244.955 186.654 245.025 186.485 245.149 186.361C245.273 186.237 245.441 186.168 245.617 186.168C245.792 186.168 245.96 186.237 246.084 186.361C246.208 186.485 246.278 186.654 246.278 186.829V189.757C246.573 190.032 246.81 190.364 246.973 190.733C247.137 191.101 247.224 191.5 247.229 191.903C247.218 192.375 247.099 192.839 246.88 193.258C246.661 193.677 246.348 194.04 245.966 194.318C246.064 194.41 246.143 194.522 246.197 194.645C246.25 194.769 246.278 194.902 246.278 195.037C246.277 195.299 246.173 195.55 245.988 195.736C245.803 195.921 245.552 196.025 245.29 196.026H241.254C240.992 196.026 240.741 195.921 240.555 195.736C240.37 195.551 240.266 195.299 240.266 195.037C240.266 194.904 240.293 194.772 240.345 194.649C240.398 194.527 240.474 194.416 240.571 194.324C240.186 194.046 239.871 193.683 239.65 193.263C239.429 192.843 239.309 192.377 239.298 191.903Z" fill="#02CCC0"/>
<path d="M280.974 242.532H277.412V262.456H280.974V242.532Z" fill="#294A5C"/>
<path d="M279.04 257.856C277.955 257.856 276.894 258.176 275.99 258.776C275.086 259.376 274.38 260.23 273.959 261.23C273.862 261.465 273.825 261.721 273.85 261.974C273.876 262.227 273.963 262.47 274.105 262.681C274.247 262.892 274.438 263.065 274.663 263.185C274.888 263.304 275.138 263.367 275.393 263.366H282.687C282.941 263.367 283.192 263.304 283.417 263.185C283.641 263.065 283.833 262.892 283.975 262.681C284.117 262.47 284.204 262.227 284.23 261.974C284.255 261.721 284.218 261.465 284.121 261.23C283.7 260.23 282.994 259.376 282.09 258.776C281.186 258.176 280.125 257.856 279.04 257.856Z" fill="#02CCC0"/>
<path d="M282.026 250.298C282.026 250.858 281.86 251.406 281.549 251.872C281.238 252.338 280.795 252.702 280.278 252.917C279.76 253.131 279.19 253.188 278.641 253.079C278.091 252.97 277.586 252.7 277.19 252.304C276.793 251.907 276.523 251.403 276.414 250.853C276.304 250.303 276.36 249.734 276.574 249.216C276.789 248.698 277.152 248.255 277.618 247.944C278.084 247.633 278.632 247.466 279.192 247.466C279.943 247.466 280.664 247.765 281.195 248.296C281.726 248.826 282.025 249.547 282.026 250.298Z" fill="#02CCC0"/>
<path d="M267.822 242.532H264.26V262.456H267.822V242.532Z" fill="#294A5C"/>
<path d="M279.811 204.383C279.638 204.374 279.474 204.299 279.355 204.173C279.235 204.047 279.168 203.88 279.168 203.706C279.168 203.533 279.235 203.365 279.355 203.239C279.474 203.113 279.638 203.038 279.811 203.029C279.811 202.85 279.74 202.678 279.613 202.551C279.486 202.424 279.314 202.353 279.135 202.353H266.889C267.068 202.712 267.098 203.127 266.971 203.508C266.844 203.888 266.572 204.203 266.213 204.383C266.392 204.383 266.565 204.455 266.691 204.582C266.818 204.708 266.889 204.88 266.889 205.06C266.889 205.239 266.818 205.411 266.691 205.538C266.565 205.665 266.392 205.736 266.213 205.736C266.213 205.915 266.284 206.087 266.411 206.214C266.538 206.341 266.71 206.412 266.889 206.412H279.142C279.322 206.412 279.494 206.341 279.62 206.214C279.747 206.087 279.818 205.915 279.818 205.736C279.639 205.736 279.467 205.665 279.34 205.538C279.213 205.411 279.142 205.239 279.142 205.06C279.142 204.88 279.213 204.708 279.34 204.582C279.467 204.455 279.639 204.383 279.818 204.383H279.811Z" fill="#294A5C"/>
<path d="M264.021 183.947L265.258 166.221L266.496 183.947H264.021Z" fill="#294A5C"/>
<path d="M279.633 183.947L280.87 166.221L282.109 183.947H279.633Z" fill="#294A5C"/>
<path d="M265.966 179.107H280.056C281.172 179.107 282.243 179.551 283.032 180.34C283.821 181.129 284.264 182.199 284.264 183.315V185.623H261.758V183.315C261.758 182.199 262.201 181.129 262.99 180.34C263.78 179.551 264.85 179.107 265.966 179.107Z" fill="#294A5C"/>
<path d="M257.293 209.266H257.806V219.299H257.293C256.099 219.299 254.953 218.824 254.109 217.98C253.264 217.135 252.79 215.99 252.79 214.795V213.77C252.79 212.575 253.264 211.43 254.109 210.585C254.953 209.741 256.099 209.266 257.293 209.266Z" fill="#294A5C"/>
<path d="M288.822 219.301H288.309V209.268H288.822C290.016 209.268 291.162 209.743 292.006 210.587C292.851 211.432 293.325 212.578 293.325 213.772V214.796C293.325 215.387 293.209 215.973 292.983 216.52C292.757 217.066 292.425 217.563 292.007 217.981C291.589 218.4 291.092 218.732 290.546 218.958C289.999 219.184 289.413 219.301 288.822 219.301Z" fill="#294A5C"/>
<path d="M284.084 181.247H262.029C259.697 181.247 257.806 183.138 257.806 185.47V198.553C257.806 200.886 259.697 202.776 262.029 202.776H284.084C286.416 202.776 288.307 200.886 288.307 198.553V185.47C288.307 183.138 286.416 181.247 284.084 181.247Z" fill="#02CCC0"/>
<path d="M265.951 189.655C265.952 190.218 265.785 190.769 265.472 191.238C265.159 191.707 264.714 192.073 264.193 192.289C263.672 192.505 263.099 192.562 262.546 192.452C261.993 192.342 261.485 192.071 261.087 191.672C260.688 191.274 260.416 190.766 260.306 190.213C260.196 189.66 260.252 189.087 260.468 188.566C260.684 188.045 261.049 187.6 261.518 187.287C261.986 186.974 262.537 186.806 263.101 186.806C263.857 186.806 264.581 187.106 265.116 187.64C265.65 188.175 265.951 188.899 265.951 189.655Z" fill="#EAF5F9"/>
<path d="M285.855 189.655C285.855 190.218 285.688 190.769 285.375 191.238C285.062 191.707 284.617 192.073 284.097 192.289C283.576 192.505 283.003 192.562 282.45 192.452C281.897 192.342 281.389 192.071 280.99 191.672C280.591 191.274 280.32 190.766 280.209 190.213C280.099 189.66 280.156 189.087 280.371 188.566C280.587 188.045 280.952 187.6 281.421 187.287C281.89 186.974 282.441 186.806 283.005 186.806C283.76 186.806 284.485 187.106 285.019 187.64C285.554 188.175 285.854 188.899 285.855 189.655Z" fill="#EAF5F9"/>
<path d="M273.058 196.837C269.985 196.837 268.437 195.327 267.67 194.05C267.415 193.62 267.211 193.161 267.062 192.683C267.011 192.52 266.998 192.347 267.024 192.178C267.051 192.009 267.115 191.849 267.214 191.709C267.312 191.569 267.441 191.453 267.591 191.371C267.741 191.289 267.908 191.243 268.078 191.236C268.326 191.225 268.569 191.297 268.771 191.44C268.973 191.583 269.121 191.789 269.193 192.025C269.295 192.356 269.438 192.673 269.62 192.967C270.297 194.047 271.449 194.595 273.043 194.595C274.637 194.595 275.789 194.037 276.465 192.967C276.647 192.673 276.791 192.356 276.892 192.025C276.964 191.789 277.113 191.583 277.314 191.44C277.516 191.297 277.76 191.225 278.007 191.236C278.178 191.243 278.344 191.29 278.494 191.372C278.644 191.454 278.773 191.57 278.871 191.709C278.969 191.849 279.033 192.01 279.059 192.179C279.085 192.347 279.073 192.52 279.021 192.683C278.874 193.161 278.67 193.621 278.414 194.05C277.676 195.327 276.129 196.837 273.058 196.837Z" fill="#EAF5F9"/>
<path d="M273.058 195.984C271.621 195.984 270.431 195.613 269.517 194.89C268.896 194.393 268.41 193.748 268.103 193.015C268.088 192.983 268.081 192.947 268.08 192.912C268.08 192.876 268.087 192.841 268.101 192.808C268.115 192.775 268.136 192.745 268.161 192.72C268.187 192.696 268.218 192.677 268.251 192.664C268.314 192.64 268.384 192.641 268.446 192.667C268.508 192.693 268.557 192.742 268.584 192.804C269.13 194.065 270.349 195.459 273.058 195.459C275.766 195.459 276.983 194.065 277.531 192.804C277.558 192.742 277.608 192.693 277.67 192.667C277.732 192.641 277.801 192.64 277.864 192.664C277.897 192.677 277.928 192.696 277.954 192.72C277.98 192.745 278 192.775 278.014 192.808C278.028 192.841 278.035 192.876 278.035 192.912C278.035 192.947 278.027 192.983 278.013 193.015C277.704 193.748 277.219 194.392 276.599 194.89C275.685 195.616 274.497 195.984 273.058 195.984Z" fill="#294A5C"/>
<path d="M265.152 189.654C265.152 190.058 265.032 190.454 264.808 190.79C264.583 191.126 264.264 191.388 263.891 191.542C263.517 191.697 263.106 191.738 262.71 191.659C262.313 191.58 261.949 191.385 261.664 191.099C261.378 190.814 261.183 190.449 261.104 190.053C261.025 189.657 261.066 189.246 261.221 188.872C261.375 188.499 261.637 188.18 261.973 187.955C262.309 187.73 262.704 187.611 263.109 187.611C263.651 187.611 264.17 187.826 264.554 188.209C264.937 188.592 265.152 189.112 265.152 189.654Z" fill="#294A5C"/>
<path d="M285.048 189.654C285.048 190.058 284.928 190.454 284.704 190.79C284.479 191.126 284.16 191.388 283.787 191.542C283.413 191.697 283.002 191.738 282.606 191.659C282.21 191.58 281.845 191.385 281.56 191.099C281.274 190.814 281.079 190.449 281 190.053C280.921 189.657 280.962 189.246 281.117 188.872C281.271 188.499 281.533 188.18 281.869 187.955C282.205 187.73 282.6 187.611 283.005 187.611C283.547 187.611 284.067 187.826 284.45 188.209C284.833 188.592 285.048 189.112 285.048 189.654Z" fill="#294A5C"/>
<path d="M284.125 188.285C284.565 188.657 284.673 189.255 284.367 189.612C284.06 189.968 283.46 189.952 283.021 189.576C282.583 189.201 282.464 188.608 282.778 188.252C283.092 187.895 283.687 187.91 284.125 188.285Z" fill="#E3EEF4"/>
<path d="M264.312 188.285C264.751 188.657 264.859 189.255 264.554 189.612C264.249 189.968 263.645 189.952 263.207 189.576C262.769 189.201 262.65 188.608 262.965 188.252C263.281 187.895 263.872 187.91 264.312 188.285Z" fill="#E3EEF4"/>
<path d="M284.716 200.421H261.396C260.924 200.421 260.458 200.328 260.022 200.148C259.587 199.968 259.191 199.703 258.858 199.37C258.525 199.036 258.261 198.641 258.081 198.205C257.9 197.77 257.808 197.303 257.808 196.832V199.189C257.808 199.661 257.9 200.127 258.081 200.563C258.261 200.998 258.525 201.394 258.858 201.727C259.191 202.061 259.587 202.325 260.022 202.506C260.458 202.686 260.924 202.779 261.396 202.779H284.716C285.667 202.778 286.58 202.4 287.253 201.727C287.925 201.054 288.303 200.141 288.303 199.189V196.832C288.303 197.783 287.925 198.696 287.253 199.369C286.58 200.042 285.667 200.421 284.716 200.421Z" fill="#06BFAD"/>
<path d="M284.64 205.8H261.474C259.448 205.8 257.806 207.442 257.806 209.467V239.533C257.806 241.559 259.448 243.201 261.474 243.201H284.64C286.665 243.201 288.307 241.559 288.307 239.533V209.467C288.307 207.442 286.665 205.8 284.64 205.8Z" fill="#02CCC0"/>
<path d="M284.716 240.843H261.396C260.924 240.843 260.458 240.75 260.022 240.57C259.587 240.389 259.191 240.125 258.858 239.791C258.525 239.458 258.261 239.062 258.081 238.627C257.9 238.191 257.808 237.725 257.808 237.253V239.611C257.808 240.082 257.9 240.549 258.081 240.985C258.261 241.42 258.525 241.816 258.858 242.149C259.191 242.482 259.587 242.747 260.022 242.927C260.458 243.108 260.924 243.201 261.396 243.201H284.716C285.667 243.2 286.58 242.822 287.253 242.149C287.925 241.475 288.303 240.563 288.303 239.611V237.253C288.303 238.205 287.925 239.118 287.253 239.791C286.58 240.464 285.667 240.842 284.716 240.843Z" fill="#06BFAD"/>
<path opacity="0.3" d="M270.451 211.2H263.43C261.678 211.2 260.259 212.62 260.259 214.372V228.614C260.259 230.366 261.678 231.786 263.43 231.786H270.451C272.202 231.786 273.622 230.366 273.622 228.614V214.372C273.622 212.62 272.202 211.2 270.451 211.2Z" fill="#294A5C"/>
<path opacity="0.3" d="M283.437 211.2H278.304C276.553 211.2 275.133 212.62 275.133 214.372V228.614C275.133 230.366 276.553 231.786 278.304 231.786H283.437C285.189 231.786 286.609 230.366 286.609 228.614V214.372C286.609 212.62 285.189 211.2 283.437 211.2Z" fill="#294A5C"/>
<path d="M271.651 213.835H271.536C271.255 213.835 271.027 214.063 271.027 214.344V228.642C271.027 228.923 271.255 229.151 271.536 229.151H271.651C271.932 229.151 272.16 228.923 272.16 228.642V214.344C272.16 214.063 271.932 213.835 271.651 213.835Z" fill="#294A5C"/>
<path d="M280.87 213.04C278.223 213.04 276.077 215.247 276.077 217.969H285.663C285.663 215.247 283.517 213.04 280.87 213.04Z" fill="#294A5C"/>
<path d="M280.87 213.731C278.847 213.731 277.206 215.31 277.206 217.261H284.53C284.53 215.31 282.893 213.731 280.87 213.731Z" fill="#EAF5F9"/>
<path d="M277.99 222.442C277.99 222.596 277.945 222.747 277.859 222.875C277.774 223.003 277.652 223.103 277.51 223.161C277.367 223.22 277.211 223.236 277.06 223.206C276.909 223.176 276.77 223.102 276.661 222.993C276.552 222.884 276.478 222.745 276.448 222.594C276.418 222.443 276.434 222.287 276.493 222.144C276.552 222.002 276.651 221.881 276.779 221.795C276.907 221.709 277.058 221.664 277.212 221.664C277.314 221.664 277.415 221.684 277.51 221.723C277.605 221.762 277.69 221.819 277.763 221.891C277.835 221.964 277.892 222.05 277.932 222.144C277.971 222.239 277.991 222.34 277.99 222.442Z" fill="#294A5C"/>
<path d="M285.608 222.442C285.608 222.596 285.562 222.747 285.476 222.875C285.391 223.003 285.269 223.103 285.127 223.161C284.985 223.22 284.828 223.236 284.677 223.206C284.526 223.176 284.388 223.102 284.279 222.993C284.17 222.884 284.096 222.745 284.066 222.594C284.036 222.443 284.051 222.287 284.11 222.144C284.169 222.002 284.269 221.881 284.397 221.795C284.525 221.709 284.675 221.664 284.829 221.664C284.931 221.664 285.033 221.684 285.127 221.723C285.222 221.762 285.308 221.819 285.38 221.891C285.453 221.964 285.51 222.05 285.549 222.144C285.588 222.239 285.608 222.34 285.608 222.442Z" fill="#294A5C"/>
<path d="M277.99 229.792C277.99 229.946 277.945 230.097 277.859 230.225C277.774 230.353 277.652 230.452 277.51 230.511C277.367 230.57 277.211 230.586 277.06 230.556C276.909 230.526 276.77 230.451 276.661 230.343C276.552 230.234 276.478 230.095 276.448 229.944C276.418 229.793 276.434 229.636 276.493 229.494C276.552 229.352 276.651 229.23 276.779 229.145C276.907 229.059 277.058 229.014 277.212 229.014C277.314 229.013 277.415 229.033 277.51 229.072C277.605 229.111 277.69 229.169 277.763 229.241C277.835 229.313 277.892 229.399 277.932 229.494C277.971 229.588 277.991 229.69 277.99 229.792Z" fill="#294A5C"/>
<path d="M285.608 229.792C285.608 229.946 285.562 230.097 285.476 230.225C285.391 230.353 285.269 230.452 285.127 230.511C284.985 230.57 284.828 230.586 284.677 230.556C284.526 230.526 284.388 230.451 284.279 230.343C284.17 230.234 284.096 230.095 284.066 229.944C284.036 229.793 284.051 229.636 284.11 229.494C284.169 229.352 284.269 229.23 284.397 229.145C284.525 229.059 284.675 229.014 284.829 229.014C284.931 229.013 285.033 229.033 285.127 229.072C285.222 229.111 285.308 229.169 285.38 229.241C285.453 229.313 285.51 229.399 285.549 229.494C285.588 229.588 285.608 229.69 285.608 229.792Z" fill="#294A5C"/>
<path d="M285.992 234.556H261.069C260.728 234.556 260.452 234.832 260.452 235.173V235.312C260.452 235.653 260.728 235.929 261.069 235.929H285.992C286.333 235.929 286.609 235.653 286.609 235.312V235.173C286.609 234.832 286.333 234.556 285.992 234.556Z" fill="#294A5C"/>
<path d="M285.992 237.253H261.069C260.728 237.253 260.452 237.53 260.452 237.87V238.01C260.452 238.35 260.728 238.626 261.069 238.626H285.992C286.333 238.626 286.609 238.35 286.609 238.01V237.87C286.609 237.53 286.333 237.253 285.992 237.253Z" fill="#294A5C"/>
<path opacity="0.3" d="M280.653 216.813L282.063 214.227L281.286 216.882L280.653 216.813Z" fill="#294A5C"/>
<path d="M281.576 217.257C281.577 217.243 281.577 217.229 281.576 217.215C281.576 217.027 281.501 216.847 281.369 216.714C281.236 216.581 281.056 216.507 280.868 216.507C280.68 216.507 280.5 216.581 280.368 216.714C280.235 216.847 280.16 217.027 280.16 217.215C280.16 217.228 280.16 217.243 280.16 217.257H281.576Z" fill="#02CCC0"/>
<path d="M265.888 257.856C264.803 257.856 263.742 258.176 262.838 258.776C261.934 259.376 261.227 260.23 260.807 261.23C260.71 261.465 260.672 261.721 260.698 261.974C260.723 262.227 260.811 262.47 260.953 262.681C261.095 262.892 261.286 263.065 261.511 263.185C261.736 263.304 261.986 263.367 262.241 263.366H269.535C269.789 263.367 270.04 263.304 270.265 263.185C270.489 263.065 270.681 262.892 270.823 262.681C270.965 262.47 271.052 262.227 271.078 261.974C271.103 261.721 271.066 261.465 270.969 261.23C270.548 260.23 269.842 259.376 268.938 258.776C268.034 258.176 266.973 257.856 265.888 257.856Z" fill="#02CCC0"/>
<path d="M268.874 250.298C268.874 250.858 268.708 251.406 268.397 251.872C268.086 252.338 267.644 252.702 267.126 252.917C266.608 253.131 266.038 253.188 265.489 253.079C264.939 252.97 264.434 252.7 264.038 252.304C263.641 251.907 263.371 251.403 263.262 250.853C263.152 250.303 263.208 249.734 263.423 249.216C263.637 248.698 264 248.255 264.466 247.944C264.932 247.633 265.48 247.466 266.04 247.466C266.791 247.466 267.512 247.765 268.043 248.296C268.574 248.826 268.873 249.547 268.874 250.298Z" fill="#02CCC0"/>
<path d="M266.754 167.449C266.754 167.742 266.667 168.029 266.504 168.273C266.341 168.518 266.109 168.708 265.838 168.821C265.567 168.934 265.269 168.964 264.981 168.907C264.693 168.85 264.428 168.71 264.22 168.503C264.012 168.296 263.869 168.032 263.811 167.744C263.752 167.457 263.781 167.158 263.892 166.886C264.003 166.615 264.192 166.382 264.435 166.217C264.678 166.053 264.965 165.964 265.258 165.962C265.653 165.962 266.032 166.119 266.312 166.397C266.593 166.676 266.751 167.054 266.754 167.449Z" fill="#02CCC0"/>
<path d="M282.365 167.449C282.365 167.742 282.279 168.029 282.116 168.274C281.953 168.518 281.721 168.708 281.45 168.821C281.179 168.934 280.881 168.964 280.593 168.907C280.305 168.851 280.04 168.71 279.831 168.503C279.623 168.296 279.481 168.032 279.423 167.744C279.364 167.457 279.392 167.158 279.503 166.886C279.614 166.615 279.803 166.382 280.047 166.217C280.29 166.053 280.576 165.964 280.87 165.962C281.066 165.961 281.26 165.999 281.442 166.073C281.623 166.147 281.788 166.256 281.927 166.394C282.066 166.533 282.176 166.697 282.251 166.878C282.327 167.059 282.365 167.253 282.365 167.449Z" fill="#02CCC0"/>
<path d="M232.336 124.099C232.207 123.8 232.015 123.532 231.773 123.314C231.531 123.095 231.246 122.931 230.936 122.832L225.973 121.249C226.271 120.271 226.519 119.279 226.716 118.276L215.231 115.023L203.751 111.766C203.393 112.722 203.083 113.694 202.822 114.681L197.776 113.425C197.46 113.346 197.131 113.336 196.81 113.395C196.49 113.453 196.185 113.58 195.918 113.767C195.651 113.953 195.427 114.195 195.261 114.475C195.095 114.756 194.991 115.069 194.956 115.393C194.77 117.187 194.627 120.71 195.924 124.125C196.611 125.978 197.711 127.651 199.14 129.017C200.665 130.464 202.575 131.541 204.827 132.238C205.979 133.468 207.508 134.484 209.514 135.166C211.58 135.64 213.416 135.579 215.041 135.136C217.33 135.731 219.526 135.816 221.579 135.389C223.513 134.978 225.327 134.132 226.884 132.914C229.784 130.685 231.528 127.618 232.296 125.988C232.437 125.694 232.514 125.374 232.521 125.048C232.528 124.722 232.465 124.398 232.336 124.099ZM197.118 115.627C197.12 115.611 197.126 115.596 197.134 115.583C197.142 115.569 197.153 115.557 197.166 115.548C197.179 115.539 197.194 115.533 197.209 115.531C197.225 115.528 197.241 115.528 197.256 115.532L202.322 116.794C201.589 120.324 201.15 125.093 202.776 129.009C196.799 125.602 196.78 118.733 197.118 115.627ZM230.343 125.054C228.998 127.876 225.371 133.715 218.49 133.472C221.932 130.99 224.063 126.702 225.295 123.311L230.28 124.899C230.295 124.904 230.309 124.913 230.321 124.924C230.333 124.934 230.342 124.948 230.349 124.963C230.354 124.977 230.357 124.993 230.356 125.009C230.355 125.025 230.351 125.04 230.343 125.054Z" fill="#FFD103"/>
<path d="M207.287 153.97L210.887 133.472L209.507 135.213L209.52 135.166L209.26 132.961L201.559 152.296L207.287 153.97Z" fill="#FFD103"/>
<path d="M211.493 135.725C211.381 136.113 211.158 136.46 210.85 136.721C210.542 136.981 210.163 137.145 209.763 137.192C209.362 137.238 208.956 137.164 208.597 136.98C208.238 136.796 207.941 136.51 207.744 136.158C207.547 135.805 207.459 135.402 207.491 135C207.523 134.598 207.673 134.214 207.923 133.897C208.173 133.58 208.511 133.344 208.894 133.219C209.278 133.093 209.69 133.084 210.079 133.193C210.339 133.266 210.581 133.389 210.793 133.556C211.005 133.723 211.181 133.93 211.313 134.165C211.444 134.4 211.528 134.66 211.559 134.927C211.59 135.195 211.567 135.466 211.493 135.725Z" fill="#FFD103"/>
<path d="M204.462 142.063L204.415 142.226C204.303 142.624 204.534 143.038 204.931 143.15L209.23 144.37C209.628 144.483 210.042 144.252 210.155 143.854L210.201 143.691C210.314 143.294 210.083 142.88 209.685 142.767L205.386 141.547C204.988 141.434 204.574 141.665 204.462 142.063Z" fill="#FFD103"/>
<path d="M207.374 155.481L200.676 153.58C200.454 153.517 200.266 153.368 200.154 153.166C200.041 152.965 200.013 152.726 200.076 152.504L200.13 152.318C200.193 152.096 200.342 151.908 200.544 151.796C200.745 151.683 200.984 151.655 201.206 151.718L207.905 153.619C208.128 153.682 208.316 153.831 208.428 154.033C208.541 154.234 208.568 154.472 208.505 154.695L208.452 154.88C208.42 154.991 208.368 155.094 208.297 155.183C208.225 155.273 208.137 155.348 208.037 155.404C207.937 155.46 207.827 155.495 207.713 155.508C207.599 155.521 207.484 155.512 207.374 155.481Z" fill="#FFD103"/>
<g style="mix-blend-mode:multiply" opacity="0.5">
<path d="M208.985 144.3L205.174 143.219L204.762 144.253L208.79 145.413L208.985 144.3Z" fill="#FEB546"/>
</g>
<g style="mix-blend-mode:multiply" opacity="0.5">
<path d="M200.266 151.978C200.22 152.045 200.185 152.118 200.163 152.196L200.043 152.621C200.014 152.716 200.006 152.816 200.016 152.914C200.027 153.013 200.058 153.108 200.106 153.195C200.154 153.281 200.22 153.357 200.298 153.418C200.376 153.479 200.465 153.524 200.561 153.55L207.491 155.518C207.586 155.546 207.685 155.555 207.784 155.544C207.882 155.533 207.978 155.503 208.064 155.455C208.151 155.407 208.227 155.342 208.288 155.264C208.349 155.186 208.394 155.097 208.42 155.001L208.541 154.576C208.562 154.498 208.571 154.417 208.567 154.336L200.266 151.978Z" fill="#FEB546"/>
</g>
<path d="M208.281 157.544L198.82 154.862C198.518 154.775 198.262 154.572 198.109 154.298C197.956 154.023 197.917 153.699 198.003 153.396L198.077 153.136C198.12 152.986 198.191 152.845 198.288 152.723C198.384 152.601 198.504 152.499 198.64 152.423C198.777 152.347 198.926 152.299 199.081 152.281C199.236 152.263 199.393 152.275 199.543 152.318L209.003 155.001C209.306 155.087 209.562 155.29 209.715 155.565C209.868 155.84 209.906 156.164 209.821 156.467L209.746 156.727C209.704 156.877 209.633 157.017 209.536 157.14C209.44 157.262 209.32 157.365 209.184 157.44C209.047 157.516 208.897 157.565 208.742 157.583C208.588 157.6 208.431 157.587 208.281 157.544Z" fill="#FFD103"/>
<g style="mix-blend-mode:multiply" opacity="0.3">
<path d="M226.716 118.28L222.542 117.097C222.508 117.197 222.473 117.298 222.438 117.4C215.993 115.696 203.649 112.332 203.649 112.332L221.442 119.949C219.069 125.353 214.525 131.579 206.499 129.74C204.889 129.22 203.414 128.348 202.183 127.187C203.051 130.621 205.156 133.69 209.527 135.167C223.121 138.282 226.716 118.28 226.716 118.28Z" fill="#FEB546"/>
</g>
<path d="M226.393 120.214L203.015 113.58C202.818 113.524 202.633 113.43 202.472 113.302C202.311 113.175 202.177 113.017 202.076 112.838C201.976 112.659 201.913 112.461 201.889 112.257C201.865 112.054 201.882 111.847 201.938 111.649L202.034 111.306C202.09 111.108 202.185 110.924 202.312 110.762C202.439 110.601 202.597 110.467 202.776 110.367C202.955 110.267 203.153 110.203 203.357 110.179C203.561 110.155 203.767 110.172 203.965 110.228L227.344 116.863C227.743 116.976 228.08 117.243 228.282 117.605C228.485 117.967 228.535 118.394 228.422 118.793L228.323 119.137C228.21 119.535 227.943 119.873 227.581 120.075C227.219 120.277 226.792 120.327 226.393 120.214Z" fill="#FFE55A"/>
<g style="mix-blend-mode:screen" opacity="0.3">
<path d="M204.886 115.999C204.886 115.999 199.487 130.061 210.887 133.472C210.887 133.472 203.547 128.049 204.886 115.999Z" fill="#F4C676"/>
</g>
<g style="mix-blend-mode:multiply" opacity="0.3">
<path d="M214.131 119.604L214.859 123.569L218.54 125.215L214.995 127.134L214.566 131.142L211.645 128.364L207.701 129.195L209.442 125.559L207.432 122.064L211.428 122.596L214.131 119.604Z" fill="#FEB546"/>
</g>
<path d="M213.932 118.955L214.66 122.92L218.341 124.566L214.796 126.485L214.367 130.492L211.446 127.713L207.502 128.543L209.243 124.909L207.233 121.415L211.229 121.944L213.932 118.955Z" fill="#FFE55A"/>
<path d="M243.121 166.745C225.024 166.573 206.138 146.708 204.894 145.528C203.649 144.349 203.407 142.976 203.699 142.766C203.991 142.556 204.814 143.007 204.814 143.007C204.814 143.007 204.303 141.237 204.684 140.869C205.223 140.352 206.445 141.019 206.445 141.019C206.445 141.019 206.22 139.275 206.947 139.033C207.673 138.792 208.416 140.179 208.416 140.179C209.031 139.453 209.485 139.42 209.485 139.42C210.785 139.518 210.599 142.087 210.599 142.087L211.439 141.876C212.715 141.617 211.838 144.597 211.838 144.597C211.838 144.597 213.906 147.786 225.109 153.214C236.312 158.643 243.984 157.352 243.984 157.352L243.121 166.745Z" fill="#FFC0BB"/>
<path d="M242.088 156.231C242.088 156.231 251.848 155.673 254.438 155.915C257.945 156.231 258.98 160.712 255.963 163.556C253.124 166.234 242.088 168.387 242.088 168.387V156.231Z" fill="#E03268"/>
<path d="M253.018 165.112C252.441 165.375 251.853 165.615 251.259 165.836C250.664 166.057 250.064 166.265 249.459 166.455C248.253 166.845 247.027 167.181 245.793 167.477C245.174 167.625 244.554 167.763 243.935 167.889C243.378 168.004 242.798 168.119 242.228 168.218L242.217 165.344C242.217 164.331 242.204 163.319 242.192 162.306L242.152 159.261C242.131 158.248 242.116 157.236 242.088 156.223C242.059 157.236 242.046 158.248 242.023 159.261L241.984 162.306C241.973 163.319 241.96 164.331 241.96 165.344L241.949 168.383V168.55L242.111 168.526C243.376 168.326 244.621 168.054 245.86 167.75C247.099 167.445 248.327 167.096 249.537 166.691C250.141 166.484 250.741 166.263 251.331 166.026C251.922 165.788 252.511 165.533 253.085 165.255C253.659 164.976 254.217 164.666 254.757 164.326C255.301 163.995 255.819 163.622 256.305 163.211C255.287 163.97 254.184 164.608 253.018 165.112Z" fill="#EAF5F9"/>
<path d="M218.151 263.383L233.869 263.412C233.999 263.414 234.124 263.365 234.217 263.275C234.311 263.184 234.365 263.061 234.367 262.931V262.229C234.367 262.099 234.315 261.975 234.223 261.883C234.132 261.791 234.008 261.739 233.878 261.738L218.161 261.71C218.096 261.71 218.033 261.723 217.973 261.747C217.914 261.772 217.86 261.808 217.814 261.853C217.768 261.898 217.732 261.952 217.708 262.012C217.683 262.071 217.67 262.135 217.67 262.199V262.899C217.672 263.027 217.723 263.148 217.813 263.238C217.903 263.328 218.024 263.38 218.151 263.383Z" fill="#294A5C"/>
<path d="M233.607 256.628L234.152 261.302C234.219 261.878 233.895 262.4 233.472 262.4L218.761 262.374C218.551 262.366 218.348 262.297 218.178 262.174C218.007 262.052 217.877 261.881 217.802 261.685C217.596 261.226 217.557 260.533 218.217 259.602C219.517 257.763 223.777 257.306 225.919 255.76C225.963 255.729 226.016 255.712 226.07 255.712L232.84 255.725C233.221 255.723 233.546 256.106 233.607 256.628Z" fill="#FF5B7E"/>
<path d="M227.019 258.424C227.072 258.38 227.109 258.32 227.125 258.253C227.14 258.186 227.133 258.116 227.105 258.053C226.817 257.414 225.917 255.853 224.078 256.169C223.972 256.187 223.892 256.329 223.918 256.474C223.935 256.613 224.032 256.706 224.134 256.689C225.782 256.41 226.549 257.785 226.779 258.324C226.828 258.434 226.936 258.473 227.019 258.424Z" fill="#294A5C"/>
<path d="M225.49 259.03C225.543 258.986 225.58 258.925 225.595 258.858C225.611 258.791 225.604 258.721 225.575 258.658C225.288 258.017 224.388 256.457 222.549 256.772C222.443 256.791 222.363 256.932 222.389 257.077C222.406 257.218 222.503 257.309 222.605 257.293C224.253 257.014 225.02 258.391 225.25 258.928C225.299 259.03 225.403 259.078 225.49 259.03Z" fill="#294A5C"/>
<path d="M224.069 259.587C224.121 259.542 224.158 259.482 224.173 259.415C224.188 259.348 224.181 259.278 224.153 259.215C223.865 258.574 222.965 257.015 221.128 257.331C221.022 257.35 220.942 257.491 220.966 257.636C220.983 257.775 221.078 257.868 221.182 257.852C222.828 257.573 223.597 258.948 223.826 259.485C223.878 259.587 223.98 259.635 224.069 259.587Z" fill="#294A5C"/>
<path d="M242.652 263.383L258.367 263.412C258.497 263.412 258.622 263.361 258.714 263.269C258.805 263.178 258.857 263.054 258.858 262.924V262.221C258.858 262.092 258.806 261.967 258.715 261.875C258.623 261.783 258.499 261.731 258.369 261.731L242.653 261.703C242.526 261.705 242.404 261.757 242.313 261.847C242.223 261.938 242.172 262.06 242.17 262.188V262.888C242.169 263.018 242.219 263.142 242.309 263.235C242.399 263.328 242.522 263.381 242.652 263.383Z" fill="#294A5C"/>
<path d="M258.105 256.628L258.65 261.302C258.718 261.878 258.393 262.4 257.972 262.4L243.257 262.372C243.047 262.364 242.845 262.294 242.674 262.171C242.504 262.049 242.373 261.879 242.298 261.683C242.094 261.224 242.053 260.531 242.715 259.6C244.015 257.761 248.275 257.304 250.417 255.758C250.461 255.726 250.513 255.709 250.566 255.71L257.336 255.723C257.719 255.723 258.046 256.105 258.105 256.628Z" fill="#FF5B7E"/>
<path d="M251.519 258.424C251.572 258.38 251.608 258.32 251.623 258.253C251.638 258.186 251.631 258.115 251.603 258.053C251.315 257.414 250.416 255.853 248.578 256.169C248.472 256.187 248.392 256.329 248.417 256.474C248.433 256.613 248.528 256.706 248.632 256.689C250.278 256.41 251.047 257.785 251.276 258.324C251.328 258.434 251.43 258.473 251.519 258.424Z" fill="#294A5C"/>
<path d="M249.99 259.03C250.042 258.985 250.079 258.925 250.094 258.858C250.109 258.791 250.102 258.721 250.074 258.658C249.786 258.017 248.886 256.457 247.049 256.772C246.943 256.791 246.863 256.932 246.887 257.077C246.904 257.218 246.999 257.309 247.103 257.293C248.749 257.014 249.518 258.391 249.747 258.928C249.799 259.03 249.901 259.078 249.99 259.03Z" fill="#294A5C"/>
<path d="M248.567 259.587C248.62 259.543 248.657 259.483 248.672 259.415C248.688 259.348 248.681 259.278 248.652 259.215C248.364 258.574 247.463 257.015 245.626 257.331C245.52 257.35 245.44 257.491 245.466 257.636C245.483 257.775 245.579 257.868 245.682 257.852C247.329 257.573 248.097 258.948 248.327 259.485C248.375 259.587 248.487 259.635 248.567 259.587Z" fill="#294A5C"/>
<defs>
<linearGradient id="paint0_linear_1142_13913" x1="268.786" y1="2.74274" x2="268.786" y2="533" gradientUnits="userSpaceOnUse">
<stop offset="0.270833" stop-color="#B62D2D"/>
<stop offset="1" stop-color="#223831" stop-opacity="0"/>
</linearGradient>
</defs>
</svg>
