<svg width="31" height="41" viewBox="0 0 31 41" fill="none" xmlns="http://www.w3.org/2000/svg">
<path d="M30.4975 26.8759C30.4975 22.9938 27.7951 19.743 24.1689 18.9019L13.5752 30.1209L15.2487 40.1622L16.5039 40.999H23.8302L25.0853 40.1623L26.3405 40.999H30.4975V26.8759H30.4975Z" fill="#003DA8"/>
<path d="M6.32857 18.9019C2.70231 19.743 0 22.9938 0 26.8759V40.9989H4.15701L5.41216 40.1622L6.6673 40.9989H13.9936L15.2487 40.1622V28.3485L6.32857 18.9019Z" fill="#2F91ED"/>
<path d="M22.3119 18.6914H15.2487L13.5752 23.0015L15.2487 30.569L24.1688 18.9031C23.5722 18.7646 22.9506 18.6914 22.3119 18.6914Z" fill="#FF8E00"/>
<path d="M8.18564 18.6895C7.54693 18.6895 6.92529 18.7626 6.3287 18.9011L15.2488 30.567V18.6895H8.18564Z" fill="#FFBA00"/>
<path d="M16.5039 19.3252H15.2488L14.412 30.5667L15.2488 40.9979H16.5039V19.3252Z" fill="#FFBA00"/>
<path d="M15.2488 19.3271H13.9937V40.9996H15.2488V19.3271Z" fill="#FDE09C"/>
<path d="M6.66774 26.6133H4.15746V40.9999H6.66774V26.6133Z" fill="#003DA8"/>
<path d="M26.3401 26.6133H23.8298V40.9999H26.3401V26.6133Z" fill="#2F91ED"/>
<path d="M5.48438 1.25537H2.97409V11.003H5.48438V1.25537Z" fill="#003DA8"/>
<path d="M13.5752 6.15088L15.2487 20.4581C19.4826 20.4581 22.9148 17.0259 22.9148 12.7921V7.82443L13.5752 6.15088Z" fill="#FF6E7A"/>
<path d="M7.58257 7.82443V12.7921C7.58257 17.0259 11.0148 20.4581 15.2486 20.4581V6.15088L7.58257 7.82443Z" fill="#FFABB2"/>
<path d="M22.9148 1.25537H15.2487L13.5752 4.54001L15.2487 7.82474H22.9148V1.25537Z" fill="#003DA8"/>
<path d="M15.248 1.25439H7.58234V7.82392H15.248V1.25439Z" fill="#2F91ED"/>
<path d="M28.9949 0H15.2488L13.5753 1.25514L15.2488 2.51029H28.9949V0Z" fill="#2F91ED"/>
<path d="M15.2487 0H1.50221V2.51029H15.2487V0Z" fill="#63C1FF"/>
</svg>
