<svg width="29" height="20" viewBox="0 0 29 20" fill="none" xmlns="http://www.w3.org/2000/svg">
<path d="M28.7501 18.4191C28.7501 19.0244 28.3072 19.5195 27.7673 19.5195H1.2464C0.707152 19.5195 0.26416 19.0243 0.26416 18.4191V1.54575C0.26416 0.940435 0.707072 0.445312 1.2464 0.445312H27.7673C28.3072 0.445312 28.7501 0.940515 28.7501 1.54575V18.4191Z" fill="#179BD7"/>
<path d="M15.5055 12.4394C15.0181 12.8245 14.2173 12.8292 13.7256 12.4504L0.264343 2.06113V4.262L13.7256 14.6505C14.2174 15.0299 15.0182 15.0253 15.5055 14.6402L28.7503 4.18312V1.98193L15.5055 12.4394Z" fill="#1C1C1C"/>
<path d="M27.7673 0.445312H1.2464C0.707152 0.445312 0.26416 0.940515 0.26416 1.54575V2.06065L13.7255 12.4498C14.2172 12.8286 15.018 12.8239 15.5053 12.4389L28.7501 1.98145V1.54575C28.7501 0.940435 28.3072 0.445312 27.7673 0.445312Z" fill="white"/>
</svg>
