<svg width="26" height="17" viewBox="0 0 26 17" fill="none" xmlns="http://www.w3.org/2000/svg">
<path d="M20.8962 8.21784V1.6709C19.0911 1.6709 17.6226 3.13937 17.6226 4.9444C17.6226 6.74942 19.0911 8.21784 20.8962 8.21784Z" fill="#0A468B"/>
<path d="M24.1697 4.9444C24.1697 3.13937 22.7013 1.6709 20.8962 1.6709V8.21784C22.7013 8.21784 24.1697 6.74937 24.1697 4.9444Z" fill="#2A81E9"/>
<path d="M26 14.0872C26 11.273 23.7105 8.9834 20.8962 8.9834C19.4355 8.9834 18.0786 9.59948 17.1255 10.6474C18.4575 11.7248 19.3617 13.3111 19.539 15.108H26V14.0872Z" fill="#0A468B"/>
<path d="M8.87449 10.6474C7.92146 9.59953 6.5645 8.9834 5.10383 8.9834C2.28958 8.9834 0 11.273 0 14.0872V15.108H6.46094C6.6383 13.3111 7.5425 11.7248 8.87449 10.6474Z" fill="#0A468B"/>
<path d="M5.10385 8.21784V1.6709C3.29883 1.6709 1.83035 3.13937 1.83035 4.9444C1.83035 6.74942 3.29883 8.21784 5.10385 8.21784Z" fill="#0A468B"/>
<path d="M8.37732 4.9444C8.37732 3.13937 6.90884 1.6709 5.10382 1.6709V8.21784C6.90884 8.21784 8.37732 6.74937 8.37732 4.9444Z" fill="#2A81E9"/>
<path d="M17.1255 10.6477C15.9968 9.73471 14.5612 9.18701 13 9.18701V16.7795H19.5712V15.7587C19.5712 15.5392 19.5601 15.3223 19.539 15.1084C19.3617 13.3114 18.4575 11.7251 17.1255 10.6477Z" fill="#179BD7"/>
<path d="M17.083 4.08307C17.083 1.83177 15.2513 0 13 0V8.16613C15.2513 8.16613 17.083 6.33488 17.083 4.08307Z" fill="#179BD7"/>
<path d="M8.87448 10.6477C7.54248 11.7251 6.63828 13.3115 6.46093 15.1084C6.4398 15.3224 6.42877 15.5393 6.42877 15.7587V16.7795H13V9.18701C11.4387 9.18706 10.0031 9.73476 8.87448 10.6477Z" fill="#179BD7"/>
<path d="M13 8.16613V0C10.7487 0 8.9169 1.83177 8.9169 4.08307C8.9169 6.33488 10.7487 8.16613 13 8.16613Z" fill="#179BD7"/>
</svg>
